<svg xmlns="http://www.w3.org/2000/svg" width="970.101" height="664.5" viewBox="0 0 970.101 664.5">
  <g id="_5865547" data-name="5865547" transform="translate(-27.695 -7)">
    <g id="Background_Simple" transform="translate(27.695 78.651)" opacity="0.111">
      <g id="Group_55882" data-name="Group 55882">
        <path id="Path_41013" data-name="Path 41013" d="M920.862,267.192c-51.6-44.852-113.324-75.3-174.541-104.7C677.7,129.527,606.072,96.618,532.568,76.313a557.985,557.985,0,0,0-74.582-15.453c-110.767-14.789-216.752,60.18-293.449,131.652a818.363,818.363,0,0,0-85.017,92.2c-18.894,23.995-41.438,49.661-49.413,80.4-9.357,36.116,10.2,66.372,29.7,95.107,15.632,23.041,31.859,44.755,51.458,64.672a418.713,418.713,0,0,0,162.2,102.032C386.984,665.769,513,651.035,629.6,636.964q9.869-1.182,19.71-2.474c72-9.385,143.525-15.743,212.081-41.977,99.489-38.079,166.552-149.869,116.738-252.882C964.5,311.407,944.47,287.717,920.862,267.192Z" transform="translate(-27.695 -58.977)" fill="#bb582f"/>
        <path id="Path_41014" data-name="Path 41014" d="M920.862,267.192c-51.6-44.852-113.324-75.3-174.541-104.7C677.7,129.527,606.072,96.618,532.568,76.313a557.985,557.985,0,0,0-74.582-15.453c-110.767-14.789-216.752,60.18-293.449,131.652a818.363,818.363,0,0,0-85.017,92.2c-18.894,23.995-41.438,49.661-49.413,80.4-9.357,36.116,10.2,66.372,29.7,95.107,15.632,23.041,31.859,44.755,51.458,64.672a418.713,418.713,0,0,0,162.2,102.032C386.984,665.769,513,651.035,629.6,636.964q9.869-1.182,19.71-2.474c72-9.385,143.525-15.743,212.081-41.977,99.489-38.079,166.552-149.869,116.738-252.882C964.5,311.407,944.47,287.717,920.862,267.192Z" transform="translate(-27.695 -58.977)" fill="#f8425f" opacity="0.7"/>
      </g>
    </g>
    <g id="Floor" transform="translate(48.199 635.864)">
      <line id="Line_1067" data-name="Line 1067" x2="949.097" fill="none" stroke="#263238" stroke-linecap="round" stroke-linejoin="round" stroke-width="1"/>
    </g>
    <g id="Clock" transform="translate(90.734 128.454)">
      <g id="Group_55883" data-name="Group 55883">
        <circle id="Ellipse_1745" data-name="Ellipse 1745" cx="46.787" cy="46.787" r="46.787" transform="translate(2.994 3.013)" fill="none" stroke="#263238" stroke-linecap="round" stroke-linejoin="round" stroke-width="1"/>
        <circle id="Ellipse_1746" data-name="Ellipse 1746" cx="41.382" cy="41.382" r="41.382" transform="translate(0 19.019) rotate(-13.286)" fill="none" stroke="#263238" stroke-linecap="round" stroke-linejoin="round" stroke-width="1"/>
        <circle id="Ellipse_1747" data-name="Ellipse 1747" cx="3.953" cy="3.953" r="3.953" transform="translate(45.828 45.847)" fill="#263238" stroke="#263238" stroke-linecap="round" stroke-linejoin="round" stroke-width="1"/>
        <path id="Path_41015" data-name="Path 41015" d="M130.364,138.075l-14.4-7.035L91.94,157.287" transform="translate(-66.181 -81.24)" fill="none" stroke="#263238" stroke-linecap="round" stroke-linejoin="round" stroke-width="1"/>
      </g>
    </g>
    <g id="Picture" transform="translate(857.807 129.891)">
      <g id="Group_55884" data-name="Group 55884" transform="translate(0)">
        <rect id="Rectangle_19123" data-name="Rectangle 19123" width="116.877" height="145.598" fill="none" stroke="#263238" stroke-linecap="round" stroke-linejoin="round" stroke-width="1"/>
        <rect id="Rectangle_19124" data-name="Rectangle 19124" width="109.247" height="136.089" transform="translate(3.829 4.768)" fill="none" stroke="#263238" stroke-linecap="round" stroke-linejoin="round" stroke-width="1"/>
        <rect id="Rectangle_19125" data-name="Rectangle 19125" width="44.921" height="55.95" transform="translate(35.992 44.824)" fill="none" stroke="#263238" stroke-linecap="round" stroke-linejoin="round" stroke-width="1"/>
      </g>
    </g>
    <g id="Lamps" transform="translate(101.386 7.5)">
      <g id="Group_55885" data-name="Group 55885" transform="translate(393.201)">
        <line id="Line_1068" data-name="Line 1068" y1="43.704" transform="translate(36.075)" fill="none" stroke="#263238" stroke-linecap="round" stroke-linejoin="round" stroke-width="1"/>
        <path id="Path_41016" data-name="Path 41016" d="M437.653,63.616H365.49L387.135,36.18h28.86Z" transform="translate(-365.49 3.461)" fill="#263238"/>
      </g>
      <g id="Group_55886" data-name="Group 55886" transform="translate(786.401)">
        <line id="Line_1069" data-name="Line 1069" y1="43.704" transform="translate(36.089)" fill="none" stroke="#263238" stroke-linecap="round" stroke-linejoin="round" stroke-width="1"/>
        <path id="Path_41017" data-name="Path 41017" d="M722.133,63.616H649.97L671.615,36.18h28.874Z" transform="translate(-649.97 3.461)" fill="#263238"/>
      </g>
      <g id="Group_55887" data-name="Group 55887">
        <line id="Line_1070" data-name="Line 1070" y1="43.704" transform="translate(36.075)" fill="none" stroke="#263238" stroke-linecap="round" stroke-linejoin="round" stroke-width="1"/>
        <path id="Path_41018" data-name="Path 41018" d="M153.173,63.616H81.01L102.655,36.18h28.86Z" transform="translate(-81.01 3.461)" fill="#263238"/>
      </g>
    </g>
    <g id="Plant" transform="translate(45.725 354.044)">
      <g id="Group_55890" data-name="Group 55890">
        <g id="Group_55889" data-name="Group 55889">
          <g id="Group_55888" data-name="Group 55888" transform="translate(32.913 86.95)">
            <path id="Path_41019" data-name="Path 41019" d="M103.9,321.323h0a.136.136,0,0,0-.249-.111,177.362,177.362,0,0,0-9.33,29.247,271.035,271.035,0,0,0-5.142,30.311l-.733,7.657c-.111,1.272-.249,2.557-.346,3.829L87.9,396.1c-.111,2.557-.263,5.128-.346,7.7l.069,7.7.083,3.842c.055,1.285.152,2.557.235,3.842.194,2.557.346,5.114.581,7.671.5,5.1,1.258,10.187,2.046,15.232a.135.135,0,0,0,.138.111.139.139,0,0,0,.138-.138v-.014c-.014-2.571-.124-5.114-.18-7.671s-.29-5.086-.263-7.643-.055-5.1-.083-7.643l-.069-3.815.069-3.815.028-7.63.207-7.63.083-3.815c.055-1.272.138-2.543.207-3.815l.47-7.616a272.242,272.242,0,0,1,4.312-30.242A180.331,180.331,0,0,1,103.9,321.323Z" transform="translate(-55.763 -321.132)" fill="#263238"/>
            <path id="Path_41020" data-name="Path 41020" d="M103.056,350.188a.134.134,0,0,0-.083-.166.124.124,0,0,0-.166.083,177.355,177.355,0,0,0-8.639,39.3c-.677,6.676-1.424,13.366-1.52,20.069a166.241,166.241,0,0,0,.719,20.138.163.163,0,0,0,.124.124.137.137,0,0,0,.152-.124c.774-6.69,1.244-13.352,1.714-20.014s.539-13.338.968-20.014A177.274,177.274,0,0,1,98.7,369.746,182.313,182.313,0,0,1,103.056,350.188Z" transform="translate(-53.827 -310.095)" fill="#263238"/>
            <path id="Path_41021" data-name="Path 41021" d="M123.8,360.308a.123.123,0,0,0-.18-.041,67.459,67.459,0,0,0-14.789,12.9,59.594,59.594,0,0,0-5.777,8.044l-1.189,2.239-.926,2.336a23.859,23.859,0,0,0-.815,2.364c-.235.8-.511,1.589-.719,2.391a94.682,94.682,0,0,0-3.055,19.516,113.907,113.907,0,0,0,.733,19.654.133.133,0,0,0,.124.111.136.136,0,0,0,.138-.124l1.686-19.447c.677-6.427,1.078-12.9,2.46-19.185.18-.788.4-1.548.594-2.322s.4-1.548.677-2.294l.788-2.253,1.023-2.129a57.673,57.673,0,0,1,5.294-8.044A66.753,66.753,0,0,1,123.762,360.5h.014A.194.194,0,0,0,123.8,360.308Z" transform="translate(-52.445 -306.185)" fill="#263238"/>
            <path id="Path_41022" data-name="Path 41022" d="M111.874,378.374c-3.013,1.949-5.031,5-6.731,8.086a48.019,48.019,0,0,0-3.773,9.91c-.263.843-.47,1.7-.663,2.571l-.608,2.585a45.042,45.042,0,0,0-.65,5.252c-.028,1.769-.069,3.524.041,5.28a48.342,48.342,0,0,0,.691,5.252.15.15,0,0,0,.111.111.14.14,0,0,0,.166-.111,46.182,46.182,0,0,0,.926-5.169c.276-1.714.539-3.414.746-5.114.249-1.7.47-3.386.608-5.1.235-1.686.359-3.414.733-5.073a45.731,45.731,0,0,1,2.889-9.813,21.684,21.684,0,0,1,5.653-8.431l.014-.014a.129.129,0,0,0,.028-.18A.142.142,0,0,0,111.874,378.374Z" transform="translate(-51.228 -299.261)" fill="#263238"/>
            <path id="Path_41023" data-name="Path 41023" d="M89.671,413.715c-.733-8.639-2.156-17.18-3.5-25.736s-2.833-17.07-4.409-25.57q-2.426-12.751-5.142-25.418a.15.15,0,0,0-.152-.111.137.137,0,0,0-.111.152c1.479,8.514,2.82,17.056,4.077,25.6,1.3,8.542,2.516,17.084,3.594,25.653,1.05,8.569,1.88,17.153,2.958,25.708L90.155,439.7a.147.147,0,0,0,.124.124.136.136,0,0,0,.138-.124c.1-2.17.1-4.326.152-6.51.014-2.17-.083-4.326-.124-6.5C90.362,422.354,89.989,418.041,89.671,413.715Z" transform="translate(-60.04 -315.114)" fill="#263238"/>
            <path id="Path_41024" data-name="Path 41024" d="M88.305,408.276c-.456-3.414-1.092-6.814-1.742-10.214l-1.216-5.045c-.4-1.686-.774-3.359-1.272-5.031a142.569,142.569,0,0,0-6.607-19.641l-1.037-2.377-1.147-2.322c-.733-1.562-1.617-3.055-2.46-4.561a38.638,38.638,0,0,0-6.234-8.265.145.145,0,0,0-.18,0,.134.134,0,0,0,0,.194l.014.014a38.607,38.607,0,0,1,5.708,8.445c.746,1.534,1.548,3.041,2.184,4.63l1.009,2.35.9,2.4a140.781,140.781,0,0,1,5.75,19.641c.788,3.317,1.313,6.7,1.949,10.062l.8,5.059c.29,1.686.65,3.359.885,5.045.539,3.372,1.161,6.745,1.755,10.117q.788,5.08,1.852,10.159a.149.149,0,0,0,.138.111.139.139,0,0,0,.138-.138c.014-3.455-.069-6.9-.235-10.352C89.065,415.145,88.664,411.717,88.305,408.276Z" transform="translate(-63.858 -309.799)" fill="#263238"/>
            <path id="Path_41025" data-name="Path 41025" d="M80.554,399.883c-1.6-4.534-3.455-8.97-5.473-13.31A117.053,117.053,0,0,0,68.2,373.967a.135.135,0,0,0-.18-.041.123.123,0,0,0-.041.18,118.1,118.1,0,0,1,5.874,13.006c1.755,4.423,3.331,8.9,4.658,13.449,1.355,4.547,2.322,9.191,3.525,13.753,1.272,4.561,2.308,9.178,3.7,13.808a.133.133,0,0,0,.124.1.139.139,0,0,0,.138-.138,68.515,68.515,0,0,0-1.341-14.361A89.328,89.328,0,0,0,80.554,399.883Z" transform="translate(-63.253 -300.964)" fill="#263238"/>
            <path id="Path_41026" data-name="Path 41026" d="M81.564,408.96a31.078,31.078,0,0,0-3.8-7.975,33.59,33.59,0,0,0-5.529-6.869,25.29,25.29,0,0,0-3.525-2.654,14.493,14.493,0,0,0-3.994-1.811.131.131,0,0,0-.152.069.137.137,0,0,0,.069.18l.014.014a19.879,19.879,0,0,1,6.621,5.142,31.207,31.207,0,0,1,4.616,6.98c1.313,2.474,1.99,5.225,3.124,7.782.5,1.313,1.009,2.626,1.59,3.939a32.4,32.4,0,0,0,1.742,3.995v.014a.141.141,0,0,0,.111.069.131.131,0,0,0,.138-.138,33.5,33.5,0,0,0-.166-4.409C82.213,411.835,81.909,410.4,81.564,408.96Z" transform="translate(-64.552 -294.948)" fill="#263238"/>
          </g>
          <path id="Path_41027" data-name="Path 41027" d="M84.535,371.212S70.382,367.95,67.12,352.7s7.256-8.708-2.184-32.661-7.256-29.385-3.994-36.282,5.086-4.713,7.989,4.354,13.421,23.221,17.415,49.7S84.535,371.212,84.535,371.212Z" transform="translate(-34.086 -250.015)" fill="#92e3a9"/>
          <path id="Path_41028" data-name="Path 41028" d="M100.173,353.658s-9.44-3.262-9.8-21.051,6.9-14.153,7.989-36.282,2.543-37.733,6.538-38.093,14.513,10.892,18.148,35.563-4.713,41-11.97,48.252C103.794,349.3,100.173,353.658,100.173,353.658Z" transform="translate(-21.776 -258.224)" fill="#92e3a9"/>
          <path id="Path_41029" data-name="Path 41029" d="M84.412,376.383s-2.184-13.062-6.538-19.226-13.794-11.61-19.959-23.58-13.062-17.775-12.7-.733,7.989,25.764,17.415,31.569S84.412,376.383,84.412,376.383Z" transform="translate(-39.035 -233.776)" fill="#92e3a9"/>
          <path id="Path_41030" data-name="Path 41030" d="M82.122,389.777s-8.708-16.7-21.41-29.026-22.861-18.507-19.226-12.343,7.989,5.805,14.153,16.7,4.354,18.867,13.062,25.031S82.122,389.777,82.122,389.777Z" transform="translate(-40.74 -224.682)" fill="#92e3a9"/>
          <path id="Path_41031" data-name="Path 41031" d="M79.757,398.6c-.359-1.092-.733-9.067-13.062-15.6s-23.953-3.995-22.5-.719,9.067,8.708,16.7,11.97S79.757,398.6,79.757,398.6Z" transform="translate(-39.467 -212.094)" fill="#92e3a9"/>
          <path id="Path_41032" data-name="Path 41032" d="M97.869,380.385s-5.446-6.9-2.543-21.41,9.44-10.892,16.7-18.507,5.805-8.708,13.062-16.7,13.794-12.343,16.7-9.067-1.451,13.421-5.805,19.226-11.251,8.708-14.513,15.964-1.811,18.867-10.159,24.312S97.869,380.385,97.869,380.385Z" transform="translate(-20.204 -237.059)" fill="#92e3a9"/>
          <path id="Path_41033" data-name="Path 41033" d="M110.06,376s13.062-14.872,22.5-25.764,13.062-19.226,13.421-11.97,3.262,13.062-4.354,22.5S110.06,376,110.06,376Z" transform="translate(-14.248 -228.677)" fill="#92e3a9"/>
          <path id="Path_41034" data-name="Path 41034" d="M105.07,391.1s-.359-5.805,20.318-19.226,29.385-15.964,27.215-10.518-11.251,10.892-21.05,20.677S105.07,391.1,105.07,391.1Z" transform="translate(-16.155 -219.836)" fill="#92e3a9"/>
          <path id="Path_41035" data-name="Path 41035" d="M82.926,365.332s-4.851-26.026-9.938-44.534S64.64,291.04,64.64,291.04" transform="translate(-31.606 -245.683)" fill="none" stroke="#263238" stroke-linecap="round" stroke-linejoin="round" stroke-width="0.5"/>
          <path id="Path_41036" data-name="Path 41036" d="M96.85,350.32s8.818-28.21,11.721-45.266-.359-29.758-1.811-37.374" transform="translate(-19.296 -254.61)" fill="none" stroke="#263238" stroke-linecap="round" stroke-linejoin="round" stroke-width="0.5"/>
          <path id="Path_41037" data-name="Path 41037" d="M81.35,372.786A136.906,136.906,0,0,0,67.985,353.74C60,344.3,53.831,339.227,50.21,330.16" transform="translate(-37.121 -230.732)" fill="none" stroke="#263238" stroke-linecap="round" stroke-linejoin="round" stroke-width="0.5"/>
          <path id="Path_41038" data-name="Path 41038" d="M96.93,378.17s2.9-17.415,9.8-26.482,20.677-23.22,26.123-32.288" transform="translate(-19.266 -234.844)" fill="none" stroke="#263238" stroke-linecap="round" stroke-linejoin="round" stroke-width="0.5"/>
          <path id="Path_41039" data-name="Path 41039" d="M75.052,396.271s-12.2-7.947-20.912-12.3" transform="translate(-35.619 -210.167)" fill="none" stroke="#263238" stroke-linecap="round" stroke-linejoin="round" stroke-width="0.5"/>
        </g>
        <path id="Path_41040" data-name="Path 41040" d="M112.323,484.55H78.156L70.83,403.43h48.818Z" transform="translate(-29.24 -202.73)" fill="#263238" stroke="#263238" stroke-linecap="round" stroke-linejoin="round" stroke-width="1"/>
      </g>
    </g>
    <g id="Board" transform="translate(343.694 143.146)">
      <g id="Group_55898" data-name="Group 55898">
        <g id="Group_55891" data-name="Group 55891">
          <rect id="Rectangle_19126" data-name="Rectangle 19126" width="341.894" height="234.555" fill="#263238" stroke="#263238" stroke-linecap="round" stroke-linejoin="round" stroke-width="1"/>
          <rect id="Rectangle_19127" data-name="Rectangle 19127" width="331.044" height="223.235" transform="translate(5.432 5.653)" fill="#fff" stroke="#263238" stroke-linecap="round" stroke-linejoin="round" stroke-width="1"/>
        </g>
        <g id="Group_55897" data-name="Group 55897" transform="translate(22.889 23.815)">
          <path id="Path_41145" data-name="Path 41145" d="M0,0H48.652V39H0Z" transform="translate(101.092 38.383)" fill="#2d4059"/>
          <path id="Path_41379" data-name="Path 41379" d="M0,0H48.652V39H0Z" transform="translate(151.417 78.024)" fill="#f8425f"/>
          <rect id="Rectangle_19130" data-name="Rectangle 19130" width="48.652" height="39.005" transform="translate(101.092 156.034)" fill="#2d4059"/>
          <rect id="Rectangle_19131" data-name="Rectangle 19131" width="48.652" height="39.005" transform="translate(202.392)" fill="#2d4059"/>
          <g id="Group_55896" data-name="Group 55896" transform="translate(0 5.667)">
            <line id="Line_1071" data-name="Line 1071" y2="189.385" fill="none" stroke="#263238" stroke-linecap="round" stroke-linejoin="round" stroke-width="1"/>
            <line id="Line_1072" data-name="Line 1072" y2="189.385" transform="translate(50.118)" fill="none" stroke="#263238" stroke-linecap="round" stroke-linejoin="round" stroke-width="1"/>
            <line id="Line_1073" data-name="Line 1073" y2="189.385" transform="translate(100.249)" fill="none" stroke="#263238" stroke-linecap="round" stroke-linejoin="round" stroke-width="1"/>
            <line id="Line_1074" data-name="Line 1074" y2="189.385" transform="translate(150.367)" fill="none" stroke="#263238" stroke-linecap="round" stroke-linejoin="round" stroke-width="1"/>
            <line id="Line_1075" data-name="Line 1075" y2="189.385" transform="translate(200.498)" fill="none" stroke="#263238" stroke-linecap="round" stroke-linejoin="round" stroke-width="1"/>
            <line id="Line_1076" data-name="Line 1076" y2="189.385" transform="translate(250.616)" fill="none" stroke="#263238" stroke-linecap="round" stroke-linejoin="round" stroke-width="1"/>
            <line id="Line_1077" data-name="Line 1077" y2="189.385" transform="translate(300.747)" fill="none" stroke="#263238" stroke-linecap="round" stroke-linejoin="round" stroke-width="1"/>
            <line id="Line_1078" data-name="Line 1078" x2="300.125" transform="translate(1.258 32.716)" fill="none" stroke="#263238" stroke-linecap="round" stroke-linejoin="round" stroke-width="1"/>
            <line id="Line_1079" data-name="Line 1079" x2="300.125" transform="translate(1.258 71.721)" fill="none" stroke="#263238" stroke-linecap="round" stroke-linejoin="round" stroke-width="1"/>
            <line id="Line_1080" data-name="Line 1080" x2="300.125" transform="translate(1.258 110.74)" fill="none" stroke="#263238" stroke-linecap="round" stroke-linejoin="round" stroke-width="1"/>
            <line id="Line_1081" data-name="Line 1081" x2="300.125" transform="translate(1.258 149.745)" fill="none" stroke="#263238" stroke-linecap="round" stroke-linejoin="round" stroke-width="1"/>
            <g id="Group_55892" data-name="Group 55892" transform="translate(108.21 39.641)">
              <line id="Line_1082" data-name="Line 1082" x2="30.2" fill="none" stroke="#fff" stroke-linecap="round" stroke-linejoin="round" stroke-width="1"/>
              <line id="Line_1083" data-name="Line 1083" x2="30.2" transform="translate(0 5.031)" fill="none" stroke="#fff" stroke-linecap="round" stroke-linejoin="round" stroke-width="1"/>
              <line id="Line_1084" data-name="Line 1084" x2="30.2" transform="translate(0 10.062)" fill="none" stroke="#fff" stroke-linecap="round" stroke-linejoin="round" stroke-width="1"/>
              <line id="Line_1085" data-name="Line 1085" x2="30.2" transform="translate(0 15.093)" fill="none" stroke="#fff" stroke-linecap="round" stroke-linejoin="round" stroke-width="1"/>
              <line id="Line_1086" data-name="Line 1086" x2="30.2" transform="translate(0 20.124)" fill="none" stroke="#fff" stroke-linecap="round" stroke-linejoin="round" stroke-width="1"/>
            </g>
            <g id="Group_55893" data-name="Group 55893" transform="translate(161.065 81.797)">
              <line id="Line_1087" data-name="Line 1087" x2="30.2" fill="none" stroke="#fff" stroke-linecap="round" stroke-linejoin="round" stroke-width="1"/>
              <line id="Line_1088" data-name="Line 1088" x2="30.2" transform="translate(0 5.031)" fill="none" stroke="#fff" stroke-linecap="round" stroke-linejoin="round" stroke-width="1"/>
              <line id="Line_1089" data-name="Line 1089" x2="30.2" transform="translate(0 10.062)" fill="none" stroke="#fff" stroke-linecap="round" stroke-linejoin="round" stroke-width="1"/>
              <line id="Line_1090" data-name="Line 1090" x2="30.2" transform="translate(0 15.093)" fill="none" stroke="#fff" stroke-linecap="round" stroke-linejoin="round" stroke-width="1"/>
              <line id="Line_1091" data-name="Line 1091" x2="30.2" transform="translate(0 20.124)" fill="none" stroke="#fff" stroke-linecap="round" stroke-linejoin="round" stroke-width="1"/>
            </g>
            <g id="Group_55894" data-name="Group 55894" transform="translate(109.468 159.185)">
              <line id="Line_1092" data-name="Line 1092" x2="30.2" fill="none" stroke="#fff" stroke-linecap="round" stroke-linejoin="round" stroke-width="1"/>
              <line id="Line_1093" data-name="Line 1093" x2="30.2" transform="translate(0 5.031)" fill="none" stroke="#fff" stroke-linecap="round" stroke-linejoin="round" stroke-width="1"/>
              <line id="Line_1094" data-name="Line 1094" x2="30.2" transform="translate(0 10.062)" fill="none" stroke="#fff" stroke-linecap="round" stroke-linejoin="round" stroke-width="1"/>
              <line id="Line_1095" data-name="Line 1095" x2="30.2" transform="translate(0 15.093)" fill="none" stroke="#fff" stroke-linecap="round" stroke-linejoin="round" stroke-width="1"/>
              <line id="Line_1096" data-name="Line 1096" x2="30.2" transform="translate(0 20.124)" fill="none" stroke="#fff" stroke-linecap="round" stroke-linejoin="round" stroke-width="1"/>
            </g>
            <g id="Group_55895" data-name="Group 55895" transform="translate(209.51 5.031)">
              <line id="Line_1097" data-name="Line 1097" x2="30.2" fill="none" stroke="#fff" stroke-linecap="round" stroke-linejoin="round" stroke-width="1"/>
              <line id="Line_1098" data-name="Line 1098" x2="30.2" transform="translate(0 5.031)" fill="none" stroke="#fff" stroke-linecap="round" stroke-linejoin="round" stroke-width="1"/>
              <line id="Line_1099" data-name="Line 1099" x2="30.2" transform="translate(0 10.062)" fill="none" stroke="#fff" stroke-linecap="round" stroke-linejoin="round" stroke-width="1"/>
              <line id="Line_1100" data-name="Line 1100" x2="30.2" transform="translate(0 15.093)" fill="none" stroke="#fff" stroke-linecap="round" stroke-linejoin="round" stroke-width="1"/>
              <line id="Line_1101" data-name="Line 1101" x2="30.2" transform="translate(0 20.138)" fill="none" stroke="#fff" stroke-linecap="round" stroke-linejoin="round" stroke-width="1"/>
            </g>
          </g>
        </g>
      </g>
    </g>
    <g id="Chair_2" transform="translate(830.745 363.313)">
      <g id="Group_55900" data-name="Group 55900" transform="translate(0)">
        <rect id="Rectangle_19132" data-name="Rectangle 19132" width="14.748" height="26.192" transform="translate(106.13 130.627) rotate(180)" fill="#263238" stroke="#263238" stroke-linecap="round" stroke-linejoin="round" stroke-width="1"/>
        <path id="Path_41041" data-name="Path 41041" d="M675.993,377.342h30.27a21.607,21.607,0,0,0,21.6-21.6V286.533a21.607,21.607,0,0,0-21.6-21.6h-30.27a21.607,21.607,0,0,0-21.6,21.6v69.205A21.6,21.6,0,0,0,675.993,377.342Z" transform="translate(-591.239 -264.93)" fill="#949494" stroke="#263238" stroke-linecap="round" stroke-linejoin="round" stroke-width="1"/>
        <g id="Group_55899" data-name="Group 55899" transform="translate(0 144.534)">
          <path id="Path_41042" data-name="Path 41042" d="M696.91,460.454a6.234,6.234,0,1,1,6.234,6.234A6.235,6.235,0,0,1,696.91,460.454Z" transform="translate(-574.988 -337.122)" fill="#263238" stroke="#263238" stroke-linecap="round" stroke-linejoin="round" stroke-width="1"/>
          <path id="Path_41043" data-name="Path 41043" d="M608.7,460.454a6.234,6.234,0,1,1,6.234,6.234A6.235,6.235,0,0,1,608.7,460.454Z" transform="translate(-608.7 -337.122)" fill="#263238" stroke="#263238" stroke-linecap="round" stroke-linejoin="round" stroke-width="1"/>
          <path id="Path_41044" data-name="Path 41044" d="M655.12,460.454c0-3.442,1.3-6.234,2.9-6.234s2.9,2.792,2.9,6.234-1.3,6.234-2.9,6.234S655.12,463.9,655.12,460.454Z" transform="translate(-590.96 -337.122)" fill="#263238" stroke="#263238" stroke-linecap="round" stroke-linejoin="round" stroke-width="1"/>
          <path id="Path_41045" data-name="Path 41045" d="M670.078,458.954V369.5h12.246v89.827l60.456,23.912v6H733.99v-5.086L675.745,472.14l-58.259,12.011v5.086H608.71v-6Z" transform="translate(-608.696 -369.5)" fill="#263238" stroke="#263238" stroke-linecap="round" stroke-linejoin="round" stroke-width="1"/>
          <path id="Path_41046" data-name="Path 41046" d="M661.5,464.149h-6.137L654.05,435.11h8.763Z" transform="translate(-591.368 -344.426)" fill="#263238" stroke="#263238" stroke-linecap="round" stroke-linejoin="round" stroke-width="1"/>
        </g>
        <rect id="Rectangle_19133" data-name="Rectangle 19133" width="31.14" height="18.493" transform="translate(83.095 159.621) rotate(180)" fill="#263238" stroke="#263238" stroke-linecap="round" stroke-linejoin="round" stroke-width="1"/>
        <path id="Path_41047" data-name="Path 41047" d="M626.289,378.552H721.88a8.167,8.167,0,0,0,8.169-8.169v-7.505a8.167,8.167,0,0,0-8.169-8.169H626.289a8.167,8.167,0,0,0-8.169,8.169v7.505A8.167,8.167,0,0,0,626.289,378.552Z" transform="translate(-605.1 -230.618)" fill="#949494" stroke="#263238" stroke-linecap="round" stroke-linejoin="round" stroke-width="1"/>
      </g>
    </g>
    <g id="Character_4" transform="translate(748.819 145.842)">
      <g id="Group_55904" data-name="Group 55904" transform="translate(0)">
        <g id="Group_55901" data-name="Group 55901" transform="translate(22.658 460.333)">
          <path id="Path_41048" data-name="Path 41048" d="M598.846,440.64s-5.4,7.809-13.2,12.3-19.807,6.3-19.807,8.708.9,6.607,9.91,7.809,48.031,1.8,53.131.594.3-26.413.3-26.413S605.439,444.842,598.846,440.64Z" transform="translate(-565.812 -440.64)" fill="#fff" stroke="#263238" stroke-linecap="round" stroke-linejoin="round" stroke-width="1"/>
          <path id="Path_41049" data-name="Path 41049" d="M575.73,463.653c9,1.2,48.031,1.8,53.131.594,1.3-.3,1.963-2.184,2.211-4.8-10.878.332-32.094.663-44.838-.014-17.111-.9-20.415-3.607-20.415-3.607C565.834,458.249,566.732,462.451,575.73,463.653Z" transform="translate(-565.82 -434.835)" fill="#fff" stroke="#263238" stroke-linecap="round" stroke-linejoin="round" stroke-width="1"/>
        </g>
        <path id="Path_41050" data-name="Path 41050" d="M570.17,272.647s2.4,35.411,4.506,50.422,9.91,76.241,15.01,92.15,10.5,84.34,10.5,84.34-5.708,2.1-5.4,4.506.594,6,.594,6,11.707,6.3,18.6,6.3,15.6-3,15.6-3-1.8-26.717-2.7-47.726-9.606-110.449-9.606-110.449l-1.8-89.15Z" transform="translate(-541.499 -47.035)" fill="#263238" stroke="#263238" stroke-linecap="round" stroke-linejoin="round" stroke-width="1"/>
        <g id="Group_55902" data-name="Group 55902" transform="translate(49.414 466.939)">
          <path id="Path_41051" data-name="Path 41051" d="M615.16,445.42s.594,5.708-14.4,10.809-16.807,10.5-15.01,15.01,33.02,4.506,44.727,2.7,17.706-2.4,18.6-4.8-2.4-20.705-2.4-20.705Z" transform="translate(-585.178 -445.42)" fill="#fff" stroke="#263238" stroke-linecap="round" stroke-linejoin="round" stroke-width="1"/>
          <path id="Path_41052" data-name="Path 41052" d="M649.063,463.47a10.33,10.33,0,0,0,.083-3.22c-4.1.76-9.606,1.8-16.89,3.22-16.033,3.124-37.181,1.285-47.035.124a7.571,7.571,0,0,0,.511,1.977c1.8,4.506,33.02,4.506,44.727,2.7S648.164,465.862,649.063,463.47Z" transform="translate(-585.161 -439.752)" fill="#fff" stroke="#263238" stroke-linecap="round" stroke-linejoin="round" stroke-width="1"/>
        </g>
        <path id="Path_41053" data-name="Path 41053" d="M577.99,280.693l8.708,10.5s6.607,72.633,9,91.541S609.5,469.18,609.5,469.18l7.2,36.019s-1.2,3-1.8,4.506-.3,4.8,0,6-.3,2.1,11.1,3.9a83.365,83.365,0,0,0,22.806,0,24,24,0,0,0,1.507-8.4,51.525,51.525,0,0,0-.9-11.707c-.9-4.8,0-30.311-6.607-57.623s-11.4-58.825-11.4-69.33.3-72.039.594-73.241,6-5.1,6.3-16.213-1.2-15.314-1.2-15.314H578.571" transform="translate(-538.511 -46.374)" fill="#263238" stroke="#263238" stroke-linecap="round" stroke-linejoin="round" stroke-width="1"/>
        <path id="Path_41054" data-name="Path 41054" d="M582.183,175.534s-13.5,33.614-14.4,55.826,0,53.725.3,54.928-3.3,26.413-1.2,30.311a4.83,4.83,0,0,0,5.708,2.7s65.736.9,68.735.3,3.607-4.506,4.2-7.505-1.8-38.715-1.8-44.119,1.8-65.736-5.708-82.543-26.109-30.615-28.514-31.209S587.588,160.219,582.183,175.534Z" transform="translate(-543.008 -89.784)" fill="#ff297b" stroke="#263238" stroke-linecap="round" stroke-linejoin="round" stroke-width="1"/>
        <g id="Group_55903" data-name="Group 55903">
          <path id="Path_41055" data-name="Path 41055" d="M555.289,124.208s-2.294,11.016-1.6,11.942,2.985,5.28,2.985,5.28l-5.971,16.31,7.118,2.073,10.1,17.457L583.54,172.9l4.589,20.9s-.691,7.574,2.751,5.515,6.427-4.368,13.089-15.84,13.324-13.324,13.324-13.324-8.265-11.016-9.869-14.471-.691-9.191-3.442-23.193S591.806,115.5,578.952,115.5,556.436,118,555.289,124.208Z" transform="translate(-548.94 -104.567)" fill="#fff" stroke="#263238" stroke-linecap="round" stroke-linejoin="round" stroke-width="1"/>
          <path id="Path_41056" data-name="Path 41056" d="M562.2,114.141s-10.339,2.294-12.177,4.368.912,8.5,3.442,9.869,18.825-2.294,18.6-1.147-2.751,4.133,0,5.28,13.78,4.133,13.78,4.133l-2.75,21.12s-13.545-.691-16.766,0-8.03,5.059-8.03,5.059,5.971,18.134,7.118,19.972,4.368,1.382,8.03,0,18.6-12.177,20.207-13.545-1.838-14.927-1.838-14.927.456-11.251.456-13.545,2.985-2.294,5.059-.691,2.751,7.809,2.294,10.1-2.985,4.589-2.985,4.589,8.722,6.662,10.56,6.662a2.376,2.376,0,0,0,2.529-1.838c.235-.691-.235-20.442-.235-20.442s.456-18.825-2.073-24.8-14.471-7.574-22.046-6.427S562.2,114.141,562.2,114.141Z" transform="translate(-549.427 -107.59)" fill="#263238" stroke="#263238" stroke-linecap="round" stroke-linejoin="round" stroke-width="1"/>
          <path id="Path_41057" data-name="Path 41057" d="M560.685,135.5c.221,1.244-.152,2.364-.843,2.474s-1.424-.788-1.645-2.046.152-2.364.843-2.474S560.478,134.254,560.685,135.5Z" transform="translate(-546.099 -97.71)" fill="none" stroke="#263238" stroke-linecap="round" stroke-linejoin="round" stroke-width="1"/>
          <path id="Path_41058" data-name="Path 41058" d="M556.34,132.036s2.985-3.22,6.427-.456" transform="translate(-546.785 -98.85)" fill="none" stroke="#263238" stroke-linecap="round" stroke-linejoin="round" stroke-width="1"/>
          <path id="Path_41059" data-name="Path 41059" d="M561.16,151.34s5.28-1.6,6.883-5.28" transform="translate(-544.943 -92.888)" fill="none" stroke="#fff" stroke-linecap="round" stroke-linejoin="round" stroke-width="1"/>
        </g>
        <path id="Path_41060" data-name="Path 41060" d="M611.435,225.25s-12.91,57.333-14.112,60.332-6.3,15.01-6.3,15.01l14.112,12.3s2.1-3.3,3.9-11.1a94.374,94.374,0,0,0,2.1-15.314s20.415-43.525,23.718-49.523.9-10.5.9-12.011S611.435,225.25,611.435,225.25Z" transform="translate(-533.531 -62.969)" fill="#fff" stroke="#263238" stroke-linecap="round" stroke-linejoin="round" stroke-width="1"/>
        <path id="Path_41061" data-name="Path 41061" d="M599.885,183.3s-3.3,10.5-3,15.6,7.2,35.715,7.2,35.715-3.607,3.3-2.4,4.506a29.893,29.893,0,0,1,3,4.2s-2.7,2.1,0,5.1,1.507,4.506,14.112,4.2,16.5-.9,18.01-3.3,3.3-4.2,1.8-6.607l-1.507-2.4a11.409,11.409,0,0,0,1.2-6c-.3-3.3-2.4-7.2-2.4-8.708s-.3-21.907-4.2-37.816-20.415-24.617-23.414-24.907" transform="translate(-531.297 -86.456)" fill="#263238" stroke="#263238" stroke-linecap="round" stroke-linejoin="round" stroke-width="1"/>
      </g>
    </g>
    <g id="Character_3" transform="translate(610.55 185.731)">
      <g id="Group_55911" data-name="Group 55911">
        <path id="Path_41062" data-name="Path 41062" d="M471.376,287.581s.47,18.825.47,19.544-2.35,14.126-1.175,20.484,10.587,15.066,10.587,15.066l.94-56.724Z" transform="translate(-441.383 -79.315)" fill="#fff" stroke="#263238" stroke-linecap="round" stroke-linejoin="round" stroke-width="1"/>
        <path id="Path_41063" data-name="Path 41063" d="M501.745,193.323s-27.616,33.656-28.487,37.4-8.058,94.941-8.058,95.812,11.223,5.183,15.826,5.183h6.621s-7.768-62.723-4.312-86.026,11.79-29.924,18.12-38.839S507.8,191.029,501.745,193.323Z" transform="translate(-443.348 -114.884)" fill="#92e3a9" stroke="#263238" stroke-linecap="round" stroke-linejoin="round" stroke-width="1"/>
        <g id="Group_55905" data-name="Group 55905" transform="translate(30.4 419.656)">
          <path id="Path_41064" data-name="Path 41064" d="M500.833,442.378s-7.187,10.352-11.223,12.661-17.263,7.768-17.844,9.205-.581,4.893.581,5.183,21.009-.29,33.089-.29,20.138.581,21.576-.857.29-20.138-1.147-23.884l-1.437-3.746-21.576-.581Z" transform="translate(-471.384 -440.07)" fill="#263238" stroke="#263238" stroke-linecap="round" stroke-linejoin="round" stroke-width="1"/>
          <path id="Path_41065" data-name="Path 41065" d="M527.489,459.22H471.4c-.028,1.355.249,2.7.954,2.875,1.147.29,21.009-.29,33.089-.29s20.138.581,21.576-.857A3.847,3.847,0,0,0,527.489,459.22Z" transform="translate(-471.379 -432.751)" fill="#fff" stroke="#263238" stroke-linecap="round" stroke-linejoin="round" stroke-width="1"/>
        </g>
        <path id="Path_41066" data-name="Path 41066" d="M472.948,285.982l3.746,17.554s-.581,45.75,4.022,65.6a196.154,196.154,0,0,1,4.6,39.129s6.33,31.362,8.625,40.277,4.893,46.607,4.893,46.607-2.308,1.728-2.018,2.875,1.147,8.348,1.147,8.348,1.147,0,10.352.857a75.641,75.641,0,0,0,14.1.29l3.165-2.585a80.029,80.029,0,0,0,0-9.205c-.29-5.183-2.018-9.205-2.018-12.661s-2.018-79.406-2.018-79.406l.857-119.116L472.05,281.67Z" transform="translate(-440.73 -80.951)" fill="#fff" stroke="#263238" stroke-linecap="round" stroke-linejoin="round" stroke-width="1"/>
        <g id="Group_55906" data-name="Group 55906" transform="translate(60.981 421.383)">
          <path id="Path_41067" data-name="Path 41067" d="M520.559,441.32s-2.585,6.33-5.183,9.786-13.241,9.5-17.554,11.79a8.628,8.628,0,0,0-4.312,7.187s9.786.29,42-.857l13.808-.581a42.836,42.836,0,0,0-.29-8.058c-.58-4.312-1.147-15.245-1.147-15.245Z" transform="translate(-493.51 -441.32)" fill="#263238" stroke="#263238" stroke-linecap="round" stroke-linejoin="round" stroke-width="1"/>
          <path id="Path_41068" data-name="Path 41068" d="M535.524,462.958l13.808-.581a40.087,40.087,0,0,0,.014-4.658l-55.066,2.806a9.17,9.17,0,0,0-.76,3.29S503.306,464.119,535.524,462.958Z" transform="translate(-493.506 -435.052)" fill="#fff" stroke="#263238" stroke-linecap="round" stroke-linejoin="round" stroke-width="1"/>
        </g>
        <path id="Path_41069" data-name="Path 41069" d="M487.453,306.885l10.933,10.643s4.312,41.424,8.625,65.888,15.536,87.464,15.536,92.647,2.308,18.411,2.308,18.411-.857.29-1.147,2.308-.29,9.786-.29,9.786,7.187,3.455,13.518,4.022,16.116-.29,16.116-.29a88.71,88.71,0,0,0,1.147-8.915c0-2.294-.857-12.37-.29-16.393s4.6-24.451,3.455-46.9-8.058-57.25-8.058-57.25l2.308-50.643a75.242,75.242,0,0,0,2.875-28.2c-1.437-15.536-4.893-21.576-4.893-21.576l-67.326.29" transform="translate(-436.824 -81.424)" fill="#fff" stroke="#263238" stroke-linecap="round" stroke-linejoin="round" stroke-width="1"/>
        <path id="Path_41070" data-name="Path 41070" d="M500.151,194.288s-23.013,28.487-25.321,41.147-5.46,84.3-5.46,87.174,4.6,4.022,10.076,4.893a132.1,132.1,0,0,0,23.594,1.437c9.5-.29,19.281-3.455,20.719-5.183s-1.437-52.647,3.455-80.553,9.786-42.861,6.911-48.335C531.222,189.4,509.937,188.538,500.151,194.288Z" transform="translate(-441.754 -115.85)" fill="#7e0e7b"/>
        <path id="Path_41071" data-name="Path 41071" d="M514.61,192.481s-17.263,30.214-20.429,51.5-.857,92.357-.857,92.357,0,2.875,13.241,2.585,31.071-3.746,35.964-6.33,10.352-4.6,10.643-6.04-2.585-6.621-2.585-10.933-2.018-22.156-2.018-22.156-.58-78.549-4.893-89.758S522.378,189.316,514.61,192.481Z" transform="translate(-432.91 -115.48)" fill="#92e3a9" stroke="#263238" stroke-linecap="round" stroke-linejoin="round" stroke-width="1"/>
        <g id="Group_55907" data-name="Group 55907" transform="translate(33.448 15.819)">
          <path id="Path_41072" data-name="Path 41072" d="M479.838,155.283s-2.308,9.205-1.437,12.08,1.147,6.04.857,7.187-6.911,8.625-5.46,10.076a44.032,44.032,0,0,0,4.893,3.746s1.437,15.245,4.022,16.116,12.08-.857,12.08-.857,3.165,11.79,3.165,13.808-9.786,23.594-4.312,21.866,27.326-33.379,27.326-33.379-.29-40.567-6.621-50.919S489.057,146.368,479.838,155.283Z" transform="translate(-473.59 -147.895)" fill="#fff" stroke="#263238" stroke-linecap="round" stroke-linejoin="round" stroke-width="1"/>
          <path id="Path_41073" data-name="Path 41073" d="M483.618,167.837c0,1.507-.581,2.737-1.3,2.737s-1.3-1.23-1.3-2.737.581-2.737,1.3-2.737S483.618,166.33,483.618,167.837Z" transform="translate(-470.75 -141.319)" fill="#263238"/>
          <path id="Path_41074" data-name="Path 41074" d="M479.78,163.1s3.455-2.875,6.04.857" transform="translate(-471.224 -142.487)" fill="none" stroke="#263238" stroke-linecap="round" stroke-linejoin="round" stroke-width="1"/>
          <path id="Path_41075" data-name="Path 41075" d="M480.2,179.635a17.621,17.621,0,0,0,8.348-2.875" transform="translate(-471.063 -136.863)" fill="none" stroke="#263238" stroke-linecap="round" stroke-linejoin="round" stroke-width="1"/>
        </g>
        <path id="Path_41076" data-name="Path 41076" d="M490.62,138.648s-14.1,5.46-15.536,10.643-2.585,11.223-2.585,11.223l12.661,2.585,10.933.857s-.29,2.585,2.875,8.625a103.262,103.262,0,0,1,4.6,9.786s-.857,16.973-1.728,21.866a80.163,80.163,0,0,1-2.875,10.643s7.187,1.437,20.429,2.875,29.634-1.728,29.634-1.728,3.455-5.75,3.165-17.263-5.75-27.906-6.33-34.527,1.147-11.223-9.205-19.281C526.294,136.92,507.884,134.045,490.62,138.648Z" transform="translate(-440.558 -136.45)" fill="#263238" stroke="#263238" stroke-linecap="round" stroke-linejoin="round" stroke-width="1"/>
        <g id="Group_55909" data-name="Group 55909" transform="translate(0 145.764)">
          <g id="Group_55908" data-name="Group 55908" transform="translate(21.977 3.341)">
            <path id="Path_41077" data-name="Path 41077" d="M467.888,268.215a16.27,16.27,0,0,1-2.17-.152l.65-4.091c1.368.207,4.506.207,5.46-1.161,1.3-1.852.29-12.135-1.037-13.877-.5-.581-2.861-.581-4.561-.18l-.94-4.036c1.023-.235,6.247-1.3,8.666,1.534,2.253,2.64,3.87,15.218,1.272,18.936C473.431,267.745,470.114,268.215,467.888,268.215Z" transform="translate(-465.29 -244.327)" fill="#fff" stroke="#263238" stroke-linecap="round" stroke-linejoin="round" stroke-width="1"/>
          </g>
          <rect id="Rectangle_19134" data-name="Rectangle 19134" width="24.741" height="32.218" fill="#fff" stroke="#263238" stroke-linecap="round" stroke-linejoin="round" stroke-width="1"/>
        </g>
        <g id="Group_55910" data-name="Group 55910" transform="translate(25.578 82.751)">
          <path id="Path_41078" data-name="Path 41078" d="M531.786,208.7s-4.893,10.933-5.183,16.393,6.04,42.585,6.04,42.585-20.719,5.183-26.469,5.183a68.479,68.479,0,0,1-9.5-.581s-7.768-5.183-10.076-6.621-4.022-.581-8.058-3.746-7.187-3.455-7.478-1.728-.29,2.875,2.585,4.312a27.762,27.762,0,0,1,5.183,3.455s-6.911,1.437-8.915,1.728-2.585,3.165-1.437,4.6,3.165,3.455,3.165,3.455-.29,6.911,3.455,8.348,14.1,1.147,14.1,1.147,10.933.857,12.661.857,23.594,5.46,39.129,5.46,20.138.857,21.009-2.585-.581-54.375-3.455-69.91-9.5-24.16-14.1-24.741" transform="translate(-467.896 -196.32)" fill="#7e007b"/>
          <path id="Path_41079" data-name="Path 41079" d="M515.749,254.116a61.829,61.829,0,0,1-9.565,1.368,68.479,68.479,0,0,1-9.5-.581s-7.768-5.183-10.076-6.621-4.022-.581-8.058-3.746-7.187-3.455-7.478-1.728-.29,2.875,2.585,4.312a27.761,27.761,0,0,1,5.183,3.455s-6.911,1.437-8.915,1.728-2.585,3.165-1.437,4.6,3.165,3.455,3.165,3.455-.29,6.911,3.455,8.348,14.1,1.147,14.1,1.147,10.933.857,12.661.857c.912,0,7.408,1.52,15.632,2.958C514.532,266.722,514.919,259.161,515.749,254.116Z" transform="translate(-467.892 -178.954)" fill="#fff" stroke="#263238" stroke-linecap="round" stroke-linejoin="round" stroke-width="1"/>
        </g>
      </g>
    </g>
    <g id="Character_2" transform="translate(321.931 164.147)">
      <g id="Group_55919" data-name="Group 55919">
        <g id="Group_55914" data-name="Group 55914" transform="translate(24.94 223.783)">
          <g id="Group_55912" data-name="Group 55912" transform="translate(0 224.348)">
            <path id="Path_41080" data-name="Path 41080" d="M266.872,446.872a73.747,73.747,0,0,1-5.515,17.637c-4.133,8.818-4.409,12.122,4.962,13.5s14.057-.829,15.978-5.791,2.751-16.807,3.3-19.558S278.731,441.357,266.872,446.872Z" transform="translate(-258.618 -445.056)" fill="#fff" stroke="#263238" stroke-linecap="round" stroke-linejoin="round" stroke-width="1"/>
            <path id="Path_41081" data-name="Path 41081" d="M282.3,462.561c-1.935,3.58-4.409,7.989-14.319,7.16-5.639-.47-7.975-2.889-8.943-4.907-1.272,4.561.373,6.634,7.3,7.657,9.371,1.382,14.057-.829,15.978-5.791a38.775,38.775,0,0,0,1.672-7.16C283.462,460.418,282.9,461.441,282.3,462.561Z" transform="translate(-258.608 -439.528)" fill="#fff" stroke="#263238" stroke-linecap="round" stroke-linejoin="round" stroke-width="1"/>
          </g>
          <g id="Group_55913" data-name="Group 55913" transform="translate(55.757 223.45)">
            <path id="Path_41082" data-name="Path 41082" d="M329.424,444.647a55.557,55.557,0,0,0,14.6,9.371c8.818,3.856,15.149,6.054,15.149,7.989s-1.935,5.515-1.935,5.515a76.36,76.36,0,0,1-18.728,2.75c-9.357,0-17.084-.829-23.967-1.106s-14.872.553-15.425-4.409.553-14.319.553-14.319S323.909,442.988,329.424,444.647Z" transform="translate(-298.958 -444.406)" fill="#fff" stroke="#263238" stroke-linecap="round" stroke-linejoin="round" stroke-width="1"/>
            <path id="Path_41083" data-name="Path 41083" d="M357.208,462.109s.484-.9.968-2.032a97.4,97.4,0,0,1-13.642,1.479c-9.924.276-13.5-1.106-24.8-2.474a95.762,95.762,0,0,0-20.677.041,1.341,1.341,0,0,1,.014.235c.553,4.962,8.542,4.133,15.425,4.409s14.6,1.106,23.967,1.106A76.044,76.044,0,0,0,357.208,462.109Z" transform="translate(-298.919 -439.007)" fill="#fff" stroke="#263238" stroke-linecap="round" stroke-linejoin="round" stroke-width="1"/>
          </g>
          <path id="Path_41084" data-name="Path 41084" d="M345.677,290.4s1.424,41.673-1.133,78.521-5.957,90.988-4.534,98.646,2.557,32.315,2.557,32.315L345.124,503l1.424,5.1s-1.424,1.424-10.2,3.967-21.548,3.124-21.548,3.124-.567-8.5-.567-10.767.567-7.367.567-7.367-4.824-59.807-3.967-72-.857-60.94-.857-60.94l-1.424-17.581s-11.334,45.639-11.9,51.306-8.5,63.5-8.5,66.9-3.4,35.715-3.4,35.715a16.328,16.328,0,0,1,2.267,6.234c.29,3.124-1.99,11.057-1.99,11.057s-4.257-2.833-8.224-3.124-11.624-.857-11.624-.857-2.267-16.448-2.267-19.848V476.341s-1.133-40.539.857-56.13.857-63.773-.29-84.188-3.967-38.549-1.99-43.082a58.162,58.162,0,0,0,3.124-10.2,315.816,315.816,0,0,0,43.939,5.957c23.525,1.424,35.439-2.833,35.439-2.833Z" transform="translate(-257.782 -282.74)" fill="#263238" stroke="#263238" stroke-linecap="round" stroke-linejoin="round" stroke-width="1"/>
          <line id="Line_1102" data-name="Line 1102" y1="18.341" x2="6.261" transform="translate(50.756 45.446)" fill="none" stroke="#fff" stroke-linecap="round" stroke-linejoin="round" stroke-width="1"/>
        </g>
        <path id="Path_41085" data-name="Path 41085" d="M295.858,336.513s5.073.539,16.006-1.064,15.48-4.008,15.48-4.008-7.2-139.019-7.2-140.346,0-7.6-7.478-8.943-17.346,1.866-19.475,10.145S295.858,336.513,295.858,336.513Z" transform="translate(-220.674 -97.512)" fill="#f8425f" stroke="#263238" stroke-linecap="round" stroke-linejoin="round" stroke-width="1"/>
        <path id="Path_41086" data-name="Path 41086" d="M317.659,300.643s-.8,8.265,0,8.8,8.542-2.4,13.614-4.534,3.386-1.285,5.031-6.109,1.106-4.824-3.967-3.483S317.659,300.643,317.659,300.643Z" transform="translate(-211.251 -54.442)" fill="#f8425f" stroke="#263238" stroke-linecap="round" stroke-linejoin="round" stroke-width="1"/>
        <path id="Path_41087" data-name="Path 41087" d="M309.9,208.192l5.971,80.456,3.082,58.024s1.023,1.852,2.681,1.437,15.84-3.7,17.484-5.764,2.267-7.408,2.267-8.238-4.326-51.444-4.326-51.444l11.113-14.817s-8.431-46.3-10.491-55.563-2.059-14.195-5.349-18.314-22.225-13.379-22.225-13.379Z" transform="translate(-214.08 -97.996)" fill="#263238" stroke="#263238" stroke-linecap="round" stroke-linejoin="round" stroke-width="1"/>
        <path id="Path_41088" data-name="Path 41088" d="M308.647,177.04s7.616,8.03,7.408,12.135-5.142,20.373-5.142,20.373l-3.082-23.87C307.818,185.679,306.173,179.708,308.647,177.04Z" transform="translate(-215.08 -99.353)" fill="#fff" stroke="#263238" stroke-linecap="round" stroke-linejoin="round" stroke-width="1"/>
        <g id="Group_55915" data-name="Group 55915" transform="translate(67.831 58.203)">
          <path id="Path_41089" data-name="Path 41089" d="M290.3,165.288l-.65,16.821s5.556,13.78,9.053,17.9,9.883,11.113,9.883,11.113l6.994-14.61.207-8.03,3.082-7.616a33.984,33.984,0,0,1-13.379-6.386c-6.579-5.142-13.379-11.32-13.988-11.527C290.894,162.773,290.3,165.288,290.3,165.288Z" transform="translate(-289.65 -162.943)" fill="#fff" stroke="#263238" stroke-linecap="round" stroke-linejoin="round" stroke-width="1"/>
          <path id="Path_41090" data-name="Path 41090" d="M293.12,169.336S294.9,175.874,306.2,183.6a33.564,33.564,0,0,0,8.238,4.257l.028-1.272,3.082-7.616a33.984,33.984,0,0,1-13.379-6.386c-1.672-1.3-3.345-2.681-4.948-3.994l-2.156-.65Z" transform="translate(-288.324 -161.034)" fill="#263238" stroke="#263238" stroke-linecap="round" stroke-linejoin="round" stroke-width="1"/>
        </g>
        <g id="Group_55917" data-name="Group 55917" transform="translate(55.434)">
          <path id="Path_41091" data-name="Path 41091" d="M336.756,142.083s-.746,17.263-1.23,23.179-.746,11.1-3.455,16.517-5.667,13.808-10.352,14.54a26.625,26.625,0,0,1-17.263-3.207c-5.667-3.455-13.062-13.062-13.31-15.038a14.04,14.04,0,0,0-.746-3.207s-2.958-17.747-2.958-25.639.746-14.54,13.31-18.977C313.342,125.815,336.756,142.083,336.756,142.083Z" transform="translate(-278.097 -117.527)" fill="#fff" stroke="#263238" stroke-linecap="round" stroke-linejoin="round" stroke-width="1"/>
          <path id="Path_41092" data-name="Path 41092" d="M298.164,145.39s7.643,1.977,3.7,5.418-7.643,7.395-7.643,7.395,1.23,4.934.746,6.9-2.958,3.455-4.686,1.479-3.207-3.455-3.207-3.455-4.686-14.789-5.667-18.977-1.977-8.625,4.188-12.813,7.395-4.686,7.395-4.686a41.65,41.65,0,0,1,24.658-5.667c14.306,1.23,20.7,9.371,20.7,9.371s11.334-2.958,10.6,5.183-8.874,13.559-13.31,13.062-27.865-12.329-32.536-10.352C298.413,140.207,294.971,144.643,298.164,145.39Z" transform="translate(-280.681 -120.834)" fill="#263238" stroke="#263238" stroke-linecap="round" stroke-linejoin="round" stroke-width="1"/>
          <path id="Path_41093" data-name="Path 41093" d="M314.534,151.8s3.455,11.1,2.46,12.08-4.934,1.728-4.934,1.728" transform="translate(-268.688 -108.999)" fill="none" stroke="#263238" stroke-linecap="round" stroke-linejoin="round" stroke-width="1"/>
          <path id="Path_41094" data-name="Path 41094" d="M319.268,165.589s-7.892,2.225-13.808-1.479" transform="translate(-271.211 -104.295)" fill="none" stroke="#263238" stroke-linecap="round" stroke-linejoin="round" stroke-width="1"/>
          <g id="Group_55916" data-name="Group 55916" transform="translate(6.399 34.828)">
            <path id="Path_41095" data-name="Path 41095" d="M318.093,147.094s-10.394-.981-15.826-.981-7.395-.5-7.643.981-.746,9.371,3.455,12.08,11.831,1.479,15.038.746,4.188-6.165,4.437-7.892S318.093,147.094,318.093,147.094Z" transform="translate(-281.811 -146.032)" fill="none" stroke="#263238" stroke-linecap="round" stroke-linejoin="round" stroke-width="1"/>
            <path id="Path_41096" data-name="Path 41096" d="M313.77,146.919s8.252-.525,12.564-.3,5.874-.166,6.068,1.258.581,9.053-2.737,11.486-9.4.94-11.942.1-3.331-6.109-3.524-7.782S313.77,146.919,313.77,146.919Z" transform="translate(-274.433 -145.83)" fill="none" stroke="#263238" stroke-linecap="round" stroke-linejoin="round" stroke-width="1"/>
            <line id="Line_1103" data-name="Line 1103" x1="12.813" y2="6.413" transform="translate(0 1.062)" fill="none" stroke="#263238" stroke-linecap="round" stroke-linejoin="round" stroke-width="1"/>
            <line id="Line_1104" data-name="Line 1104" x2="3.317" transform="translate(36.282 1.062)" fill="none" stroke="#263238" stroke-linecap="round" stroke-linejoin="round" stroke-width="1"/>
          </g>
          <path id="Path_41097" data-name="Path 41097" d="M293.628,157.63s-5.667-7.146-9.62-6.164-.5,11.334,2.709,13.062,6.662-.5,6.662-.5" transform="translate(-280.083 -109.162)" fill="#fff" stroke="#263238" stroke-linecap="round" stroke-linejoin="round" stroke-width="1"/>
          <path id="Path_41098" data-name="Path 41098" d="M305.581,152.291c0,1.424-.594,2.571-1.341,2.571s-1.341-1.147-1.341-2.571.594-2.571,1.341-2.571S305.581,150.867,305.581,152.291Z" transform="translate(-272.189 -109.794)" fill="#263238"/>
          <ellipse id="Ellipse_1748" data-name="Ellipse 1748" cx="1.341" cy="2.571" rx="1.341" ry="2.571" transform="translate(50.476 39.926)" fill="#263238"/>
          <path id="Path_41099" data-name="Path 41099" d="M299.63,145.145a22.827,22.827,0,0,1,12.55.415" transform="translate(-273.439 -111.799)" fill="none" stroke="#263238" stroke-linecap="round" stroke-linejoin="round" stroke-width="1"/>
          <path id="Path_41100" data-name="Path 41100" d="M316.01,145.692a12.12,12.12,0,0,1,7.616-.829" transform="translate(-267.179 -111.737)" fill="none" stroke="#263238" stroke-linecap="round" stroke-linejoin="round" stroke-width="1"/>
        </g>
        <path id="Path_41101" data-name="Path 41101" d="M316.579,309.733l.29,5.073s-11.735,2.4-28.017-1.341-30.947-13.877-32.55-16.006,1.341-11.209,1.341-11.209-2.129-.539,1.6.8,18.411,14.14,38.424,17.609S316.814,306.8,316.579,309.733Z" transform="translate(-234.746 -57.657)" fill="#f8425f" stroke="#263238" stroke-linecap="round" stroke-linejoin="round" stroke-width="1"/>
        <path id="Path_41102" data-name="Path 41102" d="M306.68,173.09s10.076,13.988,14.817,20.373,3.5,14.195,2.875,16.254-1.437,5.556-1.437,5.556V345.323s1.852,6.994-1.023,7.616-23.87-.415-39.3-8.431-20.788-13.587-20.788-13.587l3.912-31.693,1.645-17.692-25.515.124s15.01-72.149,16.669-76.061,42.184-24.492,42.184-24.492S301.331,174.431,306.68,173.09Z" transform="translate(-240.079 -100.863)" fill="#263238" stroke="#263238" stroke-linecap="round" stroke-linejoin="round" stroke-width="1"/>
        <line id="Line_1105" data-name="Line 1105" x1="0.332" y1="3.442" transform="translate(117.327 127.155)" fill="none" stroke="#263238" stroke-linecap="round" stroke-linejoin="round" stroke-width="1"/>
        <line id="Line_1106" data-name="Line 1106" x1="4.824" y1="48.984" transform="translate(118.17 135.697)" fill="none" stroke="#263238" stroke-linecap="round" stroke-linejoin="round" stroke-width="1"/>
        <line id="Line_1107" data-name="Line 1107" y1="45.957" x2="4.796" transform="translate(27.306 134.715)" fill="#fff" stroke="#263238" stroke-linecap="round" stroke-linejoin="round" stroke-width="1"/>
        <path id="Path_41103" data-name="Path 41103" d="M260.969,244.8a29.021,29.021,0,0,0-10.822,0c-6.234,1.106-9.164,12.661-9.537,16.7s2.2,11,6.966,13.02,7.16,1.838,12.108-1.106,4.4-16.5,4.216-21.092A12.513,12.513,0,0,0,260.969,244.8Z" transform="translate(-240.574 -73.646)" fill="#f8425f" stroke="#263238" stroke-linecap="round" stroke-linejoin="round" stroke-width="1"/>
        <path id="Path_41104" data-name="Path 41104" d="M271.726,242.979s1.838-12.288,2.018-16.323-.373-8.984.373-10.643,3.3-.18,4.216.912,1.645,6.786,1.465,8.984a25.225,25.225,0,0,0,0,4.036s14.126-10.449,15.771-12.661,4.948-3.856,6.054-2.391-.18,2.751-1.465,4.036-7.892,8.8-8.984,9.717a4.985,4.985,0,0,0-1.465,2.377,6.288,6.288,0,0,0,2.751-.373c1.645-.553,13.02-6.234,14.126-6.234a2.03,2.03,0,0,1,1.645,2.571c-.373,1.106-14.305,9.537-14.858,9.717s-1.106,1.465-.18,1.645,12.288-1.645,13.753-.912a1.743,1.743,0,0,1,.373,2.93c-.733.553-14.306,2.93-14.306,2.93s4.4.912,6.234,1.285,4.948.373,4.948,1.465-.733,1.645-2.018,1.645h-9.537c-2.018,0-6.054,1.645-9.357,3.124s-4.768,2.018-4.768,2.018-8.984,16.323-12.288,22.2a15.706,15.706,0,0,1-13.02,8.431c-4.768.373-9.717-8.252-8.8-12.467s8.625-13.573,15.411-17.056C266.584,250.5,268.6,247,271.726,242.979Z" transform="translate(-239.154 -85.099)" fill="#fff" stroke="#263238" stroke-linecap="round" stroke-linejoin="round" stroke-width="1"/>
        <path id="Path_41105" data-name="Path 41105" d="M348.533,248.158s-5.238-6.814-8.915-7.077S329.39,252.622,329.39,257.6s.263,14.43,2.364,15.729,6.026-1.05,8.39-4.2S348.533,248.158,348.533,248.158Z" transform="translate(-206.631 -74.88)" fill="#f8425f" stroke="#263238" stroke-linecap="round" stroke-linejoin="round" stroke-width="1"/>
        <g id="Group_55918" data-name="Group 55918" transform="translate(128.5 134.918)">
          <path id="Path_41106" data-name="Path 41106" d="M387.623,224.271s.3-5.612-.76-5.308-1.825,1.064-1.52,3.635-.912,8.182-.912,8.182Z" transform="translate(-314.097 -218.253)" fill="#fff" stroke="#263238" stroke-linecap="round" stroke-linejoin="round" stroke-width="1"/>
          <path id="Path_41107" data-name="Path 41107" d="M341.583,254.927s-8.335,15.162-8.03,19.254,3.787,5.46,10.159,3.635,50.781-26.068,52.91-28.044,9.4-17.125,11.818-19.862,2.129-9.551,2.129-10.767-2.129-.76-2.129.76-5.156,11.375-5.916,11.666-7.574,3.635-7.574,3.635,3.483-6.828,4.7-9.095,2.267-4.851-.3-3.939-6.676,7.878-8.182,11.666-4.091,8.791-3.635,11.223l.456,2.419s-15.314,3.483-24.409,3.939C354.465,251.9,342.039,253.407,341.583,254.927Z" transform="translate(-333.544 -218.446)" fill="#fff" stroke="#263238" stroke-linecap="round" stroke-linejoin="round" stroke-width="1"/>
          <path id="Path_41108" data-name="Path 41108" d="M383.78,238.153s8.03-9.247,9.095-10.919,2.419-4.243,2.129-6.22-1.672.456-2.723,2.129-3.179,3.179-4.4,5.916a6.75,6.75,0,0,1-4.091,3.483v5.612Z" transform="translate(-314.345 -217.747)" fill="#fff" stroke="#263238" stroke-linecap="round" stroke-linejoin="round" stroke-width="1"/>
          <path id="Path_41109" data-name="Path 41109" d="M383.626,243.641s4.547-9.4,5.764-11.97,1.52-6.966,1.672-9.7-2.129-.912-2.419,1.368-2.129,9.095-2.129,9.095-9.855,6.966-9.855,8.791a41.528,41.528,0,0,0,.3,4.243" transform="translate(-317.066 -217.623)" fill="#fff" stroke="#263238" stroke-linecap="round" stroke-linejoin="round" stroke-width="1"/>
        </g>
      </g>
    </g>
    <g id="Chair_1" transform="translate(162.768 363.313)">
      <g id="Group_55921" data-name="Group 55921">
        <rect id="Rectangle_19135" data-name="Rectangle 19135" width="14.748" height="26.192" transform="translate(30.491 104.451)" fill="#263238" stroke="#263238" stroke-linecap="round" stroke-linejoin="round" stroke-width="1"/>
        <path id="Path_41110" data-name="Path 41110" d="M177.293,377.342h-30.27a21.607,21.607,0,0,1-21.6-21.6V286.533a21.607,21.607,0,0,1,21.6-21.6h30.27a21.607,21.607,0,0,1,21.6,21.6v69.205A21.607,21.607,0,0,1,177.293,377.342Z" transform="translate(-125.42 -264.93)" fill="#949494" stroke="#263238" stroke-linecap="round" stroke-linejoin="round" stroke-width="1"/>
        <g id="Group_55920" data-name="Group 55920" transform="translate(2.239 144.534)">
          <path id="Path_41111" data-name="Path 41111" d="M139.507,460.454a6.234,6.234,0,1,0-6.234,6.234A6.235,6.235,0,0,0,139.507,460.454Z" transform="translate(-127.04 -337.122)" fill="#263238" stroke="#263238" stroke-linecap="round" stroke-linejoin="round" stroke-width="1"/>
          <path id="Path_41112" data-name="Path 41112" d="M227.717,460.454a6.234,6.234,0,1,0-6.234,6.234A6.235,6.235,0,0,0,227.717,460.454Z" transform="translate(-93.328 -337.122)" fill="#263238" stroke="#263238" stroke-linecap="round" stroke-linejoin="round" stroke-width="1"/>
          <path id="Path_41113" data-name="Path 41113" d="M179.445,460.454c0-3.442-1.3-6.234-2.9-6.234s-2.9,2.792-2.9,6.234,1.3,6.234,2.9,6.234S179.445,463.9,179.445,460.454Z" transform="translate(-109.231 -337.122)" fill="#263238" stroke="#263238" stroke-linecap="round" stroke-linejoin="round" stroke-width="1"/>
          <path id="Path_41114" data-name="Path 41114" d="M199.949,458.954V369.5H187.7v89.827L127.26,483.239v6h8.777v-5.086L194.3,472.14l58.245,12.011v5.086h8.791v-6Z" transform="translate(-126.956 -369.5)" fill="#263238" stroke="#263238" stroke-linecap="round" stroke-linejoin="round" stroke-width="1"/>
          <path id="Path_41115" data-name="Path 41115" d="M173.893,464.149h6.123l1.313-29.039H172.58Z" transform="translate(-109.636 -344.426)" fill="#263238" stroke="#263238" stroke-linecap="round" stroke-linejoin="round" stroke-width="1"/>
        </g>
        <rect id="Rectangle_19136" data-name="Rectangle 19136" width="31.14" height="18.493" transform="translate(53.518 141.12)" fill="#263238" stroke="#263238" stroke-linecap="round" stroke-linejoin="round" stroke-width="1"/>
        <path id="Path_41116" data-name="Path 41116" d="M237.62,378.552H142.029a8.167,8.167,0,0,1-8.169-8.169v-7.505a8.167,8.167,0,0,1,8.169-8.169H237.62a8.167,8.167,0,0,1,8.169,8.169v7.505A8.149,8.149,0,0,1,237.62,378.552Z" transform="translate(-122.194 -230.618)" fill="#949494" stroke="#263238" stroke-linecap="round" stroke-linejoin="round" stroke-width="1"/>
      </g>
    </g>
    <g id="Character_1" transform="translate(162.953 227.565)">
      <g id="Group_55933" data-name="Group 55933">
        <g id="Group_55923" data-name="Group 55923" transform="translate(187.058 325.893)">
          <path id="Path_41117" data-name="Path 41117" d="M278.872,402.5l9.523,14.112,11.292-.7s21.52-3.884,24.354-4.589,3.884,1.769,2.474,4.589-14.471,15.522-20.815,19.406-24.354,10.228-26.109,10.587-3.884-3.179-7.768-14.112a123.908,123.908,0,0,0-10.933-21.88Z" transform="translate(-260.89 -402.5)" fill="#fff" stroke="#263238" stroke-linecap="round" stroke-linejoin="round" stroke-width="1"/>
          <g id="Group_55922" data-name="Group 55922" transform="translate(10.905 8.711)">
            <path id="Path_41118" data-name="Path 41118" d="M323.486,413.512c1.41-2.82.359-5.294-2.474-4.589s-24.354,4.589-24.354,4.589l-11.292.7c.359,6.358,1.769,9.523,1.769,9.523s-15.881,3.884-18.355,5.639c3.884,10.933,6,14.471,7.768,14.112s19.765-6.7,26.109-10.587S322.077,416.332,323.486,413.512Z" transform="translate(-268.78 -408.802)" fill="#fff" stroke="#263238" stroke-linecap="round" stroke-linejoin="round" stroke-width="1"/>
            <path id="Path_41119" data-name="Path 41119" d="M322.374,413.085a4.562,4.562,0,0,0,.5-3.165c-6.441,5.432-19.959,16.572-25.363,19.281-5.142,2.571-18.535,7.284-25.819,9.786,1.562,3.165,2.723,4.312,3.76,4.105,1.769-.359,19.765-6.7,26.109-10.587S320.964,415.9,322.374,413.085Z" transform="translate(-267.668 -408.375)" fill="#fff" stroke="#263238" stroke-linecap="round" stroke-linejoin="round" stroke-width="1"/>
          </g>
        </g>
        <path id="Path_41120" data-name="Path 41120" d="M258.764,318.942s15.536,45.6,24.561,76.337a311.417,311.417,0,0,0,16.227,43.055s-7.408,4.229-12.357,6.7-13.407,5.639-13.407,5.639-6.7-10.587-13.766-24.354-19.06-47.284-24.7-57.512-13.407-25.764-13.407-25.764-3.525-17.65,9.883-22.225S254.894,314.008,258.764,318.942Z" transform="translate(-88.887 -109.608)" fill="#f8425f" stroke="#263238" stroke-linecap="round" stroke-linejoin="round" stroke-width="1"/>
        <path id="Path_41121" data-name="Path 41121" d="M210.511,312.65s6.068,4.05,6.247,4.727-.166,1.175-1.52,1.686-7.588,1.686-7.588,1.686Z" transform="translate(-94.179 -110.945)" fill="#fff" stroke="#263238" stroke-linecap="round" stroke-linejoin="round" stroke-width="1"/>
        <g id="Group_55925" data-name="Group 55925" transform="translate(129.769 354.49)">
          <path id="Path_41122" data-name="Path 41122" d="M228.571,423.577s-2.433,15.121-4.077,20.65-6.192,15.563-4.768,18.065,8.956,5.059,12.8,5.377,8.763,6.593,15.909,9.191,16.586,1.894,16.365.014-21.161-24.962-22.184-30.546,2.654-23.138,2.654-23.138Z" transform="translate(-219.437 -423.19)" fill="#fff" stroke="#263238" stroke-linecap="round" stroke-linejoin="round" stroke-width="1"/>
          <g id="Group_55924" data-name="Group 55924" transform="translate(0 23.137)">
            <path id="Path_41123" data-name="Path 41123" d="M240.006,443.648l-.581,1.59s-9.689-1.078-16.337-3.29c-1.949,5.418-4.492,11.983-3.372,13.946,1.437,2.5,8.956,5.059,12.8,5.377s8.763,6.593,15.909,9.191,16.586,1.894,16.365.014S243.627,445.514,242.6,439.93A15.19,15.19,0,0,0,240.006,443.648Z" transform="translate(-219.442 -439.93)" fill="#fff" stroke="#263238" stroke-linecap="round" stroke-linejoin="round" stroke-width="1"/>
            <path id="Path_41124" data-name="Path 41124" d="M248,463.122c-5.653-2.778-10.767-7.505-18.286-10.062-4.907-1.659-8.307-3.013-10.09-3.76a4.911,4.911,0,0,0,.111,3c1.437,2.5,8.956,5.059,12.8,5.377s8.763,6.593,15.909,9.191c6.814,2.474,15.688,1.949,16.31.263C260.04,466.439,251.885,465.029,248,463.122Z" transform="translate(-219.434 -436.349)" fill="#fff" stroke="#263238" stroke-linecap="round" stroke-linejoin="round" stroke-width="1"/>
          </g>
        </g>
        <path id="Path_41125" data-name="Path 41125" d="M239.3,341.23s27.878,3.179,29.993,17.291-2.82,101.977-2.82,101.977a60.88,60.88,0,0,1-12.357-.7c-5.653-1.064-15.176-3.179-15.176-3.179s-1.41-29.993-3.179-41.99-3.179-46.939-3.179-46.939-46.579-3.884-50.809-6.7S239.3,341.23,239.3,341.23Z" transform="translate(-104.146 -100.023)" fill="#f8425f" stroke="#263238" stroke-linecap="round" stroke-linejoin="round" stroke-width="1"/>
        <g id="Group_55926" data-name="Group 55926" transform="translate(25.011 199.871)">
          <path id="Path_41126" data-name="Path 41126" d="M284.148,345.6s-62.46,24.354-78.342,29.648a75.008,75.008,0,0,1-44.105.359c-10.933-3.525-16.31-17.567-16.31-17.567s-2.751-3.248-1.341-6.427,23.995-23.29,37.761-26.814,38.659-1.99,38.659-1.99,53.794-12.481,61.216-11.417,13.3,27.436,14.361,30.961" transform="translate(-143.649 -311.323)" fill="#f8425f" stroke="#263238" stroke-linecap="round" stroke-linejoin="round" stroke-width="1"/>
          <path id="Path_41127" data-name="Path 41127" d="M156.45,354.709s4.934-19.406,18-27.519" transform="translate(-138.757 -305.26)" fill="none" stroke="#263238" stroke-linecap="round" stroke-linejoin="round" stroke-width="1"/>
          <path id="Path_41128" data-name="Path 41128" d="M154.41,340.393s5.294-8.113,12.357-9.883" transform="translate(-139.537 -303.991)" fill="none" stroke="#263238" stroke-linecap="round" stroke-linejoin="round" stroke-width="1"/>
        </g>
        <g id="Group_55928" data-name="Group 55928" transform="translate(19.999 83.381)">
          <path id="Path_41129" data-name="Path 41129" d="M198.761,234.6a13.988,13.988,0,0,1,8.956,6.634c3.469,5.777,9.233,27.436,9.233,27.436s9.247,26.856,7.505,33.2-8.666,15.591-8.666,15.591.581,20.788,2.308,24.838,3.76,12.7,3.76,12.7-4.907,3.469-21.078,5.777-29.454,3.469-34.941,7.8-17.609,20.788-19.06,21.659-3.76,2.6-4.907.29-3.179-7.215-.581-17.609,7.215-51.4,8.956-70.74-2.018-38.977.29-52.55,22.806-21.659,27.436-22.516C182.59,226.223,198.761,234.6,198.761,234.6Z" transform="translate(-140.023 -227.043)" fill="#263238" stroke="#263238" stroke-linecap="round" stroke-linejoin="round" stroke-width="1"/>
          <g id="Group_55927" data-name="Group 55927" transform="translate(10.002 80.895)">
            <path id="Path_41130" data-name="Path 41130" d="M147.26,336.356s8.818-10.228,13.062-12S194.2,322.59,194.2,322.59" transform="translate(-147.26 -271.422)" fill="none" stroke="#fff" stroke-linecap="round" stroke-linejoin="round" stroke-width="1"/>
            <path id="Path_41131" data-name="Path 41131" d="M151.86,324.161s4.934-2.82,8.818-3.525,14.112,0,14.112,0" transform="translate(-145.502 -272.288)" fill="none" stroke="#fff" stroke-linecap="round" stroke-linejoin="round" stroke-width="1"/>
            <path id="Path_41132" data-name="Path 41132" d="M163.09,302.156a77.247,77.247,0,0,0,25.764-16.586" transform="translate(-141.21 -285.57)" fill="none" stroke="#fff" stroke-linecap="round" stroke-linejoin="round" stroke-width="1"/>
          </g>
        </g>
        <path id="Path_41133" data-name="Path 41133" d="M196.616,173.246s4.326,9.233,5.777,12.122.871,7.8,2.018,11.845,7.8,6.634,7.8,8.956-2.6,6.925-2.6,6.925-1.437,17.9-3.76,19.917S194,235.61,194,235.61L189.1,254.38,194,257.268s.871,17.042,0,23.1-.29,11.845-8.956,9.523-21.949-25.4-23.1-28.293,3.76-15.3-2.018-33.78,6.925-35.232,15.3-43.027S187.659,171.809,196.616,173.246Z" transform="translate(-112.972 -164.313)" fill="#fff" stroke="#263238" stroke-linecap="round" stroke-linejoin="round" stroke-width="1"/>
        <path id="Path_41134" data-name="Path 41134" d="M209.2,175.65c-.29-5.2-.871-7.215-11.555-8.376s-33.49-2.018-42.447,13.863-8.956,50.532-8.956,50.532-19.06,17.042-20.5,27.436,5.487,20.207,16.462,23.677c.207.069.428.111.65.166.968-4.147,2.737-9.4,6-13.31,6.247-7.491,11.652-6.662,19.558-8.735,8.03-2.115,12.951-2.626,14.112-11.652,1.175-9.081,2.9-18.77,2.129-27.975-.29-3.469,3.469-8.666,3.469-8.666s8.956,2.308,14.72-13.283S209.488,180.847,209.2,175.65Z" transform="translate(-125.554 -166.717)" fill="#263238" stroke="#263238" stroke-linecap="round" stroke-linejoin="round" stroke-width="1"/>
        <path id="Path_41135" data-name="Path 41135" d="M177.11,205.619s-2.889-13.283-10.394-8.086,3.76,19.917,5.487,20.207,4.616-1.437,4.616-1.437" transform="translate(-110.798 -155.401)" fill="#fff" stroke="#263238" stroke-linecap="round" stroke-linejoin="round" stroke-width="1"/>
        <path id="Path_41136" data-name="Path 41136" d="M186.666,218.617l-8.956-1.147,6.358,8.376Z" transform="translate(-105.621 -147.321)" fill="#263238" stroke="#263238" stroke-linecap="round" stroke-linejoin="round" stroke-width="1"/>
        <path id="Path_41137" data-name="Path 41137" d="M191.959,193.811c.373,1.963-.014,3.677-.871,3.842s-1.866-1.285-2.239-3.248.014-3.677.871-3.842S191.586,191.862,191.959,193.811Z" transform="translate(-101.418 -157.608)" fill="#263238"/>
        <g id="Group_55930" data-name="Group 55930" transform="translate(99.953 165.898)">
          <g id="Group_55929" data-name="Group 55929" transform="translate(0 3.425)">
            <path id="Path_41138" data-name="Path 41138" d="M206.688,313.49a16.937,16.937,0,0,0,2.211-.152l-.663-4.16c-1.4.207-4.589.207-5.556-1.175-1.327-1.894-.29-12.329,1.05-14.1.5-.581,2.916-.581,4.644-.18l.968-4.105c-1.037-.249-6.344-1.313-8.818,1.562-2.294,2.681-3.939,15.48-1.3,19.254C201.049,313.006,204.435,313.49,206.688,313.49Z" transform="translate(-197.87 -289.222)" fill="#fff" stroke="#263238" stroke-linecap="round" stroke-linejoin="round" stroke-width="1"/>
          </g>
          <rect id="Rectangle_19137" data-name="Rectangle 19137" width="25.156" height="32.771" transform="translate(33.804 32.771) rotate(180)" fill="#fff" stroke="#263238" stroke-linecap="round" stroke-linejoin="round" stroke-width="1"/>
        </g>
        <g id="Group_55931" data-name="Group 55931" transform="translate(7.587 96.425)">
          <path id="Path_41139" data-name="Path 41139" d="M159.232,236.729s-13.324-4.16-19.42,21.6c-2.032,8.569-10.242,95.342-8.528,95.95,6.206,2.2,71.749-18.189,71.749-18.189s20.29-1.382,22.059-1.811,4.547-3.607,4.423-5.4-.069-5.39-.069-5.39,3.055-3.511,2-5.833a6.151,6.151,0,0,0-3.207-3.082l-4.2-.014-2.474-1.037s3.082-3.207,2.571-6.164-3.013-4.589-4.064-2.419-1.244,3.677-3.207,5.612-4.782,4.52-6.137,6.717-5.156,7.851-5.156,7.851l-47.229,2.571,7.173-54.416" transform="translate(-131.04 -236.481)" fill="#263238" stroke="#263238" stroke-linecap="round" stroke-linejoin="round" stroke-width="1"/>
          <path id="Path_41140" data-name="Path 41140" d="M231.44,299.168a6.151,6.151,0,0,0-3.207-3.082l-4.2-.014-2.474-1.037s3.082-3.207,2.571-6.164-3.013-4.589-4.064-2.419-1.244,3.677-3.207,5.612-4.782,4.52-6.137,6.717-5.155,7.851-5.155,7.851L158.337,309.2l3.124-23.718-26.51-.594c-2.419,24.824-4.616,50.56-3.69,50.892,6.206,2.2,71.749-18.189,71.749-18.189s20.29-1.382,22.059-1.811,4.547-3.607,4.423-5.4-.069-5.39-.069-5.39S232.5,301.49,231.44,299.168Z" transform="translate(-131.043 -217.98)" fill="#fff" stroke="#263238" stroke-linecap="round" stroke-linejoin="round" stroke-width="1"/>
        </g>
        <g id="Group_55932" data-name="Group 55932" transform="translate(95.507 200.081)">
          <path id="Path_41141" data-name="Path 41141" d="M205.015,312.38s-5.294,1.064-6.7,2.82-4.934,11.292-3.179,11.652,5.294-7.408,5.294-7.408S210.309,314.495,205.015,312.38Z" transform="translate(-194.653 -311.13)" fill="#fff" stroke="#263238" stroke-linecap="round" stroke-linejoin="round" stroke-width="1"/>
          <path id="Path_41142" data-name="Path 41142" d="M206.337,312.4a7.164,7.164,0,0,0-3.538.677c-1.52.843-4.727,8.1-5.225,10.118s0,4.05,1.355,3.538,6.068-7.754,7.422-8.611C207.691,317.3,208.7,312.431,206.337,312.4Z" transform="translate(-193.611 -311.126)" fill="#fff" stroke="#263238" stroke-linecap="round" stroke-linejoin="round" stroke-width="1"/>
          <path id="Path_41143" data-name="Path 41143" d="M208.876,312.753s-1.686-2.875-3.718,0-5.4,11.638-4.561,12.315,2.875-1.52,4.216-3.041C206.181,320.521,209.885,316.637,208.876,312.753Z" transform="translate(-192.432 -311.476)" fill="#fff" stroke="#263238" stroke-linecap="round" stroke-linejoin="round" stroke-width="1"/>
          <path id="Path_41144" data-name="Path 41144" d="M211.508,312.907s-3.041-1.852-4.381-.332-2.364,9.62-2.018,10.463,3.041-1.175,3.538-2.018S211.508,312.907,211.508,312.907Z" transform="translate(-190.683 -311.284)" fill="#fff" stroke="#263238" stroke-linecap="round" stroke-linejoin="round" stroke-width="1"/>
        </g>
      </g>
    </g>
  </g>
</svg>
