<svg xmlns="http://www.w3.org/2000/svg" xmlns:xlink="http://www.w3.org/1999/xlink" width="363.588" height="270.516" viewBox="0 0 363.588 270.516">
  <defs>
    <clipPath id="clip-path">
      <path id="Path_41782" data-name="Path 41782" d="M226.78,392.315s.851-4.29,4.181-5.214a14.156,14.156,0,0,0,4.618-1.942S234.554,391.785,226.78,392.315Z" transform="translate(-226.78 -385.16)" fill="#484848"/>
    </clipPath>
  </defs>
  <g id="FAQs-rafiki_2_" data-name="FAQs-rafiki (2)" transform="translate(0 -55)">
    <g id="freepik--background-complete--inject-3" transform="translate(0 55)">
      <rect id="Rectangle_19556" data-name="Rectangle 19556" width="24.084" height="0.182" transform="translate(303.072 249.777)" fill="#ebebeb"/>
      <rect id="Rectangle_19557" data-name="Rectangle 19557" width="6.319" height="0.182" transform="translate(234.536 251.755)" fill="#ebebeb"/>
      <rect id="Rectangle_19558" data-name="Rectangle 19558" width="13.954" height="0.182" transform="translate(288.39 243.029)" fill="#ebebeb"/>
      <rect id="Rectangle_19559" data-name="Rectangle 19559" width="31.407" height="0.182" transform="translate(38.148 244.251)" fill="#ebebeb"/>
      <rect id="Rectangle_19560" data-name="Rectangle 19560" width="4.603" height="0.182" transform="translate(76.033 244.251)" fill="#ebebeb"/>
      <rect id="Rectangle_19561" data-name="Rectangle 19561" width="68.122" height="0.182" transform="translate(95.602 247.32)" fill="#ebebeb"/>
      <path id="Path_41670" data-name="Path 41670" d="M184.16,260.645H43.742a4.152,4.152,0,0,1-4.152-4.152V59.116A4.152,4.152,0,0,1,43.742,55H184.16a4.152,4.152,0,0,1,4.152,4.152V256.493A4.152,4.152,0,0,1,184.16,260.645ZM43.742,55.145a3.978,3.978,0,0,0-3.97,3.97V256.493a3.978,3.978,0,0,0,3.97,3.97H184.16a3.978,3.978,0,0,0,3.97-3.97V59.116a3.978,3.978,0,0,0-3.97-3.97Z" transform="translate(-10.801 -55)" fill="#ebebeb"/>
      <path id="Path_41671" data-name="Path 41671" d="M400.46,260.645H260.042a4.152,4.152,0,0,1-4.152-4.152V59.116A4.152,4.152,0,0,1,260.042,55H400.46a4.152,4.152,0,0,1,4.152,4.152V256.493A4.152,4.152,0,0,1,400.46,260.645ZM260.042,55.145a3.978,3.978,0,0,0-3.97,3.97V256.493a3.978,3.978,0,0,0,3.97,3.97H400.46a3.978,3.978,0,0,0,3.97-3.97V59.116a3.978,3.978,0,0,0-3.97-3.97Z" transform="translate(-69.813 -55)" fill="#ebebeb"/>
      <rect id="Rectangle_19562" data-name="Rectangle 19562" width="363.588" height="0.182" transform="translate(0 238.077)" fill="#ebebeb"/>
      <path id="Path_41672" data-name="Path 41672" d="M411.6,225.94V339.721H388.27V240.847Z" transform="translate(-105.93 -101.637)" fill="#f0f0f0"/>
      <path id="Path_41673" data-name="Path 41673" d="M393.13,274.06l.182,78.644H437.9l.254-78.644Z" transform="translate(-107.256 -114.765)" fill="#e6e6e6"/>
      <path id="Path_41674" data-name="Path 41674" d="M405.1,260.29l.022,17.539h27.6l.036-17.539Z" transform="translate(-110.521 -111.008)" fill="#e6e6e6"/>
      <path id="Path_41675" data-name="Path 41675" d="M402.866,282.437h-5.832l-.015-5.257h5.839Z" transform="translate(-108.317 -115.616)" fill="#fafafa"/>
      <rect id="Rectangle_19563" data-name="Rectangle 19563" width="5.832" height="5.257" transform="translate(299.902 161.564)" fill="#fafafa"/>
      <rect id="Rectangle_19564" data-name="Rectangle 19564" width="5.832" height="5.257" transform="translate(311.086 161.564)" fill="#fafafa"/>
      <path id="Path_41676" data-name="Path 41676" d="M449.012,282.437H443.18l.015-5.257h5.832Z" transform="translate(-120.91 -115.616)" fill="#f0f0f0"/>
      <path id="Path_41677" data-name="Path 41677" d="M402.808,295.647h-5.694l-.015-5.127h5.7Z" transform="translate(-108.339 -119.256)" fill="#f0f0f0"/>
      <rect id="Rectangle_19565" data-name="Rectangle 19565" width="5.701" height="5.127" transform="translate(299.938 171.264)" fill="#f0f0f0"/>
      <rect id="Rectangle_19566" data-name="Rectangle 19566" width="5.701" height="5.127" transform="translate(311.115 171.264)" fill="#fafafa"/>
      <path id="Path_41678" data-name="Path 41678" d="M448.894,295.647H443.2l.007-5.127h5.7Z" transform="translate(-120.916 -119.256)" fill="#fafafa"/>
      <path id="Path_41679" data-name="Path 41679" d="M402.79,308.543h-5.563l-.007-5h5.563Z" transform="translate(-108.371 -122.808)" fill="#f0f0f0"/>
      <rect id="Rectangle_19567" data-name="Rectangle 19567" width="5.563" height="5.003" transform="translate(300.011 180.732)" fill="#fafafa"/>
      <rect id="Rectangle_19568" data-name="Rectangle 19568" width="5.563" height="5.003" transform="translate(311.173 180.732)" fill="#fafafa"/>
      <rect id="Rectangle_19569" data-name="Rectangle 19569" width="5.948" height="5.359" transform="translate(299.756 153.936)" fill="#fafafa"/>
      <rect id="Rectangle_19570" data-name="Rectangle 19570" width="5.948" height="5.359" transform="translate(310.947 153.936)" fill="#f0f0f0"/>
      <path id="Path_41680" data-name="Path 41680" d="M448.823,308.543H443.26l.007-5h5.57Z" transform="translate(-120.932 -122.808)" fill="#f0f0f0"/>
      <path id="Path_41681" data-name="Path 41681" d="M402.816,321.119h-5.439l-.007-4.879h5.439Z" transform="translate(-108.412 -126.273)" fill="#fafafa"/>
      <rect id="Rectangle_19571" data-name="Rectangle 19571" width="5.439" height="4.879" transform="translate(300.113 189.967)" fill="#f0f0f0"/>
      <rect id="Rectangle_19572" data-name="Rectangle 19572" width="5.439" height="4.879" transform="translate(311.26 189.967)" fill="#f0f0f0"/>
      <path id="Path_41682" data-name="Path 41682" d="M448.809,321.119H443.37l.015-4.879h5.432Z" transform="translate(-120.962 -126.273)" fill="#fafafa"/>
      <path id="Path_41683" data-name="Path 41683" d="M402.922,335.012h-6.065l-.007-5.432h6.065Z" transform="translate(-108.27 -129.912)" fill="#f0f0f0"/>
      <path id="Path_41684" data-name="Path 41684" d="M418.215,335.012h-6.057l-.007-5.432h6.072Z" transform="translate(-112.445 -129.912)" fill="#fafafa"/>
      <path id="Path_41685" data-name="Path 41685" d="M433.517,335.012H427.46V329.58h6.065Z" transform="translate(-116.622 -129.912)" fill="#fafafa"/>
      <path id="Path_41686" data-name="Path 41686" d="M448.817,335.012H442.76l.007-5.432h6.065Z" transform="translate(-120.796 -129.912)" fill="#f0f0f0"/>
      <path id="Path_41687" data-name="Path 41687" d="M403.014,346.968h-5.919l-.015-5.308h5.927Z" transform="translate(-108.333 -133.208)" fill="#f0f0f0"/>
      <rect id="Rectangle_19573" data-name="Rectangle 19573" width="5.919" height="5.301" transform="translate(299.88 208.452)" fill="#fafafa"/>
      <rect id="Rectangle_19574" data-name="Rectangle 19574" width="5.919" height="5.301" transform="translate(311.006 208.452)" fill="#f0f0f0"/>
      <path id="Path_41688" data-name="Path 41688" d="M448.9,346.968H442.98l.007-5.308h5.927Z" transform="translate(-120.856 -133.208)" fill="#fafafa"/>
      <path id="Path_41689" data-name="Path 41689" d="M402.9,360.413h-5.774l-.007-5.163h5.774Z" transform="translate(-108.344 -136.916)" fill="#fafafa"/>
      <rect id="Rectangle_19575" data-name="Rectangle 19575" width="5.774" height="5.163" transform="translate(299.88 218.334)" fill="#fafafa"/>
      <rect id="Rectangle_19576" data-name="Rectangle 19576" width="5.774" height="5.163" transform="translate(310.984 218.334)" fill="#f0f0f0"/>
      <path id="Path_41690" data-name="Path 41690" d="M448.694,360.413H442.92l.014-5.163h5.774Z" transform="translate(-120.84 -136.916)" fill="#f0f0f0"/>
      <path id="Path_41691" data-name="Path 41691" d="M402.953,372.649h-5.636l-.007-5.039h5.636Z" transform="translate(-108.396 -140.288)" fill="#f0f0f0"/>
      <path id="Path_41692" data-name="Path 41692" d="M448.716,372.649H443.08l.015-5.039h5.643Z" transform="translate(-120.883 -140.288)" fill="#fafafa"/>
      <path id="Path_41693" data-name="Path 41693" d="M429.327,367.61H412.5l.029,1.265H413v9.351h1.687l-.007-9.351h12.493l-.015,9.351h1.68l.015-9.351h.509Z" transform="translate(-112.54 -140.288)" fill="#f5f5f5"/>
      <path id="Path_41694" data-name="Path 41694" d="M421.849,378.7H415.61V369.35h6.246Z" transform="translate(-113.389 -140.762)" fill="#e6e6e6"/>
      <path id="Path_41695" data-name="Path 41695" d="M430.212,378.7H423.98V369.35h6.246Z" transform="translate(-115.672 -140.762)" fill="#ebebeb"/>
      <path id="Path_41696" data-name="Path 41696" d="M272.47,274.06l1.287,78.644h44.59L317.5,274.06Z" transform="translate(-74.337 -114.765)" fill="#f5f5f5"/>
      <path id="Path_41697" data-name="Path 41697" d="M276.34,277.18l.153,9.57.044,2.632.044,2.625h5.839l-.044-2.625-.036-2.632-.153-9.57Z" transform="translate(-75.392 -115.616)" fill="#e6e6e6"/>
      <path id="Path_41698" data-name="Path 41698" d="M291.73,277.18l.138,9.57.044,2.632.036,2.625h5.839l-.036-2.625-.036-2.632-.131-9.57Z" transform="translate(-79.591 -115.616)" fill="#e6e6e6"/>
      <path id="Path_41699" data-name="Path 41699" d="M307.12,277.18l.131,9.57.029,2.632.036,2.625h5.839l-.029-2.625-.036-2.632-.116-9.57Z" transform="translate(-83.79 -115.616)" fill="#e6e6e6"/>
      <path id="Path_41700" data-name="Path 41700" d="M322.51,277.18l.116,9.57.051,4.065.007,1.193h5.846l-.015-1.193-.044-4.065-.109-9.57Z" transform="translate(-87.989 -115.616)" fill="#e6e6e6"/>
      <path id="Path_41701" data-name="Path 41701" d="M276.82,303.54l.16,9.562.036,2.625.044,2.625h5.854l-.044-2.625-.036-2.625-.153-9.562Z" transform="translate(-75.523 -122.808)" fill="#e6e6e6"/>
      <path id="Path_41702" data-name="Path 41702" d="M292.17,303.54l.145,9.562.051,3.7.022,1.549h5.854l-.022-1.549-.051-3.7-.138-9.562Z" transform="translate(-79.711 -122.808)" fill="#e6e6e6"/>
      <path id="Path_41703" data-name="Path 41703" d="M307.52,303.54l.124,9.562.036,2.625.036,2.625h5.854l-.036-2.625L313.5,313.1l-.124-9.562Z" transform="translate(-83.899 -122.808)" fill="#e6e6e6"/>
      <path id="Path_41704" data-name="Path 41704" d="M322.87,303.54l.109,9.562.036,2.625.029,2.625h5.846l-.022-2.625-.029-2.625-.109-9.562Z" transform="translate(-88.087 -122.808)" fill="#e6e6e6"/>
      <path id="Path_41705" data-name="Path 41705" d="M277.28,329.58l.153,9.519.044,2.618.044,2.611h5.839l-.044-2.611-.036-2.618-.145-9.519Z" transform="translate(-75.649 -129.912)" fill="#e6e6e6"/>
      <path id="Path_41706" data-name="Path 41706" d="M292.59,329.58l.138,9.519.036,2.618.044,2.611h5.839l-.036-2.611-.036-2.618-.131-9.519Z" transform="translate(-79.826 -129.912)" fill="#e6e6e6"/>
      <path id="Path_41707" data-name="Path 41707" d="M307.9,329.58l.124,9.519.036,2.618.036,2.611h5.839l-.036-2.611-.029-2.618-.116-9.519Z" transform="translate(-84.003 -129.912)" fill="#e6e6e6"/>
      <path id="Path_41708" data-name="Path 41708" d="M323.21,329.58l.109,9.519.044,3.614.022,1.614h5.839l-.022-1.614-.036-3.614-.1-9.519Z" transform="translate(-88.18 -129.912)" fill="#e6e6e6"/>
      <path id="Path_41709" data-name="Path 41709" d="M313.991,355.25H277.53l.087,5.163h39.318l-.058-5.163Z" transform="translate(-75.717 -136.916)" fill="#e6e6e6"/>
      <path id="Path_41710" data-name="Path 41710" d="M309.929,367.61H293.1l-.022,1.265h.509l.138,9.351h1.687l-.138-9.351h12.486l.124,9.351h1.68l-.116-9.351h.465Z" transform="translate(-79.959 -140.288)" fill="#fafafa"/>
      <path id="Path_41711" data-name="Path 41711" d="M302.57,378.7h-6.232l-.138-9.352h6.246Z" transform="translate(-80.811 -140.762)" fill="#e6e6e6"/>
      <path id="Path_41712" data-name="Path 41712" d="M310.943,378.7H304.7l-.124-9.352h6.246Z" transform="translate(-83.097 -140.762)" fill="#e6e6e6"/>
      <path id="Path_41713" data-name="Path 41713" d="M376.871,280.29l.509,74.114H335.363l-.923-74.114Z" transform="translate(-91.243 -116.465)" fill="#e6e6e6"/>
      <path id="Path_41714" data-name="Path 41714" d="M371.056,357.04h12.573l.022,2.371.014,2.371.065,8.61h-5.323l-.073-8.85H368.1l-.036-4.5Z" transform="translate(-100.416 -137.404)" fill="#f0f0f0"/>
      <path id="Path_41715" data-name="Path 41715" d="M342.921,357.04h11.809l.051,4.5h-10.1l.094,8.85H339.46l-.1-8.61-.044-3.432-.015-1.309Z" transform="translate(-92.569 -137.404)" fill="#f0f0f0"/>
      <path id="Path_41716" data-name="Path 41716" d="M354.451,368.48h14.485l.007,1.265h.16l.073,8.719h-1.563l-.08-8.719H355.891l.087,8.719h-1.571l-.087-8.719h.145Z" transform="translate(-96.667 -140.525)" fill="#f5f5f5"/>
      <path id="Path_41717" data-name="Path 41717" d="M364.48,378.939H370.3l-.073-8.719H364.4Z" transform="translate(-99.417 -141)" fill="#ebebeb"/>
      <path id="Path_41718" data-name="Path 41718" d="M356.655,378.939h5.81l-.08-8.719H356.56Z" transform="translate(-97.278 -141)" fill="#e0e0e0"/>
      <path id="Path_41719" data-name="Path 41719" d="M367.01,284.41h16.143l.1,13.911H367.141Z" transform="translate(-100.129 -117.589)" fill="#f0f0f0"/>
      <path id="Path_41720" data-name="Path 41720" d="M338.23,284.41h16.143l.131,13.911H338.4Z" transform="translate(-92.278 -117.589)" fill="#f0f0f0"/>
      <path id="Path_41721" data-name="Path 41721" d="M367.63,308.46h15.452l.095,13.3H367.746Z" transform="translate(-100.299 -124.15)" fill="#f0f0f0"/>
      <path id="Path_41722" data-name="Path 41722" d="M338.89,308.46h15.452l.138,13.3H339.05Z" transform="translate(-92.458 -124.15)" fill="#f0f0f0"/>
      <path id="Path_41723" data-name="Path 41723" d="M367.84,333.33h15.54l.1,13.329H367.964Z" transform="translate(-100.356 -130.935)" fill="#f0f0f0"/>
      <path id="Path_41724" data-name="Path 41724" d="M339.2,333.33h15.54l.131,13.329H339.353Z" transform="translate(-92.542 -130.935)" fill="#f0f0f0"/>
      <path id="Path_41725" data-name="Path 41725" d="M243.509,224.846v-6.937h7.344V198.69h2.4v19.219H260.6v6.937h3.469V332.468H240.04V224.846Z" transform="translate(-65.489 -94.202)" fill="#e6e6e6"/>
      <path id="Path_41726" data-name="Path 41726" d="M45,267v84.178H73.8V273.37L68.59,267Zm21.51,60.356h4.908v4.908H66.51Zm0-9.817h4.908v4.908H66.51Zm0-19.634h4.908v4.908H66.51Zm0-9.817h4.908V293H66.51Zm0-9.817h4.908v4.908H66.51Zm-9.817,39.267H61.6v4.908H56.693Zm0-9.817H61.6v4.908H56.693Zm0-9.817H61.6v4.908H56.693Zm-9.817,29.451h4.908v4.908H46.876Zm0-19.634h4.908v4.908H46.876Zm0-9.817h4.908v4.908H46.876Zm0-19.634h4.908v4.908H46.876Z" transform="translate(-12.277 -112.839)" fill="#f0f0f0"/>
      <rect id="Rectangle_19577" data-name="Rectangle 19577" width="3.105" height="18.587" transform="translate(90.352 182.216)" fill="#e6e6e6"/>
      <path id="Path_41727" data-name="Path 41727" d="M151.273,324.167H128.52V305.58h25.989v18.587Z" transform="translate(-35.063 -123.364)" fill="#f0f0f0"/>
      <rect id="Rectangle_19578" data-name="Rectangle 19578" width="4.908" height="0.887" transform="translate(137.952 182.216)" fill="#f0f0f0"/>
      <rect id="Rectangle_19579" data-name="Rectangle 19579" width="4.77" height="0.887" transform="translate(127.248 182.216)" fill="#f0f0f0"/>
      <path id="Path_41728" data-name="Path 41728" d="M211.8,312.532h-1.229a.393.393,0,0,0,0,.778h1.207v3.636h-1.207a.393.393,0,0,0,0,.778h1.207v6.421h-4.6V305.58h7.032v1.578a8,8,0,0,0-2.407,5.374Z" transform="translate(-56.524 -123.364)" fill="#f0f0f0"/>
      <rect id="Rectangle_19580" data-name="Rectangle 19580" width="8.37" height="37.813" transform="translate(61.454 201.02)" fill="#e6e6e6"/>
      <rect id="Rectangle_19581" data-name="Rectangle 19581" width="4.341" height="0.32" transform="translate(92.424 238.288)" fill="#f0f0f0"/>
      <rect id="Rectangle_19582" data-name="Rectangle 19582" width="4.349" height="0.32" transform="translate(133.691 238.288)" fill="#f0f0f0"/>
      <rect id="Rectangle_19583" data-name="Rectangle 19583" width="4.349" height="0.32" transform="translate(108.931 238.288)" fill="#f0f0f0"/>
      <rect id="Rectangle_19584" data-name="Rectangle 19584" width="4.349" height="0.32" transform="translate(125.438 238.288)" fill="#f0f0f0"/>
      <rect id="Rectangle_19585" data-name="Rectangle 19585" width="4.349" height="0.32" transform="translate(117.184 238.288)" fill="#f0f0f0"/>
      <rect id="Rectangle_19586" data-name="Rectangle 19586" width="4.341" height="0.32" transform="translate(100.677 238.288)" fill="#f0f0f0"/>
      <rect id="Rectangle_19587" data-name="Rectangle 19587" width="4.349" height="0.32" transform="translate(158.451 238.288)" fill="#f0f0f0"/>
      <rect id="Rectangle_19588" data-name="Rectangle 19588" width="4.349" height="0.32" transform="translate(150.198 238.288)" fill="#f0f0f0"/>
      <rect id="Rectangle_19589" data-name="Rectangle 19589" width="4.349" height="0.32" transform="translate(141.945 238.288)" fill="#f0f0f0"/>
      <rect id="Rectangle_19590" data-name="Rectangle 19590" width="4.349" height="0.32" transform="translate(166.698 238.288)" fill="#f0f0f0"/>
      <path id="Path_41729" data-name="Path 41729" d="M96,331.14v37.813h18.7v-.32H105.89V340.128H102.8a.778.778,0,1,1,0-1.556h3.09v-4.748h93.217v-2.676h-1.513v.153H181.45v-.153h-4.6v.844h-31.21v-.844Z" transform="translate(-26.191 -130.338)" fill="#ebebeb"/>
      <path id="Path_41730" data-name="Path 41730" d="M109.6,339.571V334.83h4.588v4.741Z" transform="translate(-29.902 -131.345)" fill="#e6e6e6"/>
      <path id="Path_41731" data-name="Path 41731" d="M114.188,372H109.6V343.49h4.588Z" transform="translate(-29.902 -133.707)" fill="#e6e6e6"/>
      <path id="Path_41732" data-name="Path 41732" d="M115.91,343.49V372h4.232V365.88a1.956,1.956,0,0,1,3.9,0V372h4.363V365.88a1.956,1.956,0,0,1,3.9,0V372h4.363V365.88a1.956,1.956,0,1,1,3.912,0V372h4.363V365.88a1.956,1.956,0,0,1,3.9,0V372h4.363V365.88a1.956,1.956,0,0,1,3.9,0V372h4.363V365.88a1.956,1.956,0,0,1,3.9,0V372h4.363V365.88a1.956,1.956,0,1,1,3.912,0V372h4.363V365.88a1.956,1.956,0,1,1,3.912,0V372h4.363V365.88a1.956,1.956,0,1,1,3.912,0V372h4.363V365.88a1.956,1.956,0,0,1,3.9,0V372h4.363V365.88a1.956,1.956,0,0,1,3.9,0V372h4.225V343.49Zm86.767,14.1a1.956,1.956,0,1,1,3.9,0v2.756h-3.9Zm-8.261,0a1.956,1.956,0,1,1,3.9,0v2.756h-3.9Zm-8.253,0a1.956,1.956,0,0,1,3.912,0v2.756h-3.912Zm-8.253,0a1.956,1.956,0,0,1,3.912,0v2.756h-3.912Zm-8.253,0a1.956,1.956,0,0,1,3.912,0v2.756h-3.912Zm-8.246,0a1.956,1.956,0,1,1,3.9,0v2.756h-3.9Zm-8.253,0a1.956,1.956,0,1,1,3.9,0v2.756h-3.9Zm-8.253,0a1.956,1.956,0,1,1,3.9,0v2.756h-3.9Zm-8.261,0a1.956,1.956,0,0,1,3.912,0v2.756h-3.912Zm-8.246,0a1.956,1.956,0,1,1,3.9,0v2.756h-3.9Zm-8.253,0a1.956,1.956,0,1,1,3.9,0v2.756h-3.9Z" transform="translate(-31.623 -133.707)" fill="#f0f0f0"/>
      <path id="Path_41733" data-name="Path 41733" d="M200.117,339.571H115.91V334.83h94.9v4.741Z" transform="translate(-31.623 -131.345)" fill="#f0f0f0"/>
      <path id="Path_41734" data-name="Path 41734" d="M118.1,342.906H105.058a.778.778,0,1,1,0-1.556H210a.778.778,0,0,1,0,1.556Z" transform="translate(-28.45 -133.123)" fill="#e0e0e0"/>
      <path id="Path_41735" data-name="Path 41735" d="M152.66,244.411v-2.763a.633.633,0,0,1,1.258,0v2.763a5.9,5.9,0,0,0-.625,0,6.034,6.034,0,0,0-.633,0Z" transform="translate(-41.649 -105.768)" fill="#f0f0f0"/>
      <path id="Path_41736" data-name="Path 41736" d="M146.13,254.05v7.061a13.024,13.024,0,0,1,10.762,0V254.05Zm3.694,2.283a1.687,1.687,0,1,1,3.374,0v2.385h-3.374Z" transform="translate(-39.868 -109.306)" fill="#f0f0f0"/>
      <path id="Path_41737" data-name="Path 41737" d="M150.887,245.657a6.033,6.033,0,0,1,.633,0,5.9,5.9,0,0,1,.625,0,5.374,5.374,0,0,1,4.727,4.843H146.16a5.381,5.381,0,0,1,4.727-4.843Z" transform="translate(-39.876 -107.014)" fill="#f0f0f0"/>
      <path id="Path_41738" data-name="Path 41738" d="M135.61,274.569a13.038,13.038,0,0,1,23.066-7.7l-2.225,7.7Z" transform="translate(-36.998 -111.514)" fill="#f0f0f0"/>
      <path id="Path_41739" data-name="Path 41739" d="M143.448,253.578a.633.633,0,0,1,0-1.258H157.8a.633.633,0,0,1,0,1.258Z" transform="translate(-38.982 -108.834)" fill="#e0e0e0"/>
      <path id="Path_41740" data-name="Path 41740" d="M135.59,281v5.912h20.848V286h-.916v-2.385a1.687,1.687,0,0,1,.938-1.505V281Zm14.209,2.611a1.687,1.687,0,0,1,3.374,0V286H149.8Zm-5.708,0a1.694,1.694,0,0,1,3.381,0V286h-3.381Zm-5.708,0a1.694,1.694,0,0,1,3.381,0V286h-3.381Z" transform="translate(-36.992 -116.658)" fill="#f0f0f0"/>
      <path id="Path_41741" data-name="Path 41741" d="M135.59,290.83v10.617h2.792v-7.519a1.694,1.694,0,1,1,3.381,0v7.519h2.327v-7.519a1.694,1.694,0,1,1,3.381,0v7.519H149.8v-7.519a1.687,1.687,0,0,1,3.374,0v7.519h2.349v-6.414h-.1a.778.778,0,1,1,0-1.556h.167a1.687,1.687,0,0,1,.873-1.054V290.83Z" transform="translate(-36.992 -119.34)" fill="#f0f0f0"/>
      <path id="Path_41742" data-name="Path 41742" d="M175,280.14Z" transform="translate(-47.744 -116.424)" fill="#f0f0f0"/>
      <path id="Path_41743" data-name="Path 41743" d="M155.492,279.26v1.265h-22.8a.633.633,0,0,1,0-1.258H155.5Z" transform="translate(-36.046 -116.184)" fill="#e0e0e0"/>
      <path id="Path_41744" data-name="Path 41744" d="M175,290Z" transform="translate(-47.744 -119.114)" fill="#f0f0f0"/>
      <path id="Path_41745" data-name="Path 41745" d="M155.467,290.355h-22.8a.633.633,0,1,1,0-1.265h22.8Z" transform="translate(-36.021 -118.866)" fill="#e0e0e0"/>
      <path id="Path_41746" data-name="Path 41746" d="M175,304.839v18.55h15.605v-18.55h-4.916V302.6a2.96,2.96,0,0,0-5.919,0v2.24Zm6.181-1.665a1.563,1.563,0,1,1,3.12,0v5.141h-3.12Z" transform="translate(-47.744 -121.744)" fill="#f0f0f0"/>
      <path id="Path_41747" data-name="Path 41747" d="M196.45,274.185v11.06h7.8v-11.06l-3.9-13.525Zm2.247,5.556a1.658,1.658,0,0,1,3.316,0V285.2H198.7Z" transform="translate(-53.596 -111.109)" fill="#f0f0f0"/>
      <path id="Path_41748" data-name="Path 41748" d="M196.45,296.61v25.953h7.8V296.61Zm2.247,18.347a1.658,1.658,0,0,1,3.316,0v5.468H198.7Zm0-10.959a1.658,1.658,0,1,1,3.316,0v5.461H198.7Z" transform="translate(-53.596 -120.917)" fill="#f0f0f0"/>
      <path id="Path_41749" data-name="Path 41749" d="M194.708,296.026a.778.778,0,1,1,0-1.556h9.882a.778.778,0,1,1,0,1.556Z" transform="translate(-52.909 -120.333)" fill="#e0e0e0"/>
      <path id="Path_41750" data-name="Path 41750" d="M164.26,274.185v11.06h7.81v-11.06l-3.9-13.525-1.673,5.817-2.225,7.7Zm2.247,5.556a1.658,1.658,0,1,1,3.316,0V285.2h-3.316Z" transform="translate(-44.814 -111.109)" fill="#f0f0f0"/>
      <path id="Path_41751" data-name="Path 41751" d="M164.26,296.61v25.953h7.81V296.61Zm2.247,18.347a1.658,1.658,0,1,1,3.316,0v5.468h-3.316Zm0-10.959a1.658,1.658,0,1,1,3.316,0v5.461h-3.316Z" transform="translate(-44.814 -120.917)" fill="#f0f0f0"/>
      <path id="Path_41752" data-name="Path 41752" d="M162.538,296.026h9.882a.778.778,0,0,0,0-1.556h-9.882a.778.778,0,0,0,0,1.556Z" transform="translate(-44.132 -120.333)" fill="#e0e0e0"/>
      <path id="Path_41753" data-name="Path 41753" d="M222.968,294.37v.16a.393.393,0,1,0,.785,0v-.16a3.338,3.338,0,0,1,2.909,3H220.03a3.338,3.338,0,0,1,2.938-3Z" transform="translate(-60.03 -120.306)" fill="#f0f0f0"/>
      <path id="Path_41754" data-name="Path 41754" d="M220,299.57v4.363a8.064,8.064,0,0,1,6.661,0V299.57Zm2.283,1.411a1.047,1.047,0,1,1,2.087,0v1.454h-2.087Z" transform="translate(-60.021 -121.725)" fill="#f0f0f0"/>
      <path id="Path_41755" data-name="Path 41755" d="M213.54,312.245a8.057,8.057,0,0,1,16.1,0Z" transform="translate(-58.259 -123.078)" fill="#f0f0f0"/>
      <path id="Path_41756" data-name="Path 41756" d="M218.383,299.268a.393.393,0,0,1,0-.778h8.872a.393.393,0,0,1,0,.778Z" transform="translate(-59.488 -121.43)" fill="#e0e0e0"/>
      <path id="Path_41757" data-name="Path 41757" d="M213.51,316.21v3.636h16.143V316.21Zm12.318,1.614a1.047,1.047,0,0,1,2.094,0v1.454h-2.094Zm-3.527,0a1.047,1.047,0,1,1,2.087,0v1.454H222.3Zm-3.527,0a1.047,1.047,0,1,1,2.087,0v1.454h-2.087Zm-3.534,0a1.047,1.047,0,0,1,2.094,0v1.454h-2.094Z" transform="translate(-58.251 -126.265)" fill="#f0f0f0"/>
      <path id="Path_41758" data-name="Path 41758" d="M213.51,328.895V322.35h16.143v6.545Z" transform="translate(-58.251 -127.94)" fill="#f0f0f0"/>
      <path id="Path_41759" data-name="Path 41759" d="M224.07,293.381v-2.829a.393.393,0,0,1,.785,0v2.829a.393.393,0,0,1-.785,0Z" transform="translate(-61.132 -119.157)" fill="#f0f0f0"/>
      <path id="Path_41760" data-name="Path 41760" d="M212.93,315.918h-1.207a.393.393,0,0,1,0-.778H230.28a.393.393,0,0,1,0,.778Z" transform="translate(-57.671 -125.973)" fill="#e0e0e0"/>
      <path id="Path_41761" data-name="Path 41761" d="M212.93,322.018h-1.207a.393.393,0,0,1,0-.778H230.28a.393.393,0,0,1,0,.778Z" transform="translate(-57.671 -127.637)" fill="#e0e0e0"/>
      <path id="Path_41762" data-name="Path 41762" d="M93.61,351.853l8.842-.109-.64-31.719-.124-7.352v-.444l-.116-6.545v-.429l-.1-6.217v-.407l-.1-5.941v-.378l-.095-5.657v-.371l-.095-5.4v-.356l-.087-5.17v-.334l-.08-4.487a3.06,3.06,0,0,1-.727.415l.051,3.265-3.047-2.778a7.76,7.76,0,0,1-1.149-.138l3.687,3.381H95.246v-3.636a3.289,3.289,0,0,1-.727-.335v4.618l-.051,5.17v.342l-.051,5.417v.364l-.051,5.665v.4l-.051,5.941v.407l-.065,6.232v.422l-.065,6.545v.444l-.073,7.359Zm1.4-38.955h5.287L94.97,318.65Zm.087-6.174,5.228,5.49H95.05Zm-.065-7.8h5.032l-5.09,5.192Zm.058-5.687,4.988,5H95.057Zm0-6.625h4.8l-4.828,4.719Zm.044-5.25,4.756,4.552H95.093Zm4.639-5.941-4.618,4.29V275.4Zm.676,5.287H95.762l4.618-4.3Zm.073,5.243-4.748-4.53h4.683Zm.095,6.545H95.719l4.836-4.727Zm.073,5.665L95.7,293.184h4.908Zm.1,7.141H95.675l5.09-5.214Zm.051,6.159L95.6,305.983h5.163Zm.044,7.555H95.508l5.323-5.781Z" transform="translate(-25.539 -113.805)" fill="#ebebeb"/>
      <path id="Path_41763" data-name="Path 41763" d="M94.92,270.674a3.279,3.279,0,0,0,.727.327v-.538l.858.793a7.994,7.994,0,0,0,1.156.138l-2.116-1.934-.247.225h-.364Zm5.708-.953v1.185a2.909,2.909,0,0,0,.727-.414v-.771Z" transform="translate(-25.897 -113.51)" fill="#ebebeb"/>
      <path id="Path_41764" data-name="Path 41764" d="M93.166,267a1.229,1.229,0,0,0,.371,1.054l.247.233a3.635,3.635,0,0,0,.407.284,3.279,3.279,0,0,0,.727.327,5.088,5.088,0,0,0,.858.255,8.007,8.007,0,0,0,1.156.138h.516a6.3,6.3,0,0,0,2.472-.5,2.909,2.909,0,0,0,.727-.414l.058-.044.233-.225a1.142,1.142,0,0,0,.335-1.018l-.524-2.952h1.389L97.3,261.67l-5.047,2.3H93.7Z" transform="translate(-25.168 -111.385)" fill="#ebebeb"/>
      <path id="Path_41765" data-name="Path 41765" d="M358.631,107.333c.124-1.338-1.047-2.182-2.756-2.182a5.236,5.236,0,0,0-4.4,2.414l-4.756-2.683c2.036-2.981,5.454-4.952,10.384-4.952,5.156,0,8.646,2.182,8.29,6.3-.458,5.221-6.021,5.992-6.29,9.075h-5.963C353.526,110.954,358.413,109.849,358.631,107.333Zm-6.755,13.336a3.876,3.876,0,0,1,4.087-3.454c2.24,0,3.687,1.454,3.512,3.454a3.985,3.985,0,0,1-4.123,3.512A3.211,3.211,0,0,1,351.876,120.669Z" transform="translate(-94.594 -67.258)" fill="#e0e0e0"/>
      <path id="Path_41766" data-name="Path 41766" d="M152.5,84.543c.08-.953-.727-1.527-1.963-1.527a3.723,3.723,0,0,0-3.127,1.716L144,82.827a8.457,8.457,0,0,1,7.381-3.527c3.636,0,6.145,1.578,5.89,4.479-.32,3.716-4.276,4.261-4.465,6.457h-4.239C148.865,87.117,152.341,86.354,152.5,84.543ZM147.694,94a2.749,2.749,0,0,1,2.909-2.451A2.262,2.262,0,0,1,153.1,94a2.843,2.843,0,0,1-2.909,2.5,2.283,2.283,0,0,1-2.5-2.48Z" transform="translate(-39.287 -61.63)" fill="#e0e0e0"/>
      <g id="freepik--freepik--speech-bubbles--inject-120--inject-3" transform="translate(164.576 27.151)">
        <path id="Path_41767" data-name="Path 41767" d="M229.789,92.514l29.945-.175a1.563,1.563,0,0,1,1.636,1.513,1.459,1.459,0,0,1,0,.255l-1.454,13.773a2.072,2.072,0,0,1-2.007,1.8l-17.118.138a13.555,13.555,0,0,1-7.9,4.61s2.872-2.632,3.549-4.588h-8.479a1.585,1.585,0,0,1-1.636-1.52,1.531,1.531,0,0,1,0-.255l1.454-13.773A2.087,2.087,0,0,1,229.789,92.514Z" transform="translate(-226.323 -92.338)" fill="#e6e6e6"/>
      </g>
      <path id="Path_41768" data-name="Path 41768" d="M242.079,104.374a1.454,1.454,0,1,1-1.454-1.454A1.454,1.454,0,0,1,242.079,104.374Z" transform="translate(-65.251 -68.074)" fill="#fafafa"/>
      <path id="Path_41769" data-name="Path 41769" d="M251.349,104.374a1.454,1.454,0,1,1-1.454-1.454A1.454,1.454,0,0,1,251.349,104.374Z" transform="translate(-67.781 -68.074)" fill="#fafafa"/>
      <path id="Path_41770" data-name="Path 41770" d="M260.609,104.374a1.454,1.454,0,1,1-1.454-1.454A1.454,1.454,0,0,1,260.609,104.374Z" transform="translate(-70.307 -68.074)" fill="#fafafa"/>
    </g>
    <g id="freepik--Shadow--inject-3" transform="translate(40.802 309.053)">
      <ellipse id="freepik--path--inject-3" cx="140.992" cy="8.232" rx="140.992" ry="8.232" fill="#f5f5f5"/>
    </g>
    <g id="freepik--Letters--inject-3" transform="translate(41.5 142.152)">
      <path id="Path_41771" data-name="Path 41771" d="M84.986,204.068v24.9h43.572v24.724H84.986v38.838H57.07V179.33h77.408v24.724Z" transform="translate(-57.07 -176.072)" fill="#2d4059"/>
      <path id="Path_41772" data-name="Path 41772" d="M220.968,271.181H179.235l-7.759,21.99H143L186.565,180H214.06l43.7,113.178H228.719Zm-8.159-23.6L200.12,211.356,187.43,247.576Z" transform="translate(-80.514 -176.255)" fill="#2d4059"/>
      <path id="Path_41773" data-name="Path 41773" d="M399.593,303.393a33.13,33.13,0,0,1-27.633,14.224c-16.071,0-26.644-6.3-43.143-26.026-25.938-5.018-43.987-27.974-43.987-57.883,0-33.959,23.27-58.858,54.844-58.858s54.844,24.9,54.844,58.858c0,25.706-13.395,46.241-33.552,54.647,3.949,4.85,7.33,6.465,11.562,6.465,5.352,0,10.573-2.749,14.943-7.919Zm-59.919-37.355c14.943,0,26.644-12.769,26.644-32.33s-11.7-32.337-26.644-32.337-26.651,12.769-26.651,32.337S324.73,266.038,339.674,266.038Z" transform="translate(-119.209 -174.85)" fill="#2d4059"/>
      <path id="Path_41774" data-name="Path 41774" d="M352.024,179.76a.364.364,0,1,1-.051-.727,45.673,45.673,0,0,1,9.148-.32.364.364,0,0,1,.342.385.385.385,0,0,1-.393.342,44.671,44.671,0,0,0-9,.313Z" transform="translate(-137.434 -175.877)" fill="#fff"/>
      <path id="Path_41775" data-name="Path 41775" d="M304.384,201.624a.342.342,0,0,1-.218-.073.364.364,0,0,1-.073-.509,53.927,53.927,0,0,1,26.142-19.059.356.356,0,0,1,.458.233.371.371,0,0,1-.233.458,53.224,53.224,0,0,0-25.786,18.8.371.371,0,0,1-.291.145Z" transform="translate(-124.444 -176.791)" fill="#fff"/>
      <path id="Path_41776" data-name="Path 41776" d="M91.609,184.477H86.134a.364.364,0,0,1,0-.727h5.476a.364.364,0,0,1,0,.727Z" transform="translate(-64.9 -177.278)" fill="#fff"/>
      <path id="Path_41777" data-name="Path 41777" d="M62.044,202.111a.364.364,0,0,1-.364-.364V184.114a.364.364,0,0,1,.364-.364H74.806a.371.371,0,0,1,.364.364.364.364,0,0,1-.364.364h-12.4v17.249a.364.364,0,0,1-.364.385Z" transform="translate(-58.328 -177.278)" fill="#fff"/>
      <path id="Path_41778" data-name="Path 41778" d="M234.811,184.477h-6.377a.364.364,0,0,1-.364-.364.371.371,0,0,1,.364-.364h6.377a.371.371,0,0,1,.364.364.364.364,0,0,1-.364.364Z" transform="translate(-103.723 -177.278)" fill="#fff"/>
      <path id="Path_41779" data-name="Path 41779" d="M195.453,204.173a.284.284,0,0,1-.131,0,.356.356,0,0,1-.211-.465l7.359-19.677a.371.371,0,0,1,.342-.24h10.253a.364.364,0,1,1,0,.727h-10l-7.272,19.445A.356.356,0,0,1,195.453,204.173Z" transform="translate(-94.724 -177.289)" fill="#fff"/>
    </g>
    <g id="freepik--Plant--inject-3" transform="translate(154.388 283.422)">
      <path id="Path_41780" data-name="Path 41780" d="M226.78,392.315s.851-4.29,4.181-5.214a14.156,14.156,0,0,0,4.618-1.942S234.554,391.785,226.78,392.315Z" transform="translate(-216.259 -373.498)" fill="#407bff"/>
      <g id="Group_56042" data-name="Group 56042" transform="translate(10.521 11.662)" clip-path="url(#clip-path)">
        <path id="Path_41781" data-name="Path 41781" d="M226.78,392.315s.851-4.29,4.181-5.214a14.156,14.156,0,0,0,4.618-1.942S234.554,391.785,226.78,392.315Z" transform="translate(-226.78 -385.16)" fill="#484848" opacity="0.2"/>
      </g>
      <path id="Path_41783" data-name="Path 41783" d="M226.833,393.239a.255.255,0,0,1-.16-.058.233.233,0,0,1,0-.335,16.507,16.507,0,0,1,6.159-4.283.236.236,0,1,1,.182.436,16.086,16.086,0,0,0-5.985,4.159A.233.233,0,0,1,226.833,393.239Z" transform="translate(-216.211 -374.421)" fill="#407bff"/>
      <path id="Path_41784" data-name="Path 41784" d="M223.131,394.011s.255-6.835-4.472-9.453-6.334-4.618-6.334-4.618S211.489,390.4,223.131,394.011Z" transform="translate(-212.312 -372.074)" fill="#4170da"/>
      <path id="Path_41786" data-name="Path 41786" d="M223.217,395.2a.225.225,0,0,1-.2-.124,29.6,29.6,0,0,0-8.792-9.555.24.24,0,1,1,.276-.393,30.134,30.134,0,0,1,8.93,9.715.24.24,0,0,1-.095.327.306.306,0,0,1-.116.029Z" transform="translate(-212.805 -373.479)" fill="#fff"/>
      <path id="Path_41787" data-name="Path 41787" d="M226.4,396.255l-.727-.138a45.18,45.18,0,0,0-.058-17.089l.727-.138a45.885,45.885,0,0,1,.058,17.365Z" transform="translate(-215.94 -371.788)" fill="#407bff"/>
      <path id="Path_41788" data-name="Path 41788" d="M223.421,370.924c.145.836,1.345,3.687,2.182,3.541s.989-3.236.844-4.072a1.536,1.536,0,0,0-3.025.531Z" transform="translate(-215.336 -369.123)" fill="#01a044"/>
      <path id="Path_41789" data-name="Path 41789" d="M228.717,382.549c-.145-.836-1.345-3.687-2.182-3.541s-.989,3.236-.844,4.072a1.536,1.536,0,0,0,3.025-.531Z" transform="translate(-215.949 -371.818)" fill="#01a044"/>
      <path id="Path_41790" data-name="Path 41790" d="M219.834,379.847c.836-.145,3.687-1.345,3.541-2.182s-3.236-.989-4.072-.844a1.536,1.536,0,1,0,.531,3.025Z" transform="translate(-213.873 -371.21)" fill="#01a044"/>
      <path id="Path_41791" data-name="Path 41791" d="M231.459,374.511c-.836.145-3.687,1.345-3.541,2.181s3.236.989,4.072.844a1.536,1.536,0,0,0-.531-3.025Z" transform="translate(-216.568 -370.587)" fill="#01a044"/>
      <path id="Path_41792" data-name="Path 41792" d="M219.756,374.624c.727.487,3.556,1.658,4.043.967s-1.585-2.989-2.276-3.476a1.534,1.534,0,1,0-1.767,2.509Z" transform="translate(-214.165 -369.863)" fill="#01a044"/>
      <path id="Path_41793" data-name="Path 41793" d="M231.726,379.367c-.727-.487-3.556-1.658-4.043-.967s1.585,2.989,2.276,3.476a1.534,1.534,0,1,0,1.767-2.509Z" transform="translate(-216.485 -371.596)" fill="#01a044"/>
      <path id="Path_41794" data-name="Path 41794" d="M223.534,382.816c.487-.727,1.658-3.556.967-4.043s-2.989,1.585-3.476,2.276a1.534,1.534,0,0,0,2.509,1.767Z" transform="translate(-214.613 -371.736)" fill="#01a044"/>
      <path id="Path_41795" data-name="Path 41795" d="M228.277,370.876c-.487.727-1.658,3.556-.967,4.043s2.989-1.585,3.476-2.276a1.534,1.534,0,0,0-2.509-1.767Z" transform="translate(-216.346 -369.423)" fill="#01a044"/>
      <path id="Path_41796" data-name="Path 41796" d="M224.18,377.37a1.818,1.818,0,1,0,1.454-2.1,1.818,1.818,0,0,0-1.454,2.1Z" transform="translate(-215.542 -370.791)" fill="#407bff"/>
      <path id="Path_41797" data-name="Path 41797" d="M224.18,377.37a1.818,1.818,0,1,0,1.454-2.1,1.818,1.818,0,0,0-1.454,2.1Z" transform="translate(-215.542 -370.791)" fill="#fff" opacity="0.8"/>
      <path id="Path_41798" data-name="Path 41798" d="M227.72,411.371h-10.05L215.3,401.78h14.8Z" transform="translate(-213.127 -378.033)" fill="#263238"/>
      <path id="Path_41799" data-name="Path 41799" d="M228.792,412.82v2.661h-1.971v-.5h-1.847v.5H221.63v-.5h-1.854v.5H218.03V412.82Z" transform="translate(-213.872 -381.045)" fill="#263238"/>
    </g>
    <g id="freepik--character-4--inject-3" transform="translate(248.761 173.687)">
      <path id="Path_41800" data-name="Path 41800" d="M370.256,279.228h3.687a88.435,88.435,0,0,0,.509-15.692c-.5-8.217.88-8.726-2.116-13.729a4.632,4.632,0,0,0-1.389-1.607,1.92,1.92,0,0,0-2.029-.109C368.322,248.447,370.314,268.117,370.256,279.228Z" transform="translate(-349.381 -226.302)" fill="#263238"/>
      <g id="Group_56044" data-name="Group 56044" transform="translate(19.426 21.55)" opacity="0.1">
        <path id="Path_41801" data-name="Path 41801" d="M370.256,279.228h3.687a88.435,88.435,0,0,0,.509-15.692c-.5-8.217.88-8.726-2.116-13.729a4.632,4.632,0,0,0-1.389-1.607,1.92,1.92,0,0,0-2.029-.109C368.322,248.447,370.314,268.117,370.256,279.228Z" transform="translate(-368.807 -247.852)"/>
      </g>
      <path id="Path_41802" data-name="Path 41802" d="M405.6,344.7l1.673,8.632,4.181-.1-.8-9.133Z" transform="translate(-359.419 -252.561)" fill="#ebb376"/>
      <path id="Path_41803" data-name="Path 41803" d="M414.115,356.364a.1.1,0,0,1-.065-.087.087.087,0,0,1,.051-.095c.065,0,1.563-.727,2.232-.473a.516.516,0,0,1,.284.254.371.371,0,0,1,0,.422,1.767,1.767,0,0,1-1.229.2A7.191,7.191,0,0,1,414.115,356.364Zm.327-.1c.727.16,1.782.247,1.992,0,0-.036.065-.087,0-.218a.262.262,0,0,0-.174-.153.537.537,0,0,0-.182-.036A4.406,4.406,0,0,0,414.442,356.262Z" transform="translate(-361.724 -255.714)" fill="#407bff"/>
      <path id="Path_41804" data-name="Path 41804" d="M414.056,355.964a.139.139,0,0,1-.036-.095,2.8,2.8,0,0,1,.778-1.52.727.727,0,0,1,.553-.124c.262.051.334.2.334.305.051.465-1.011,1.265-1.52,1.454h-.044A.1.1,0,0,1,414.056,355.964Zm1.214-1.556a.538.538,0,0,0-.349.087,2.29,2.29,0,0,0-.647,1.207c.531-.255,1.236-.887,1.236-1.171,0,0,0-.095-.182-.124Z" transform="translate(-361.716 -255.32)" fill="#407bff"/>
      <path id="Path_41805" data-name="Path 41805" d="M411.4,355.642l-4.458-.393a.371.371,0,0,0-.378.247l-1.12,3.556a.6.6,0,0,0,.378.727h.124c1.614.116,3.047.153,5.047.335,2.363.211,1.738.444,4.509.727,1.672.167,2.182-1.7,1.454-1.862-3.207-.727-3.461-1.7-4.61-2.974A1.454,1.454,0,0,0,411.4,355.642Z" transform="translate(-359.369 -255.602)" fill="#263238"/>
      <path id="Path_41806" data-name="Path 41806" d="M406.669,350.216l4.465-.625-.48-5.49-5.054.6Z" transform="translate(-359.419 -252.561)" opacity="0.1"/>
      <path id="Path_41807" data-name="Path 41807" d="M367.41,284s26.331.058,27.589,7.272,3.069,39.995,3.069,39.995l-6.1.9s-4.3-18.136-7.017-36.671c0,0-27.916,2.472-29.378-1.411s-.313-9.73-.313-9.73Z" transform="translate(-345.568 -236.164)" fill="#407bff"/>
      <path id="Path_41808" data-name="Path 41808" d="M367.41,284s26.331.058,27.589,7.272,3.069,39.995,3.069,39.995l-6.1.9s-4.3-18.136-7.017-36.671c0,0-27.916,2.472-29.378-1.411s-.313-9.73-.313-9.73Z" transform="translate(-345.568 -236.164)" opacity="0.3" style="mix-blend-mode: normal;isolation: isolate"/>
      <path id="Path_41809" data-name="Path 41809" d="M404.855,349.96l7.475-1.069-.109-2.691-7.992.953Z" transform="translate(-359.045 -253.134)" fill="#407bff"/>
      <path id="Path_41810" data-name="Path 41810" d="M378.507,293.716v.2a18.488,18.488,0,0,0-.2-2.647c-.844-4.836-13.46-6.625-18.638-7.155l-6.29.189s-.974,4.952.262,8.224S378.507,293.716,378.507,293.716Z" transform="translate(-345.073 -236.194)" opacity="0.4"/>
      <path id="Path_41811" data-name="Path 41811" d="M364.967,257.478l-1.454,11.838c.545,1.134,1.811,3.912.989,3.9-1.025,0-7.41,4.363-7.41,4.363l-11.526-4.6.793-3.25c-.233-1.025-1.273-7.083-2.182-12.413l-.08-.487-.894-5.708-.32-2.043h0c-.095-.88-.327-1.6-.4-2.08a.727.727,0,0,1,0-.335,1.011,1.011,0,0,1,.364-.654l.044-.036.225-.175c4.2-3.032,15.067-.24,18.252.589.444.109,1.316.654,1.309,1.113l.56,1.643,1.185,3.49c.116.342.211.691.3,1.047a11.017,11.017,0,0,1,.247,3.8Z" transform="translate(-342.194 -225.364)" fill="#263238"/>
      <path id="Path_41812" data-name="Path 41812" d="M385.42,345.564l.284,8.624,4.181-.109.6-9.119Z" transform="translate(-353.913 -252.795)" fill="#ebb376"/>
      <path id="Path_41813" data-name="Path 41813" d="M391.89,357.526a.087.087,0,0,1-.051-.095.109.109,0,0,1,.08-.087c.065,0,1.68-.356,2.276.036a.494.494,0,0,1,.218.305.364.364,0,0,1-.124.407,1.709,1.709,0,0,1-1.243-.073,6.746,6.746,0,0,1-1.156-.494Zm.342,0c.727.327,1.68.633,1.942.436.036,0,.08-.065.051-.2a.262.262,0,0,0-.138-.189.93.93,0,0,0-.175-.08,4.5,4.5,0,0,0-1.68.007Z" transform="translate(-355.664 -256.134)" fill="#407bff"/>
      <path id="Path_41814" data-name="Path 41814" d="M391.845,357.07a.087.087,0,0,1,0-.095,2.637,2.637,0,0,1,1.091-1.316.727.727,0,0,1,.56,0c.247.109.284.262.262.371-.058.465-1.265,1.011-1.8,1.069h-.044A.065.065,0,0,1,391.845,357.07Zm1.52-1.243a.5.5,0,0,0-.356,0,2.306,2.306,0,0,0-.9,1.033c.574-.131,1.4-.6,1.454-.865,0,0,0-.1-.145-.167Z" transform="translate(-355.662 -255.699)" fill="#407bff"/>
      <path id="Path_41815" data-name="Path 41815" d="M389.107,356.21l-4.261-1.367a.349.349,0,0,0-.414.16l-1.883,3.221a.589.589,0,0,0,.211.814l.109.058c1.549.465,2.909.814,4.85,1.454,2.254.727,1.6.814,4.239,1.7,1.592.531,2.465-1.193,1.818-1.5-2.974-1.389-3-2.429-3.839-3.919A1.454,1.454,0,0,0,389.107,356.21Z" transform="translate(-353.107 -255.487)" fill="#263238"/>
      <path id="Path_41816" data-name="Path 41816" d="M358,285s23.393,1.454,24.651,8.726-2.763,38.969-2.763,38.969l-6.1.414s-1.316-21.466-1.178-35.137c0,0-24.986,1.527-26.447-2.349s-.305-10.224-.305-10.224Z" transform="translate(-343.001 -236.437)" fill="#263238"/>
      <path id="Path_41817" data-name="Path 41817" d="M357.292,284.648s23.393,1.454,24.651,8.726-2.763,38.969-2.763,38.969l-6.1.414s-1.316-21.466-1.178-35.137c0,0-21.532,2.3-26.644-1.236-5.621-3.883.255-12.675.255-12.675Z" transform="translate(-342.292 -236.085)" fill="#407bff"/>
      <path id="Path_41818" data-name="Path 41818" d="M357.292,284.648s23.393,1.454,24.651,8.726-2.763,38.969-2.763,38.969l-6.1.414s-1.316-21.466-1.178-35.137c0,0-21.532,2.3-26.644-1.236-5.621-3.883.255-12.675.255-12.675Z" transform="translate(-342.292 -236.085)" opacity="0.2" style="mix-blend-mode: normal;isolation: isolate"/>
      <path id="Path_41819" data-name="Path 41819" d="M383.3,350.923l7.5-.48.247-2.923-8.239.575Z" transform="translate(-353.201 -253.494)" fill="#407bff"/>
      <path id="Path_41820" data-name="Path 41820" d="M354.533,234.41c.291,2.378.509,5.817-1.243,7.272,2.131,1.454,1.607,3.447,3.127,5.5.225.3,3.054.124,3.352-.109.058-.044.524.08.56,0,2.051-3.141.255-4.894.255-4.894-1.367.676-1.323-1.716-.727-3.5Z" transform="translate(-345.147 -222.635)" fill="#ebb376"/>
      <path id="Path_41821" data-name="Path 41821" d="M360.45,241.894a7.183,7.183,0,0,1,.364-2.487l-.953-.778L356.952,237C356.269,238.585,358.465,241.239,360.45,241.894Z" transform="translate(-346.112 -223.341)" opacity="0.2" style="mix-blend-mode: normal;isolation: isolate"/>
      <path id="Path_41822" data-name="Path 41822" d="M365.257,220.59c4.239,3.527,4.45,6.545,4.479,8.632a22.8,22.8,0,0,1-1.033,6.152,11.078,11.078,0,0,1-4.843-6.821A10.391,10.391,0,0,1,365.257,220.59Z" transform="translate(-347.959 -218.864)" fill="#263238"/>
      <path id="Path_41823" data-name="Path 41823" d="M354.991,225.065c-.669,3.883-1.033,5.527.436,7.912,2.182,3.636,7.119,3.636,8.93,0,1.622-3.243,2.48-9.046-.931-11.453a5.374,5.374,0,0,0-8.435,3.527Z" transform="translate(-345.452 -218.845)" fill="#ebb376"/>
      <path id="Path_41824" data-name="Path 41824" d="M366.246,231.71a8.682,8.682,0,0,0,.64,2.254,1.367,1.367,0,0,1-1.156-.058Z" transform="translate(-348.541 -221.898)" fill="#ba4d3c"/>
      <path id="Path_41825" data-name="Path 41825" d="M364.481,236.2a3.359,3.359,0,0,0,.473.058.095.095,0,0,0,0-.182,2.552,2.552,0,0,1-2.022-1.091.1.1,0,0,0-.167.095,2.669,2.669,0,0,0,1.716,1.12Z" transform="translate(-347.729 -222.777)" fill="#263238"/>
      <path id="Path_41826" data-name="Path 41826" d="M362.683,226.953a.189.189,0,0,0,.218,0,2.24,2.24,0,0,1,1.782-.095.189.189,0,1,0,.131-.349,2.669,2.669,0,0,0-2.123.131.2.2,0,0,0-.051.262.138.138,0,0,0,.044.051Z" transform="translate(-347.69 -220.436)" fill="#263238"/>
      <path id="Path_41827" data-name="Path 41827" d="M369.58,228.627a.189.189,0,0,0,.305-.2,1.862,1.862,0,0,0-1.193-1.236.182.182,0,0,0-.225.131.189.189,0,0,0,.131.233,1.513,1.513,0,0,1,.931,1A.189.189,0,0,0,369.58,228.627Z" transform="translate(-349.286 -220.662)" fill="#263238"/>
      <path id="Path_41828" data-name="Path 41828" d="M355.14,247.24s4.414,3.09,6.188.073v2.909l-.036,3.512-.582.814-1.113-.364-1.3-2.421-.531-.858Z" transform="translate(-345.652 -226.135)" fill="#263238"/>
      <path id="Path_41829" data-name="Path 41829" d="M352.9,243.82s4.879,6.77,6.123,8.879.414-8,.414-8,.727-.778,1.992.385c0,0,1.4,4.494,1.243,4.858s-1.811.516-1.811.516.96,1.12.771,1.76a3.636,3.636,0,0,1-1.971,1.8c-.582.073-4.472-1.854-4.683-2.4s1-1.323,1-1.323-2.792.109-3.178-.909-1.854-5.607-1.854-5.607a1.265,1.265,0,0,1,1.956.036Z" transform="translate(-344.506 -225.071)" fill="#407bff"/>
      <path id="Path_41830" data-name="Path 41830" d="M352.9,243.82s4.879,6.77,6.123,8.879.414-8,.414-8,.727-.778,1.992.385c0,0,1.4,4.494,1.243,4.858s-1.811.516-1.811.516.96,1.12.771,1.76a3.636,3.636,0,0,1-1.971,1.8c-.582.073-4.472-1.854-4.683-2.4s1-1.323,1-1.323-2.792.109-3.178-.909-1.854-5.607-1.854-5.607a1.265,1.265,0,0,1,1.956.036Z" transform="translate(-344.506 -225.071)" fill="#fff" opacity="0.5"/>
      <path id="Path_41831" data-name="Path 41831" d="M352.85,230.044a2.909,2.909,0,0,0,1.127,1.891c.814.6,1.585-.044,1.643-1s-.284-2.182-1.243-2.429a1.294,1.294,0,0,0-1.527,1.534Z" transform="translate(-345.02 -221.018)" fill="#ebb376"/>
      <rect id="Rectangle_19591" data-name="Rectangle 19591" width="5.228" height="12.304" rx="1.73" transform="translate(31.073 10.029) rotate(8.63)" fill="#263238"/>
      <path id="Path_41832" data-name="Path 41832" d="M378.75,246.488l1.92-1.142s.764-2.458,1.563-2.705a22.015,22.015,0,0,1,1.9-1.207c1-.48,1.52.218,1.513,1.753s.553,2.429-.953,3.149-2.182,1-2.182,1l-2.531,1.905Z" transform="translate(-352.093 -224.51)" fill="#ebb376"/>
      <path id="Path_41833" data-name="Path 41833" d="M352.475,253.752a40.006,40.006,0,0,1-3.527,2.487,14.726,14.726,0,0,1-4.661,2.072l-.894-5.708a2.743,2.743,0,0,1-.313-.465V250Z" transform="translate(-342.362 -226.888)" opacity="0.2"/>
      <path id="Path_41834" data-name="Path 41834" d="M370.385,250.405l-.887.567c-1.753,1.1-3.294,2.029-4.836,2.909a56.353,56.353,0,0,1-7.9,3.527,75.251,75.251,0,0,1-8.064-2.414c-.145-.065-.3-.124-.444-.2a19.184,19.184,0,0,1-3.512-1.883,7.381,7.381,0,0,1-1.6-1.556,2.742,2.742,0,0,1-.313-.465,4.531,4.531,0,0,1-.516-1.069,4.116,4.116,0,0,1,.109-2.96,2.911,2.911,0,0,1,.407-.727,1.207,1.207,0,0,1,.087-.116l.138-.058c3.2-1.454,5.192-.378,6.879,1.978,2.225.669,4.363,2.269,7.708,2.262a16.871,16.871,0,0,0,5.534-.894c1.171-.385,2.516-.909,4.2-1.636l1.236-.538.291.356a10.254,10.254,0,0,1,1.4,2.574A1.455,1.455,0,0,1,370.385,250.405Z" transform="translate(-342.092 -225.606)" fill="#263238"/>
      <path id="Path_41835" data-name="Path 41835" d="M370.385,250.405l-.887.567c-1.753,1.1-3.294,2.029-4.836,2.909a56.353,56.353,0,0,1-7.9,3.527,75.251,75.251,0,0,1-8.064-2.414c-.145-.065-.3-.124-.444-.2a19.184,19.184,0,0,1-3.512-1.883,7.381,7.381,0,0,1-1.6-1.556,2.742,2.742,0,0,1-.313-.465,4.531,4.531,0,0,1-.516-1.069,4.116,4.116,0,0,1,.109-2.96,2.911,2.911,0,0,1,.407-.727,1.207,1.207,0,0,1,.087-.116l.138-.058c3.2-1.454,5.192-.378,6.879,1.978,2.225.669,4.363,2.269,7.708,2.262a16.871,16.871,0,0,0,5.534-.894c1.171-.385,2.516-.909,4.2-1.636l1.236-.538.291.356a10.254,10.254,0,0,1,1.4,2.574A1.455,1.455,0,0,1,370.385,250.405Z" transform="translate(-342.092 -225.606)" fill="#fff" opacity="0.1"/>
      <path id="Path_41836" data-name="Path 41836" d="M380.6,250.964l-1.1,1.353L376.7,247.91l1.4-1.04Z" transform="translate(-351.534 -226.034)" fill="#407bff"/>
      <path id="Path_41837" data-name="Path 41837" d="M380.6,250.964l-1.1,1.353L376.7,247.91l1.4-1.04Z" transform="translate(-351.534 -226.034)" fill="#fff" opacity="0.5"/>
      <path id="Path_41838" data-name="Path 41838" d="M359.623,219.026c-2.611-2.022-6.9.058-8.784,2.778a7.737,7.737,0,0,0,.494,9.2c1.236,1.418,3.105,1.971,4.807,2.763a10.973,10.973,0,0,1,1-6.886,11.1,11.1,0,0,1,5.09-4.85,16.833,16.833,0,0,0-2.611-3Z" transform="translate(-344.129 -218.217)" fill="#263238"/>
      <path id="Path_41839" data-name="Path 41839" d="M363.4,219.33c1.694,1.782,2.683,2.429,3.12,3.229,1.454,1.033,2.618,4.45,3.163,6.13C370.185,225.482,367.392,219.643,363.4,219.33Z" transform="translate(-347.906 -218.521)" fill="#263238"/>
      <path id="Path_41840" data-name="Path 41840" d="M368.1,231.11c-.073.313.036.6.24.654s.429-.167.5-.48-.036-.6-.233-.647S368.182,230.8,368.1,231.11Z" transform="translate(-349.182 -221.604)" fill="#263238"/>
      <path id="Path_41841" data-name="Path 41841" d="M369.367,230.761l-.727-.131h0v.335A.654.654,0,0,0,369.367,230.761Z" transform="translate(-349.335 -221.603)" fill="#263238"/>
      <path id="Path_41842" data-name="Path 41842" d="M363.262,229.967c-.073.313.036.6.24.647s.429-.16.5-.473,0-.6-.24-.654S363.334,229.654,363.262,229.967Z" transform="translate(-347.862 -221.29)" fill="#263238"/>
      <path id="Path_41843" data-name="Path 41843" d="M364.587,229.611l-.727-.131h0v.335a.647.647,0,0,0,.727-.2Z" transform="translate(-348.031 -221.29)" fill="#263238"/>
    </g>
    <g id="freepik--character-3--inject-3" transform="translate(166.414 166.63)">
      <path id="Path_41844" data-name="Path 41844" d="M295.6,328.3c-8,9.73-26.971,27.342-26.971,27.342l-3.636-2.392s13.86-23.43,20.579-27.865c-5.657-8.981-24.07-40.911-24.07-40.911l13.089-4.741s14.813,28.425,21.684,41.8a6.188,6.188,0,0,1-.676,6.77Z" transform="translate(-237.758 -227.942)" fill="#7f3e3b"/>
      <path id="Path_41845" data-name="Path 41845" d="M252.16,287.7s11.678,32.083,16.092,45.514c3.89,11.889,15.656,41.035,15.656,41.035l4.2-1.454s-7.424-32.839-10.791-45.085c-3.076-11.249-10.726-45.23-10.726-45.23Z" transform="translate(-235.21 -228.692)" fill="#7f3e3b"/>
      <path id="Path_41846" data-name="Path 41846" d="M269.38,384.019c.633,3.4,1.1,3.883,2.829,6.886.378.647-1.294,1.491-2.487.167-1.985-2.182-2.007-2.269-3.694-4.116-1.454-1.6-3.178-3.36-4.363-4.61a.791.791,0,0,1-.095-.124.633.633,0,0,1,.24-.858l3.447-1.963a.378.378,0,0,1,.465.073l3.185,3.52A2.043,2.043,0,0,1,269.38,384.019Z" transform="translate(-237.755 -255.121)" fill="#263238"/>
      <path id="Path_41847" data-name="Path 41847" d="M271.471,385.3h0c.364.611,1.083,1.643,1.694,1.716a.567.567,0,0,0,.531-.2.334.334,0,0,0,.087-.313c-.138-.582-1.963-1.287-2.182-1.36a.1.1,0,0,0-.131.153Zm2.094,1.243h0a.1.1,0,0,1-.036.116.371.371,0,0,1-.327.131c-.356-.036-.865-.538-1.389-1.338C272.54,385.748,273.448,386.213,273.565,386.54Z" transform="translate(-240.471 -256.697)" fill="#407bff"/>
      <path id="Path_41848" data-name="Path 41848" d="M271.48,385.084a.073.073,0,0,0,.051.051c.531.233,1.92.371,2.232,0a.371.371,0,0,0-.044-.48.763.763,0,0,0-.516-.305,2.988,2.988,0,0,0-1.694.625.1.1,0,0,0,0,.095Zm2.131-.218a.109.109,0,0,1,0,.124c-.189.233-1.207.211-1.8,0a2.406,2.406,0,0,1,1.374-.465.523.523,0,0,1,.378.218A.284.284,0,0,1,273.611,384.866Z" transform="translate(-240.481 -256.485)" fill="#407bff"/>
      <path id="Path_41849" data-name="Path 41849" d="M282.138,247.753c-1.411-2.262-9.642-6.326-10.282-6.683l-2.276,5.287c3.28,1.905,8.123,4.538,7.832,6.392Z" transform="translate(-239.962 -217.394)" fill="#7f3e3b"/>
      <path id="Path_41850" data-name="Path 41850" d="M273.015,240.133c-2.872-1.607-9.7-6.545-12.907-3.316,0,0-1.927,4.319,2.909,7.2,1.978,1.178,5.243,3.28,6.545,4.05Z" transform="translate(-237.274 -215.941)" fill="#407bff"/>
      <g id="Group_56045" data-name="Group 56045" transform="translate(22.454 19.804)" opacity="0.2" style="mix-blend-mode: normal;isolation: isolate">
        <path id="Path_41851" data-name="Path 41851" d="M273.015,240.133c-2.872-1.607-9.7-6.545-12.907-3.316,0,0-1.927,4.319,2.909,7.2,1.978,1.178,5.243,3.28,6.545,4.05Z" transform="translate(-259.729 -235.745)"/>
      </g>
      <g id="freepik--freepik--Character--inject-452--inject-3" transform="translate(0 19.801)">
        <path id="Path_41852" data-name="Path 41852" d="M300,406.137c1.193.553,3.636.771,6.785.5.691-.051.967,1.585-.625,2.072s-5.09,1.454-6.254,1.789c-1.869.574-2.909,1.025-4.414,1.454a.422.422,0,0,1-.131,0,.574.574,0,0,1-.625-.531l-.291-3.636a.342.342,0,0,1,.247-.356l4.618-1.454a1.025,1.025,0,0,1,.691.16Z" transform="translate(-246.744 -282.184)" fill="#263238"/>
        <path id="Path_41853" data-name="Path 41853" d="M239.2,240.409c.516-.24,1.047-.48,1.571-.727a78.107,78.107,0,0,1,8.479-3.025q.567-.153,1.069-.262c1.222-.269,2.458-.48,3.694-.633a2.305,2.305,0,0,1,2.276,1.083c1.505,2.487,4.945,9.81,10.966,30.927l-19.954,7.2c-.625-1.5-1.8-6.1-3.818-12.013-.865-2.523-1.883-5.272-3.09-8.13a89.321,89.321,0,0,0-6-11.86A52.768,52.768,0,0,1,239.2,240.409Z" transform="translate(-230.361 -235.741)" fill="#407bff"/>
        <path id="Path_41854" data-name="Path 41854" d="M239.2,240.409c.516-.24,1.047-.48,1.571-.727a78.107,78.107,0,0,1,8.479-3.025q.567-.153,1.069-.262c1.222-.269,2.458-.48,3.694-.633a2.305,2.305,0,0,1,2.276,1.083c1.505,2.487,4.945,9.81,10.966,30.927l-19.954,7.2c-.625-1.5-1.8-6.1-3.818-12.013-.865-2.523-1.883-5.272-3.09-8.13a89.321,89.321,0,0,0-6-11.86A52.768,52.768,0,0,1,239.2,240.409Z" transform="translate(-230.361 -235.741)" fill="#f8425f" opacity="0.2" style="mix-blend-mode: normal;isolation: isolate"/>
        <path id="Path_41855" data-name="Path 41855" d="M238.47,252.512c1.127,2.182,2.131,4.4,3.04,6.545.24.574.473,1.142.727,1.709a16.725,16.725,0,0,0,0-9.555Z" transform="translate(-231.475 -239.962)" opacity="0.2" style="mix-blend-mode: normal;isolation: isolate"/>
        <path id="Path_41856" data-name="Path 41856" d="M269.63,282.14s.284.138,6.217,22.732l8.472,17.35,13.54-5.359L276.865,279.18Z" transform="translate(-239.976 -247.593)" fill="#407bff"/>
        <g id="Group_56046" data-name="Group 56046" transform="translate(29.654 31.587)" opacity="0.1">
          <path id="Path_41857" data-name="Path 41857" d="M269.63,282.14s.284.138,6.217,22.732l8.472,17.35,13.54-5.359L276.865,279.18Z" transform="translate(-269.63 -279.18)" fill="#fff"/>
        </g>
        <path id="Path_41858" data-name="Path 41858" d="M282.908,324.112c-3.49-6.77-7.461-14.733-10.908-20.135l1.353-2.276C277.367,304.42,281.257,317.189,282.908,324.112Z" transform="translate(-240.622 -253.737)" opacity="0.2" style="mix-blend-mode: normal;isolation: isolate"/>
        <path id="Path_41859" data-name="Path 41859" d="M252.16,287.7l6.159,23.444c2.829,12.915,4.719,16.878,4.719,16.878l14.049-4.1-5.7-22.637c-3.076-11.206-4.792-18.8-4.792-18.8Z" transform="translate(-235.21 -248.493)" fill="#407bff"/>
        <g id="Group_56047" data-name="Group 56047" transform="translate(16.95 33.987)" opacity="0.1">
          <path id="Path_41860" data-name="Path 41860" d="M252.16,287.7l6.159,23.444c2.829,12.915,4.719,16.878,4.719,16.878l14.049-4.1-5.7-22.637c-3.076-11.206-4.792-18.8-4.792-18.8Z" transform="translate(-252.16 -282.48)" fill="#fff"/>
        </g>
        <path id="Path_41861" data-name="Path 41861" d="M302.714,406.086a1.192,1.192,0,0,0,.669-.422.553.553,0,0,0,.036-.553.284.284,0,0,0-.233-.2c-.487-.087-1.454,1.04-1.593,1.171a.087.087,0,0,0,0,.1.1.1,0,0,0,.087.051A4.6,4.6,0,0,0,302.714,406.086Zm.32-.96a.24.24,0,0,1,.116,0,.116.116,0,0,1,.087.087.364.364,0,0,1,0,.364,1.891,1.891,0,0,1-1.323.487,3.825,3.825,0,0,1,1.142-.9Z" transform="translate(-248.692 -281.893)" fill="#407bff"/>
        <path id="Path_41862" data-name="Path 41862" d="M301.67,406.013h.036c.327-.335.836-1.4.618-1.8a.3.3,0,0,0-.356-.145.524.524,0,0,0-.349.225,2.909,2.909,0,0,0-.073,1.672.1.1,0,0,0,.065.065Zm.291-1.767H302c.109-.036.145,0,.153.051.131.233-.16,1.011-.465,1.454a2.283,2.283,0,0,1,.087-1.323.32.32,0,0,1,.182-.182Z" transform="translate(-248.659 -281.66)" fill="#407bff"/>
        <path id="Path_41863" data-name="Path 41863" d="M233.16,248.73c-.3.727-.531,1.389-.771,2.08s-.458,1.367-.669,2.065c-.422,1.382-.8,2.778-1.113,4.2a39.95,39.95,0,0,0-1.047,8.857v.495a3.221,3.221,0,0,0,.065.524,5.7,5.7,0,0,0,.255.916l.16.407c.051.131.131.233.175.356l.182.349.2.305a12.883,12.883,0,0,0,1.643,2.022,25.913,25.913,0,0,0,3.52,2.909,46.7,46.7,0,0,0,7.6,4.276l1.491-2.574c-1.033-.829-2.131-1.687-3.17-2.545s-2.072-1.738-3.032-2.64a25.882,25.882,0,0,1-2.611-2.741,7.46,7.46,0,0,1-.858-1.3l-.065-.145-.036-.116v-.124a.3.3,0,0,0,0-.073v-.095h0v-.044a36.357,36.357,0,0,1,.531-3.767c.255-1.273.538-2.56.887-3.832s.727-2.552,1.113-3.825c.2-.64.4-1.273.618-1.905l.633-1.84Z" transform="translate(-229.044 -239.285)" fill="#7f3e3b"/>
        <path id="Path_41864" data-name="Path 41864" d="M239.954,250.7c-.727,4.85-1.912,9.991-1.912,9.991l-9.192-3.949s.654-9.642,4.029-11.388C236.958,243.251,240.768,245.425,239.954,250.7Z" transform="translate(-228.85 -238.147)" fill="#407bff"/>
        <path id="Path_41865" data-name="Path 41865" d="M239.954,250.7c-.727,4.85-1.912,9.991-1.912,9.991l-9.192-3.949s.654-9.642,4.029-11.388C236.958,243.251,240.768,245.425,239.954,250.7Z" transform="translate(-228.85 -238.147)" opacity="0.2" style="mix-blend-mode: normal;isolation: isolate"/>
        <path id="Path_41866" data-name="Path 41866" d="M247.74,287.721c.582,1.782,4.021,1.069,4.021,1.069l.051-5.09-3.636,1.658Z" transform="translate(-234.004 -248.826)" fill="#7f3e3b"/>
        <path id="Path_41867" data-name="Path 41867" d="M253.334,283.75l-.044,5.061,3.032-.1.233-4.181Z" transform="translate(-235.518 -248.839)" fill="#7f3e3b"/>
      </g>
      <path id="Path_41868" data-name="Path 41868" d="M243.71,237.81l.415.269c.538.349,1.076.727,1.636,1.025h0a22.368,22.368,0,0,0,5.461.96,7.054,7.054,0,0,0,1.542-1.585,2.356,2.356,0,0,0-.08-1.229,1.549,1.549,0,0,0-.276-.5,3.091,3.091,0,0,1-1.927-1.062,1.877,1.877,0,0,1-.225-.327,5.636,5.636,0,0,1-.48-3.323L243.71,228.4C244.648,230.9,245.913,235.817,243.71,237.81Z" transform="translate(-232.904 -213.938)" fill="#7f3e3b"/>
      <path id="Path_41869" data-name="Path 41869" d="M247.3,231.943c.327,1.222,2.538,3.367,3.4,2.232a8.633,8.633,0,0,1,0-1.563l-3.592-2.182A4.218,4.218,0,0,0,247.3,231.943Z" transform="translate(-233.83 -214.491)" opacity="0.2" style="mix-blend-mode: normal;isolation: isolate"/>
      <path id="Path_41870" data-name="Path 41870" d="M253.044,221.408l.625,1.629a10.819,10.819,0,0,0,2.821-.291,2.909,2.909,0,0,1-.676-1.542c.051-.684,1.062-.88,1.222-1.578s-.189-2.909-.807-2.974-4.327.044-4.327.044C249.284,218.048,253.044,221.408,253.044,221.408Z" transform="translate(-234.886 -210.727)" fill="#263238"/>
      <path id="Path_41871" data-name="Path 41871" d="M244.688,216.992a5.221,5.221,0,0,1,7.112-2.022c3.541,1.949,3.4,7.65,2.182,10.973a5.1,5.1,0,0,1-8.8,1.593c-1.687-2.182-1.367-4.407-1.149-8.232A5.149,5.149,0,0,1,244.688,216.992Z" transform="translate(-232.944 -210.093)" fill="#7f3e3b"/>
      <path id="Path_41872" data-name="Path 41872" d="M243.174,226.848l-.378-2.276,2.552,1.011s-1.251-2.909-1.018-4.254c.058-.676.785-.894.96-1.593s-.2-2.952-.814-2.981-3.738,0-3.738,0C238.12,218.1,243.174,226.848,243.174,226.848Z" transform="translate(-231.888 -210.757)" fill="#263238"/>
      <path id="Path_41873" data-name="Path 41873" d="M252.294,223.189c.2,0,.335.291.3.6s-.225.545-.429.524-.342-.3-.305-.611S252.1,223.168,252.294,223.189Z" transform="translate(-235.126 -212.516)" fill="#263238"/>
      <path id="Path_41874" data-name="Path 41874" d="M256.8,223.51c.2,0,.385.225.407.538s-.131.574-.334.589-.385-.233-.407-.545S256.6,223.517,256.8,223.51Z" transform="translate(-236.385 -212.603)" fill="#263238"/>
      <path id="Path_41875" data-name="Path 41875" d="M254.59,227.053a1.811,1.811,0,0,0,1.513-.1,11.4,11.4,0,0,1-1.171-2.821Z" transform="translate(-235.872 -212.773)" fill="#ba4d3c"/>
      <path id="Path_41876" data-name="Path 41876" d="M250.7,221.2h0a.182.182,0,0,1,0-.255,1.832,1.832,0,0,1,1.607-.458h0a.182.182,0,0,1,.124.225.189.189,0,0,1-.225.131,1.454,1.454,0,0,0-1.265.378.211.211,0,0,1-.16.044A.16.16,0,0,1,250.7,221.2Z" transform="translate(-234.797 -211.769)" fill="#263238"/>
      <path id="Path_41877" data-name="Path 41877" d="M257.757,221.607a1.454,1.454,0,0,0-1.127-.684h0a.2.2,0,0,1-.16-.16.182.182,0,0,1,.16-.2,1.811,1.811,0,0,1,1.454.851h0a.167.167,0,0,1-.058.233.1.1,0,0,1-.08,0,.174.174,0,0,1-.189-.036Z" transform="translate(-236.385 -211.799)" fill="#263238"/>
      <path id="Path_41878" data-name="Path 41878" d="M242.526,222.682c1.127.189,1.709,1.84,1.76,2.909.058,1.207-.727,2.087-1.731,1.411a3.825,3.825,0,0,1-1.549-2.269C240.722,223.635,241.406,222.493,242.526,222.682Z" transform="translate(-232.149 -212.372)" fill="#7f3e3b"/>
      <path id="Path_41879" data-name="Path 41879" d="M253.863,229.76a10.341,10.341,0,0,0-.414,1.389h-.255c-1.156-.08-1.665-.5-1.876-.938a1.454,1.454,0,0,1-.138-.691,1.338,1.338,0,0,1,.058-.4,5.563,5.563,0,0,0,2.232.625Z" transform="translate(-234.942 -214.134)" fill="#2e353a"/>
      <path id="Path_41880" data-name="Path 41880" d="M253.462,229.765l-.131.4a3.439,3.439,0,0,1-2.182-.625,1.338,1.338,0,0,1,.058-.4,5.563,5.563,0,0,0,2.254.625Z" transform="translate(-234.934 -214.139)" fill="#fff"/>
      <path id="Path_41881" data-name="Path 41881" d="M253.3,231.538c-1.156-.08-1.665-.5-1.876-.938a3.825,3.825,0,0,1,1.265.342,1.382,1.382,0,0,1,.611.6Z" transform="translate(-235.008 -214.538)" fill="#de5753"/>
      <path id="Path_41882" data-name="Path 41882" d="M253.15,216.138a26,26,0,0,0-13.227.6,3,3,0,0,1-2.356-3.156,5.132,5.132,0,0,1,2.7-3.447,13.562,13.562,0,0,1,4.887-1.549,11.741,11.741,0,0,1,5.257.793,6.629,6.629,0,0,1,3.8,2.683,3.265,3.265,0,0,1-1.062,4.079Z" transform="translate(-231.226 -208.511)" fill="#263238"/>
      <path id="Path_41883" data-name="Path 41883" d="M279.722,248.6l-13.482,6.93.036,2.843s14.049-2.771,15.642-4.945h0a3.636,3.636,0,0,0-1.251-4.13Z" transform="translate(-239.051 -219.449)" fill="#7f3e3b"/>
      <path id="Path_41884" data-name="Path 41884" d="M264.57,258.111l-2.08,1.011a2.756,2.756,0,0,0-1.389,1.542l-.945,2.581a.683.683,0,0,0,.305.814l1.622.88a.662.662,0,0,0,.858-.2l1.665-2.334,1.665-2.683S265.37,257.718,264.57,258.111Z" transform="translate(-237.381 -222.029)" fill="#7f3e3b"/>
      <path id="Path_41885" data-name="Path 41885" d="M268.621,260.361l-1.171.233-1.44-3.127,1.054-.487Z" transform="translate(-238.988 -221.735)" fill="#263238"/>
      <path id="Path_41886" data-name="Path 41886" d="M.654,0h1.28a.654.654,0,0,1,.654.654V.749H0V.654A.654.654,0,0,1,.654,0Z" transform="translate(26.173 35.723) rotate(-24.71)" fill="#263238"/>
    </g>
    <g id="freepik--character-2--inject-3" transform="translate(76.209 81.105)">
      <g id="freepik--group--inject-3" transform="translate(0 0)">
        <path id="Path_41887" data-name="Path 41887" d="M191.072,180.887,188.251,183l-4.872-5.381-3.541-3.912h-.007V173.7l3.658-2.385,3.25,4.109Z" transform="translate(-125.271 -112.838)" fill="#cb7a63"/>
        <path id="Path_41888" data-name="Path 41888" d="M193.474,182.173l-2.843,2.909a.356.356,0,0,0-.044.451l2.254,3.069a.676.676,0,0,0,.96.109l.051-.044c5.541-4.363,6.945-6.545,7.475-7.148,1.527-1.658,0-2.632-.618-2.232-2.909,1.818-4.283,2.283-5.759,2.4a3.251,3.251,0,0,0-1.476.487Z" transform="translate(-128.189 -114.989)" fill="#263238"/>
        <path id="Path_41889" data-name="Path 41889" d="M183.371,179.488l5.5-3.9-.836-2.043L181.72,177.7Z" transform="translate(-125.787 -113.446)" fill="#407bff"/>
        <path id="Path_41890" data-name="Path 41890" d="M183.371,179.488l5.5-3.9-.836-2.043L181.72,177.7Z" transform="translate(-125.787 -113.446)" fill="#fff" opacity="0.5"/>
        <path id="Path_41891" data-name="Path 41891" d="M197.7,180.34c-.24,0-.531.342-.793.727-.124.182-.247.371-.349.545s-.16.269-.218.385-.153.291-.167.327a.1.1,0,0,0,0,.116.1.1,0,0,0,.08,0,7.271,7.271,0,0,0,1.178-.669,1.629,1.629,0,0,0,.487-.458h0a1.571,1.571,0,0,0,.175-.349.553.553,0,0,0-.145-.5.305.305,0,0,0-.247-.124Zm.145.24a.356.356,0,0,1,.1.342.727.727,0,0,1-.182.327,1.911,1.911,0,0,1-.393.356,5.724,5.724,0,0,1-.727.444l-.182.095a5.627,5.627,0,0,1,.64-1.04c.138-.167.276-.334.429-.487a.385.385,0,0,1,.175-.08.138.138,0,0,1,.138.044Z" transform="translate(-129.724 -115.301)" fill="#407bff"/>
        <path id="Path_41892" data-name="Path 41892" d="M195.132,180.294a.727.727,0,0,0-.175.56.573.573,0,0,0,0,.182,2.909,2.909,0,0,0,.909,1.265h0a.1.1,0,0,0,.1,0,.094.094,0,0,0,.051,0,.058.058,0,0,0,0-.044,1.505,1.505,0,0,0,0-.335,3.228,3.228,0,0,0-.044-.633c-.065-.509-.233-1.011-.48-1.134C195.481,180.1,195.321,180.083,195.132,180.294Zm.364,0c.167.08.3.473.371.909a3.818,3.818,0,0,1,.044.8,2.909,2.909,0,0,1-.727-.953.822.822,0,0,1-.065-.255.56.56,0,0,1,.095-.356V180.4c.2-.109.262-.073.284-.065Z" transform="translate(-129.396 -115.241)" fill="#407bff"/>
        <path id="Path_41893" data-name="Path 41893" d="M168.607,168.075l-1.091.727-.654.429-1.9,1.251-.364.24s-8.086-5.6-11.555-9.453c-2.371-2.647-2.5-3.534-2.814-3.36-4.13,2.385-14.667,10.624-25.967,11.867h-.625a18.979,18.979,0,0,1-8-1.949c.335-2.741,3.5-8.842,3.767-9.453l29.087-10.639c.153-.058.32-.095.48-.138s.415-.124.625-.167a7.73,7.73,0,0,1,2.378-.225,2.989,2.989,0,0,1,1.927.56C156.275,150.084,168.607,168.075,168.607,168.075Z" transform="translate(-107.758 -106.257)" fill="#263238"/>
        <g id="Group_56048" data-name="Group 56048" transform="translate(7.882 40.933)" opacity="0.2">
          <path id="Path_41894" data-name="Path 41894" d="M168.607,168.075l-1.091.727-.654.429-1.9,1.251-.364.24s-8.086-5.6-11.555-9.453c-2.371-2.647-2.5-3.534-2.814-3.36-4.13,2.385-14.667,10.624-25.967,11.867h-.625a18.979,18.979,0,0,1-8-1.949c.335-2.741,3.5-8.842,3.767-9.453l29.087-10.639c.153-.058.32-.095.48-.138s.415-.124.625-.167a7.73,7.73,0,0,1,2.378-.225,2.989,2.989,0,0,1,1.927.56C156.275,150.084,168.607,168.075,168.607,168.075Z" transform="translate(-115.64 -147.19)"/>
        </g>
        <path id="Path_41895" data-name="Path 41895" d="M112.287,107.46c.574,2.7,1.178,6.639-.727,8.479A60.573,60.573,0,0,0,119.7,127.21c4.109-7.032.291-11.417.291-11.417-3.04-.669-2.981-1.891-2.494-4Z" transform="translate(-106.645 -95.418)" fill="#cb7a63"/>
        <path id="Path_41896" data-name="Path 41896" d="M109,118.769a3.418,3.418,0,0,1,1.331-1.789c.611-.458,6.915-.487,8.552.058a4.123,4.123,0,0,1,2.276,1.818Z" transform="translate(-105.947 -97.92)" fill="#407bff"/>
        <path id="Path_41897" data-name="Path 41897" d="M192.614,180.083l2.814-2.312-8.181-10.42-4.058,2.356Z" transform="translate(-126.188 -111.757)" fill="#cb7a63"/>
        <path id="Path_41898" data-name="Path 41898" d="M201.752,175.251c-.378.116-.727.9-1,1.542-.065.16-.116.305-.16.436h0v.073c-.051.153-.087.262-.095.305a.087.087,0,0,0,0,.116.1.1,0,0,0,.124,0,7.657,7.657,0,0,0,.945-.727l.2-.182a1.651,1.651,0,0,0,.48-.727,1.345,1.345,0,0,0,.087-.291.582.582,0,0,0-.233-.509.407.407,0,0,0-.349-.036Zm.2.24a.364.364,0,0,1,.16.342,1.193,1.193,0,0,1-.335.654,5.518,5.518,0,0,1-.654.625l-.349.269a1.228,1.228,0,0,1,.08-.138.794.794,0,0,1,.036-.124,5.585,5.585,0,0,1,.778-1.505.385.385,0,0,1,.167-.116A.138.138,0,0,1,201.956,175.491Z" transform="translate(-130.905 -113.907)" fill="#407bff"/>
        <path id="Path_41899" data-name="Path 41899" d="M199,175.141a.807.807,0,0,0-.1.618,2.909,2.909,0,0,0,1.258,1.382h0a.138.138,0,0,0,.109,0l.051-.044a.051.051,0,0,0,0-.044h0a1.453,1.453,0,0,0,0-.342c-.095-.676-.451-1.665-.865-1.789C199.331,174.879,199.163,174.886,199,175.141Zm1.12,1.716a2.5,2.5,0,0,1-1.011-1.156.567.567,0,0,1,.044-.393v-.058c.109-.167.182-.145.2-.138C199.694,175.213,200.065,176.209,200.123,176.857Z" transform="translate(-130.468 -113.818)" fill="#407bff"/>
        <path id="Path_41900" data-name="Path 41900" d="M170.841,167.291l-3.469,3.767s-14.762-12.616-16.165-16.434c-.931,1.091-14.2,14.863-30.723,16.972-.2,0-.407.044-.618.058a18.776,18.776,0,0,1-8.159-.865c-5.265-1.963-6.7-6.61-6.319-10.559h0c.044-1.84.429-5.134.429-5.134l19.256.153c5.323-3.556,20.957-9.177,22.673-9.577.385-.087.764-.167,1.134-.218a10.517,10.517,0,0,1,1.149-.1h0a6.712,6.712,0,0,1,6.465,3.534Z" transform="translate(-104.945 -105.75)" fill="#263238"/>
        <path id="Path_41901" data-name="Path 41901" d="M189,178.816l5.141-5.112-1.251-2.014-5.956,5.519Z" transform="translate(-127.208 -112.941)" fill="#407bff"/>
        <path id="Path_41902" data-name="Path 41902" d="M189,178.816l5.141-5.112-1.251-2.014-5.956,5.519Z" transform="translate(-127.208 -112.941)" fill="#fff" opacity="0.5"/>
        <path id="Path_41903" data-name="Path 41903" d="M197.59,177.506l-2.814,3.723a.364.364,0,0,0,0,.48l2.829,2.96a.727.727,0,0,0,1.033,0,.436.436,0,0,0,.058-.058c5.294-5.4,6.479-7.955,6.966-8.653,1.4-1.978-.342-2.8-.967-2.283-2.821,2.334-3.992,2.669-5.548,2.989A3.7,3.7,0,0,0,197.59,177.506Z" transform="translate(-129.324 -113.441)" fill="#263238"/>
        <path id="Path_41904" data-name="Path 41904" d="M166.024,145.61l-11.715,3.338-21.3-.538L144,145.53Z" transform="translate(-112.497 -105.804)" fill="#407bff"/>
        <g id="freepik--monitor-screen--inject-3" transform="translate(31.146 24.244)">
          <g id="freepik--PC--inject-3">
            <path id="Path_41905" data-name="Path 41905" d="M170.239,139.141l-21.3.1,1.113-13.5,21.3-.109Z" transform="translate(-147.989 -124.619)" fill="#407bff"/>
            <path id="Path_41906" data-name="Path 41906" d="M169.591,139.816l-20.964.1a.967.967,0,0,1-.989-1.069l1.105-13.424a1.2,1.2,0,0,1,1.171-1.084l20.986-.1a.967.967,0,0,1,.989,1.069l-1.105,13.424A1.2,1.2,0,0,1,169.591,139.816Z" transform="translate(-147.633 -124.239)" fill="#263238"/>
            <path id="Path_41907" data-name="Path 41907" d="M170.239,139.141l-21.3.1,1.113-13.5,21.3-.109Z" transform="translate(-147.989 -124.619)" fill="#407bff"/>
            <path id="Path_41908" data-name="Path 41908" d="M170.239,139.141l-21.3.1,1.113-13.5,21.3-.109Z" transform="translate(-147.989 -124.619)" fill="#fff" opacity="0.9"/>
            <path id="Path_41909" data-name="Path 41909" d="M153.217,124.337l-4.087,15.576,1.4-.007,4.036-15.576Z" transform="translate(-148.041 -124.264)" fill="#fff" opacity="0.1" style="mix-blend-mode: normal;isolation: isolate"/>
            <path id="Path_41910" data-name="Path 41910" d="M156.187,124.317,152.1,139.9l2.778-.015,4.036-15.576Z" transform="translate(-148.851 -124.259)" fill="#fff" opacity="0.1" style="mix-blend-mode: normal;isolation: isolate"/>
          </g>
        </g>
        <path id="Path_41911" data-name="Path 41911" d="M166.024,145.61l-11.715,3.338-21.3-.538L144,145.53Z" transform="translate(-112.497 -105.804)" fill="#fff" opacity="0.2"/>
        <path id="Path_41912" data-name="Path 41912" d="M133.01,149.49l1.178,1.047,19.416.545.705-1.054Z" transform="translate(-112.497 -106.885)" fill="#407bff"/>
        <path id="Path_41913" data-name="Path 41913" d="M161.33,150.032l12.224-3.527.2-.865-11.715,3.338Z" transform="translate(-120.224 -105.834)" fill="#407bff"/>
        <path id="Path_41914" data-name="Path 41914" d="M144.055,140.44h2.262l-1.294,3.1a6.385,6.385,0,0,1-2.32.247,1.367,1.367,0,0,1-.887-2.182h0A2.909,2.909,0,0,1,144.055,140.44Z" transform="translate(-114.823 -104.416)" fill="#cb7a63"/>
        <path id="Path_41915" data-name="Path 41915" d="M149.569,142.376l-.6,1.076a.873.873,0,0,1-.938.429l-1.767-.364,1.294-3.1,1.614.727a.858.858,0,0,1,.436,1.127.673.673,0,0,1-.036.1Z" transform="translate(-116.112 -104.41)" fill="#cb7a63"/>
        <path id="Path_41916" data-name="Path 41916" d="M113.8,133.928a14.085,14.085,0,0,0,7.075,4.741c3.4.894,10.02.589,13.242-.153v-2.509c-1.316-.284-13.271.829-17.547-6.545-.8-1.367-3.854-6.9-5.519-7.563-2.705-1.083-3.73,1.8-3.112,3.461C108.662,127.347,112.378,132.2,113.8,133.928Z" transform="translate(-105.609 -99.293)" fill="#cb7a63"/>
        <g id="Group_56049" data-name="Group 56049" transform="translate(31.937 36.257)" opacity="0.2" style="mix-blend-mode: normal;isolation: isolate">
          <path id="Path_41917" data-name="Path 41917" d="M148.735,140.767h-.015l.007-.007Z" transform="translate(-148.72 -140.76)"/>
        </g>
        <path id="Path_41918" data-name="Path 41918" d="M125.307,123.708c3.636,8.123-4.916,10.384-1.1,23.691l-18.536.32c.167-7.119,2.691-5.57-.56-18.979a12.958,12.958,0,0,1,.5-7.344,5.4,5.4,0,0,1,2.429-2.705c1.367-.727,7.4-.109,10.144.087C121.169,118.378,124.769,122.69,125.307,123.708Z" transform="translate(-104.801 -98.388)" fill="#407bff"/>
        <path id="Path_41919" data-name="Path 41919" d="M125.307,123.708c3.636,8.123-4.916,10.384-1.1,23.691l-18.536.32c.167-7.119,2.691-5.57-.56-18.979a12.958,12.958,0,0,1,.5-7.344,5.4,5.4,0,0,1,2.429-2.705c1.367-.727,7.4-.109,10.144.087C121.169,118.378,124.769,122.69,125.307,123.708Z" transform="translate(-104.801 -98.388)" fill="#f8425f"/>
        <path id="Path_41920" data-name="Path 41920" d="M128.266,103.372c-.051.356.087.647.313.676s.444-.211.494-.553-.087-.647-.305-.676S128.317,103.037,128.266,103.372Z" transform="translate(-111.2 -94.151)" fill="#263238"/>
        <path id="Path_41921" data-name="Path 41921" d="M128.82,102.779l.851-.109S129.154,103.244,128.82,102.779Z" transform="translate(-111.354 -94.111)" fill="#263238"/>
        <path id="Path_41922" data-name="Path 41922" d="M128.214,104.22a8.727,8.727,0,0,0,.887,2.349,1.454,1.454,0,0,1-1.251.044Z" transform="translate(-111.09 -94.534)" fill="#a02724"/>
        <path id="Path_41923" data-name="Path 41923" d="M129.288,100.161a.206.206,0,0,0-.044-.393,2,2,0,0,0-1.76.545.2.2,0,1,0,.269.3h0a1.6,1.6,0,0,1,1.4-.414A.167.167,0,0,0,129.288,100.161Z" transform="translate(-110.964 -93.311)" fill="#263238"/>
        <path id="Path_41924" data-name="Path 41924" d="M112.77,97.636c-.371,4.218-.625,6,1.156,8.464,2.683,3.709,7.955,3.258,9.584-.764,1.454-3.636,1.84-9.911-1.992-12.195a5.817,5.817,0,0,0-8.726,4.494Z" transform="translate(-106.902 -91.295)" fill="#cb7a63"/>
        <path id="Path_41925" data-name="Path 41925" d="M127.5,109.428a2.429,2.429,0,0,1-.727-1.04.087.087,0,0,1,.058-.109.1.1,0,0,1,.109.065,2.291,2.291,0,0,0,.589.9Z" transform="translate(-110.793 -95.641)" fill="#263238"/>
        <path id="Path_41926" data-name="Path 41926" d="M115.39,111a1.789,1.789,0,0,0-1.062,1.76l.9-1.265Z" transform="translate(-107.399 -96.384)" fill="#263238"/>
        <path id="Path_41927" data-name="Path 41927" d="M115.667,111.07a1.774,1.774,0,0,0-.334,2.029l.371-1.52Z" transform="translate(-107.625 -96.403)" fill="#263238"/>
        <path id="Path_41928" data-name="Path 41928" d="M127.24,93.437c-.182-.8-1.513-.6-2.305-.778a1.622,1.622,0,0,0-1.171,0,1.105,1.105,0,0,0-.465,1,3.571,3.571,0,0,0,.305,1.113,36.964,36.964,0,0,1,1.134,4.363,10.093,10.093,0,0,1,.109,3.149C125.342,102.1,128.279,98.04,127.24,93.437Z" transform="translate(-109.846 -91.35)" fill="#263238"/>
        <path id="Path_41929" data-name="Path 41929" d="M120.212,92.427a10.181,10.181,0,0,0-8.312-1.091,8.152,8.152,0,0,0-5.476,6.145,9.715,9.715,0,0,0,.829,5.367,28.482,28.482,0,0,0,2.792,4.734c-.145,1.76-1.658,3.185-2.691,4.618a8.421,8.421,0,0,0-1.745,5.177,5.09,5.09,0,0,0,2.836,4.45c.662.284.538,1.52.145,2.123a.982.982,0,0,0,.938-.982c-.16.378-.342.96-.5,1.338a.6.6,0,0,1,.5-.269,3.163,3.163,0,0,0,.589,0,1.578,1.578,0,0,0,.858-.807,6.479,6.479,0,0,0,1.28-3.229,2.538,2.538,0,0,0-.48-1.578c.269-.262.654-.145.96.073a1.738,1.738,0,0,1,.582.938,4.269,4.269,0,0,1,.175,1.454,8.169,8.169,0,0,0,.444-7.621c-.349-.764-.858-1.593-.574-2.385.335-.945,0-2.087.684-2.829,1.673-.124,2.741-1.687,3.549-3.163a23.052,23.052,0,0,0,2.618-12.464Z" transform="translate(-105.022 -90.9)" fill="#263238"/>
        <path id="Path_41930" data-name="Path 41930" d="M120.378,103a3.694,3.694,0,0,0,.938,2.661c.873.96,1.992.342,2.327-.844.3-1.062.2-2.843-.953-3.36A1.651,1.651,0,0,0,120.378,103Z" transform="translate(-109.05 -93.743)" fill="#cb7a63"/>
        <path id="Path_41931" data-name="Path 41931" d="M105.611,156.59l-.436,1.673c-.065.138.095.262.305.255l19.088-.327c.167,0,.305-.087.313-.189l-.465-1.767c0-.116-.138-.211-.32-.2l-18.179.414A.349.349,0,0,0,105.611,156.59Z" transform="translate(-104.899 -108.669)" fill="#fff"/>
        <path id="Path_41932" data-name="Path 41932" d="M128.864,158.354l-.5.051c-.1,0-.182,0-.182-.095v-2.182c0-.065.087-.124.182-.138l.5-.051c.1,0,.182,0,.182.095v2.182A.184.184,0,0,1,128.864,158.354Z" transform="translate(-111.18 -108.644)" fill="#407bff"/>
        <path id="Path_41933" data-name="Path 41933" d="M119.464,158.414l-.5.051c-.095,0-.175,0-.182-.095v-2.182c0-.065.08-.124.182-.138l.494-.051c.1,0,.182,0,.182.095v2.182C119.667,158.356,119.565,158.407,119.464,158.414Z" transform="translate(-108.615 -108.661)" fill="#407bff"/>
        <path id="Path_41934" data-name="Path 41934" d="M119.464,158.414l-.5.051c-.095,0-.175,0-.182-.095v-2.182c0-.065.08-.124.182-.138l.494-.051c.1,0,.182,0,.182.095v2.182C119.667,158.356,119.565,158.407,119.464,158.414Z" transform="translate(-108.615 -108.661)" fill="#407bff"/>
        <path id="Path_41935" data-name="Path 41935" d="M121.935,126.19s-1.011,2.029,1.84,7.439l1.193,2.182h0c.393.727,3.054-.727,3.854-2.087h0S123.782,130.677,121.935,126.19Z" transform="translate(-109.428 -100.528)" opacity="0.2"/>
        <path id="Path_41936" data-name="Path 41936" d="M157.772,140.589l2.094.109-1.331,2.829s-3.272.844-3.636-1.171l.727-.822a2.705,2.705,0,0,1,2.145-.945Z" transform="translate(-118.469 -104.456)" fill="#cb7a63"/>
        <path id="Path_41937" data-name="Path 41937" d="M163.007,142.657l-.611.974a.822.822,0,0,1-.894.356l-1.622-.429,1.338-2.829,1.454.785a.793.793,0,0,1,.356,1.076Z" transform="translate(-119.828 -104.495)" fill="#cb7a63"/>
        <path id="Path_41938" data-name="Path 41938" d="M130.642,137.522c1.389,1.912,3.323,3.7,5.672,3.985,1.818.225,10.449-1.12,11.715-2.312v-2.029s-9.024.044-10.18-.08c-1.687-.167-2.749-1.323-4.174-3.8-.727-1.229-3.011-6.283-3.883-7.41-1.4-1.811-5.417-.545-3.854,3.8A55.883,55.883,0,0,0,130.642,137.522Z" transform="translate(-110.471 -100.225)" fill="#cb7a63"/>
        <path id="Path_41939" data-name="Path 41939" d="M128.15,121.655c2.836,2.632,4.189,7.272,4.189,7.272l-6.675,4.014s-4.821-6.857-3.934-9.228c.727-1.84,1.971-3.04,3.636-3.134a3.81,3.81,0,0,1,2.785,1.076Z" transform="translate(-109.39 -98.997)" fill="#407bff"/>
        <path id="Path_41940" data-name="Path 41940" d="M109.136,158.711h-.5c-.1,0-.182-.051-.175-.116l.2-2.182c0-.065.095-.124.2-.124h.5c.1,0,.182.051.175.109l-.2,2.182a.167.167,0,0,1-.189.131Z" transform="translate(-105.799 -108.74)" fill="#407bff"/>
      </g>
    </g>
    <g id="freepik--character-1--inject-3" transform="translate(62.562 240.429)">
      <path id="Path_41941" data-name="Path 41941" d="M142.39,374.641l3.636,2.5,2.952-3.541-2.792-.284a9.924,9.924,0,0,1-2.007-.407h0Z" transform="translate(-101.41 -327.163)" fill="#ff8b7b"/>
      <path id="Path_41942" data-name="Path 41942" d="M150.066,373.86l-3.636,3.076,2.138,1.709a.6.6,0,0,0,.785-.087l2.581-2.414a.306.306,0,0,0,0-.429Z" transform="translate(-102.512 -327.422)" fill="#ff8b7b"/>
      <path id="Path_41943" data-name="Path 41943" d="M130.615,347.228l-2.036,8.675,11.278,9.453-1.214,2.094s-12.471-5.614-14.253-8.726,1.978-14.594,1.978-14.594Z" transform="translate(-96.368 -319.311)" fill="#ff8b7b"/>
      <path id="Path_41944" data-name="Path 41944" d="M127.436,341.98c1.556.771,5.207,3.454,2.08,12.595L123,353.665C123.822,347.95,124.978,341.252,127.436,341.98Z" transform="translate(-96.12 -318.71)" fill="#263238"/>
      <path id="Path_41945" data-name="Path 41945" d="M127.436,341.98c1.556.771,5.207,3.454,2.08,12.595L123,353.665C123.822,347.95,124.978,341.252,127.436,341.98Z" transform="translate(-96.12 -318.71)" opacity="0.1"/>
      <path id="Path_41946" data-name="Path 41946" d="M97,378.71l-.727,2.96s-7.2-2.182-9.613,3.883,3.876,18.95,23.022,14.485c0,0,5.163,1.4,9.577.284,6.545-1.643,14.871-5.483,15.772-11.562,1.505-10.18-18.739-6.545-18.739-6.545l-.727-1.905Z" transform="translate(-86.07 -328.745)" fill="#407bff"/>
      <path id="Path_41947" data-name="Path 41947" d="M104.57,384.58s4.53,2.291,6.174,6.13l1.956.727S111.551,386.187,104.57,384.58Z" transform="translate(-91.092 -330.347)" opacity="0.1"/>
      <path id="Path_41948" data-name="Path 41948" d="M124.77,393.627a16.178,16.178,0,0,1,6.61-11.5h5.032L126.7,394.848Z" transform="translate(-96.603 -329.678)" fill="#407bff"/>
      <path id="Path_41949" data-name="Path 41949" d="M86.511,387.984s-1.8,5.236,5.148,11.053,10.7-1.934,10.7-1.934l.538-2.96-4.756-4.254L92.1,385.81l-3.3.393Z" transform="translate(-86.107 -330.682)" fill="#407bff"/>
      <path id="Path_41950" data-name="Path 41950" d="M86.54,389.142a13.816,13.816,0,0,0,7.781,10.624c5.97,2.843,7.5-5.207,7.5-5.207l-11.009-7.17-4.065.531Z" transform="translate(-86.173 -331.114)" fill="#ff8b7b"/>
      <path id="Path_41951" data-name="Path 41951" d="M86.54,389.142a13.816,13.816,0,0,0,7.781,10.624c5.97,2.843,7.5-5.207,7.5-5.207l-11.009-7.17-4.065.531Z" transform="translate(-86.173 -331.114)" opacity="0.1" style="mix-blend-mode: normal;isolation: isolate"/>
      <path id="Path_41952" data-name="Path 41952" d="M149.126,411.444a10.7,10.7,0,0,0-5.636-4.879,1.542,1.542,0,0,1-.618-.56,1.409,1.409,0,0,1-.16-.291l-1.229-4.014a.349.349,0,0,1,0-.225.393.393,0,0,1,.153-.262l3.44-1.992a.669.669,0,0,1,.938.138l.073.124c.691,1.665,1.243,3.178,2.182,5.236,1.062,2.429,1.083,1.687,2.371,4.523C151.394,410.957,149.576,412.113,149.126,411.444Z" transform="translate(-101.157 -334.305)" fill="#263238"/>
      <path id="Path_41953" data-name="Path 41953" d="M128.55,382.609s17.307-3.759,20.07,1.738-7.054,9.162-10.544,10.4c-6.086,2.182-27.2,8.777-27.2,8.777l1.374-4.3,10.071-5.759S122.784,387.714,128.55,382.609Z" transform="translate(-92.813 -329.467)" fill="#ff8b7b"/>
      <path id="Path_41954" data-name="Path 41954" d="M110.363,408.424l1.505-4.545a.385.385,0,0,0-.167-.451l-3.389-2.043a.64.64,0,0,0-.88.218.437.437,0,0,0-.058.116c-.516,1.651-.909,3.134-1.585,5.177-.8,2.407-.88,1.7-1.862,4.516-.582,1.694,1.251,2.647,1.585,1.956,1.513-3.17,2.625-3.185,4.232-4.065a1.534,1.534,0,0,0,.618-.88Z" transform="translate(-90.885 -334.907)" fill="#263238"/>
      <path id="Path_41955" data-name="Path 41955" d="M137.11,385.262c-.167-.64-9.759,5.468-12.747,5.09a16.726,16.726,0,0,0-.953,2.705h0l-.116.487a.261.261,0,0,1,0,.073v.16a.363.363,0,0,0,0,.087.726.726,0,0,0,0,.124s0,.058,0,.087v.24a.2.2,0,0,1,0,.065v.131h0l-9.453,5.374,7.4,1.687c4.414-1.4,9.533-3.047,13.416-4.327l-9.8-3.694C128.383,391.32,137.226,385.786,137.11,385.262Z" transform="translate(-93.621 -330.52)" opacity="0.1" style="mix-blend-mode: normal;isolation: isolate"/>
      <path id="Path_41956" data-name="Path 41956" d="M127.778,401.431c-5.359-.676-15.525-2.007-19.03-2.763-6.319-1.367-27.16-6.719-21.859-13.816,5.534-7.417,16.609,3.854,16.609,3.854l22.87,8.2a.349.349,0,0,0,0,.225l1.229,4.014a1.411,1.411,0,0,0,.182.284Z" transform="translate(-86.035 -329.732)" fill="#ff8b7b"/>
      <path id="Path_41957" data-name="Path 41957" d="M97.854,385.278c-1.651.727,8.821,4.159,8.821,4.159a31.948,31.948,0,0,0-4.465-3.636C100.6,385.169,98.959,384.8,97.854,385.278Z" transform="translate(-89.211 -330.478)" opacity="0.1" style="mix-blend-mode: normal;isolation: isolate"/>
      <g id="freepik--Character--inject-2--inject-3" transform="translate(10.112 4.486)">
        <path id="Path_41958" data-name="Path 41958" d="M116.181,338.749l-4.363-1.033-5.534-.036a3.832,3.832,0,0,0-3.723,2.8,99.009,99.009,0,0,0-2.24,11.977c-.618,4.538.145,9.737.313,15.889l19.743.727c-1.047-8.988.727-16.849,1.912-21.583.255-2.909,0-6.355-1.556-7.032Z" transform="translate(-99.979 -322.038)" fill="#263238"/>
        <path id="Path_41959" data-name="Path 41959" d="M100.282,354.32c.429-3.185,1-6.777,1.68-9.759,3.636-.764,5.759,7.228,4.828,11.271s-6.85,1.854-6.85,1.854C100.035,356.5,100.144,355.338,100.282,354.32Z" transform="translate(-99.94 -323.901)" opacity="0.3" style="mix-blend-mode: normal;isolation: isolate"/>
        <path id="Path_41960" data-name="Path 41960" d="M108.79,331.491a2.909,2.909,0,0,0,3.047.6,3.272,3.272,0,0,1-1.745,1.069,3.534,3.534,0,0,0,3.847-.1c-.422.393-.989.9-1.4,1.294a7.272,7.272,0,0,0,9.075-7.4c-.051-.982-1.5-1.454-2.414-1.8a5.636,5.636,0,0,0-2.865-.269,10.823,10.823,0,0,0-2.232.727C114.142,325.449,113.851,330.764,108.79,331.491Z" transform="translate(-102.354 -318.525)" fill="#407bff"/>
        <path id="Path_41961" data-name="Path 41961" d="M117.2,328l1.774,2.487,2.414,3.381a3.461,3.461,0,0,0-.654,1.054c-.371.858-.727,1.5,1.105,2.625a1.185,1.185,0,0,1,.574,1.127c-.087.553-.6,1.1-2.516.844a8.726,8.726,0,0,1-4.865-2.451c-.662-.6-.538-1.091.044-1.767C116.741,333.374,117.141,330.392,117.2,328Z" transform="translate(-103.936 -319.397)" fill="#ff8b7b"/>
        <path id="Path_41962" data-name="Path 41962" d="M122.446,334.011l-1.5-2.421-.087.211a7.4,7.4,0,0,0-.262.953,4.082,4.082,0,0,0,1.68,3.36l.1-.218a4.181,4.181,0,0,1,.6-1.011.139.139,0,0,1,.051-.044Z" transform="translate(-105.568 -320.376)" opacity="0.2" style="mix-blend-mode: normal;isolation: isolate"/>
        <path id="Path_41963" data-name="Path 41963" d="M127.44,325.828c2.043-2.989,1.92-4.843,3.716-6.348.894-.269,2.182,1.454.858,4.014S127.44,325.828,127.44,325.828Z" transform="translate(-107.443 -317.064)" fill="#263238"/>
        <path id="Path_41964" data-name="Path 41964" d="M118.746,320.555c-.654,3.68-1.2,5.817.2,8.064,2.109,3.41,7,2.734,8.726-.727,1.556-3.09,2.342-8.6-.887-10.828a5.185,5.185,0,0,0-8.035,3.49Z" transform="translate(-104.886 -316.169)" fill="#ff8b7b"/>
        <path id="Path_41965" data-name="Path 41965" d="M117.112,323.864l1.854,1.454.669-3.214,1.767-.727,2.378-2.749s-4.181-1.825-5.461-2.182a4.726,4.726,0,0,0-2.494,1.4,4.29,4.29,0,0,0,.145,4.516,9.453,9.453,0,0,0,1.142,1.5Z" transform="translate(-104.118 -316.242)" fill="#407bff"/>
        <path id="Path_41966" data-name="Path 41966" d="M116,324.972a3.425,3.425,0,0,0,.858,2.269c.727.8,1.767.095,1.985-.945a2.492,2.492,0,0,0-1.091-2.756C116.822,323.132,116,323.925,116,324.972Z" transform="translate(-104.322 -318.15)" fill="#ff8b7b"/>
        <path id="Path_41967" data-name="Path 41967" d="M126.338,325.832c-.08.3,0,.589.2.654s.4-.131.5-.429a.494.494,0,0,0-.2-.654C126.644,325.323,126.426,325.512,126.338,325.832Z" transform="translate(-107.134 -318.683)" fill="#263238"/>
        <path id="Path_41968" data-name="Path 41968" d="M130.987,327.3c-.087.3,0,.6.2.654s.422-.131.5-.422,0-.6-.189-.654S131.045,327,130.987,327.3Z" transform="translate(-108.401 -319.087)" fill="#263238"/>
        <path id="Path_41969" data-name="Path 41969" d="M129.081,327.29a10.123,10.123,0,0,0,.407,2.6,1.455,1.455,0,0,1-1.258-.24Z" transform="translate(-107.658 -319.203)" fill="#ff5652"/>
        <path id="Path_41970" data-name="Path 41970" d="M126.562,332.277a2.661,2.661,0,0,1-1.629-1.323.095.095,0,1,1,.167-.08,2.56,2.56,0,0,0,1.847,1.309.094.094,0,0,1,.087.1.087.087,0,0,1-.1.08h0A3.185,3.185,0,0,1,126.562,332.277Z" transform="translate(-106.754 -320.161)" fill="#263238"/>
        <path id="Path_41971" data-name="Path 41971" d="M125.83,323.985a.116.116,0,0,1-.073-.058.182.182,0,0,1,.044-.255,1.738,1.738,0,0,1,1.636-.233.182.182,0,0,1,.1.233h0a.182.182,0,0,1-.24.095,1.411,1.411,0,0,0-1.28.2.153.153,0,0,1-.189.022Z" transform="translate(-106.974 -318.123)" fill="#263238"/>
        <path id="Path_41972" data-name="Path 41972" d="M131.748,324.712a.175.175,0,0,1,0-.087.189.189,0,0,1,.24-.109,1.731,1.731,0,0,1,1.12,1.207.183.183,0,1,1-.356.08,1.389,1.389,0,0,0-.894-.945A.189.189,0,0,1,131.748,324.712Z" transform="translate(-108.616 -318.443)" fill="#263238"/>
      </g>
      <path id="Path_41973" data-name="Path 41973" d="M125.388,382.537l-12.078-1.171s-.044-.233,1-.284h.276c.2,0,1.025-.065,2.123-.116h.356c3.156-.145,8.144-.356,8.144-.356l.153,1.636Z" transform="translate(-93.476 -329.264)" fill="#407bff"/>
      <path id="Path_41974" data-name="Path 41974" d="M126.444,382.2l-9.075-.916s-.364-.262.422-.342h.356c3.156-.145,8.144-.356,8.144-.356Z" transform="translate(-94.56 -329.258)" fill="#fff" opacity="0.2"/>
      <path id="Path_41975" data-name="Path 41975" d="M120.633,376.239l1.818.465-2.407,3.7s-3.832-1.2-3.127-2.909l.931-.582A3.793,3.793,0,0,1,120.633,376.239Z" transform="translate(-94.437 -328.049)" fill="#ff8b7b"/>
      <path id="Path_41976" data-name="Path 41976" d="M125.351,379.346l-1.731,1.869-2.371-.574,2.407-3.73Z" transform="translate(-95.642 -328.254)" fill="#ff8b7b"/>
      <path id="Path_41977" data-name="Path 41977" d="M104.684,354.7c-1.127,3.432-2.349,3.883-.967,5.687s9.242,7.948,10.7,9.766l-2.458,1.876q-4.363-2.414-8.726-4.719c-2.138-1.12-4.414-2.349-5.534-4.494-1.6-3.069-.727-6.006,1.091-9.977C100.5,352.541,104.684,354.7,104.684,354.7Z" transform="translate(-88.988 -321.68)" fill="#ff8b7b"/>
      <path id="Path_41978" data-name="Path 41978" d="M104.11,337.762c3.869-.727,5.919,2.516,4.29,7.577a33.747,33.747,0,0,1-2.632,6.719l-9.148-2.123C97.943,344.939,100.154,338.533,104.11,337.762Z" transform="translate(-88.923 -317.546)" fill="#263238"/>
      <path id="Path_41979" data-name="Path 41979" d="M126.173,383.461l21.881-.887a.458.458,0,0,0,.436-.422h0a.371.371,0,0,0-.393-.393l-21.888.9a.458.458,0,0,0-.429.429h0a.371.371,0,0,0,.393.371Z" transform="translate(-96.878 -329.577)" fill="#263238"/>
      <path id="Path_41980" data-name="Path 41980" d="M111.734,382.314l10.348,1.069a.451.451,0,0,0,.48-.371h0a.371.371,0,0,0-.327-.451L111.887,381.5a.444.444,0,0,0-.48.364h0a.371.371,0,0,0,.327.451Z" transform="translate(-92.954 -329.506)" fill="#407bff"/>
      <path id="Path_41981" data-name="Path 41981" d="M111.734,382.314l10.348,1.069a.451.451,0,0,0,.48-.371h0a.371.371,0,0,0-.327-.451L111.887,381.5a.444.444,0,0,0-.48.364h0a.371.371,0,0,0,.327.451Z" transform="translate(-92.954 -329.506)" opacity="0.4"/>
      <path id="Path_41982" data-name="Path 41982" d="M126.758,377.769l20.412-.829a1.629,1.629,0,0,0,1.454-1.36l1.389-10.333a1.069,1.069,0,0,0-1.134-1.258l-20.412.829a1.622,1.622,0,0,0-1.454,1.36l-1.389,10.333a1.069,1.069,0,0,0,1.134,1.258Z" transform="translate(-96.831 -324.728)" fill="#407bff"/>
      <path id="Path_41983" data-name="Path 41983" d="M126.758,377.769l20.412-.829a1.629,1.629,0,0,0,1.454-1.36l1.389-10.333a1.069,1.069,0,0,0-1.134-1.258l-20.412.829a1.622,1.622,0,0,0-1.454,1.36l-1.389,10.333a1.069,1.069,0,0,0,1.134,1.258Z" transform="translate(-96.831 -324.728)" opacity="0.4"/>
      <path id="Path_41984" data-name="Path 41984" d="M127.583,377.671l20.4-.822a1.636,1.636,0,0,0,1.454-1.36l1.382-10.333a1.069,1.069,0,0,0-1.134-1.258l-20.354.8a1.629,1.629,0,0,0-1.454,1.367L126.493,376.4a1.069,1.069,0,0,0,1.091,1.273Z" transform="translate(-97.067 -324.704)" fill="#407bff"/>
      <path id="Path_41985" data-name="Path 41985" d="M127.583,377.671l20.4-.822a1.636,1.636,0,0,0,1.454-1.36l1.382-10.333a1.069,1.069,0,0,0-1.134-1.258l-20.354.8a1.629,1.629,0,0,0-1.454,1.367L126.493,376.4a1.069,1.069,0,0,0,1.091,1.273Z" transform="translate(-97.067 -324.704)" fill="#fff" opacity="0.5"/>
      <path id="Path_41986" data-name="Path 41986" d="M114.438,311.222a2.909,2.909,0,0,0-.727,2.327c.095.473.727-.633.858-.167a7.183,7.183,0,0,1-.385,2.909,7.214,7.214,0,0,0,1.193,5.585l-.131-.138a21.6,21.6,0,0,1,7.228-3.127,5.851,5.851,0,0,1,3.294-.3c2.407.807,2.465,2.6,2.465,2.6,1.622-2.909-.233-7.214-2.443-9.657S114.962,310.567,114.438,311.222Z" transform="translate(-93.579 -310)" fill="#263238"/>
      <path id="Path_41987" data-name="Path 41987" d="M130.946,317.954c.087.662.065,1.149.153,1.8a4.494,4.494,0,0,0-3.549-1.054,2.378,2.378,0,0,0-.24-1.454,4.319,4.319,0,0,1,3.636.705Z" transform="translate(-97.296 -311.94)" fill="#407bff"/>
    </g>
    <g id="freepik--speech-bubble--inject-3" transform="translate(179.828 110.119)">
      <g id="freepik--freepik-speech-bubbles-inject-120--inject-3" transform="translate(0 5.067)">
        <path id="Path_41988" data-name="Path 41988" d="M253.874,138.532l52.277-.313a2.749,2.749,0,0,1,2.858,2.64,3.079,3.079,0,0,1,0,.451l-2.567,24.04a3.636,3.636,0,0,1-3.5,3.134l-21.75.24a23.6,23.6,0,0,1-13.78,8.043s5.01-4.588,6.188-8H250.667a2.749,2.749,0,0,1-2.851-2.64,3.079,3.079,0,0,1,0-.451l2.56-23.982A3.636,3.636,0,0,1,253.874,138.532Z" transform="translate(-247.436 -137.89)" fill="#fff"/>
        <path id="Path_41989" data-name="Path 41989" d="M266.155,177.2l.858-.793c.051-.036,4.494-4.138,5.9-7.366h-22.4a3.054,3.054,0,0,1-2.225-.822,3.134,3.134,0,0,1-.974-2.683l2.552-24a3.97,3.97,0,0,1,3.854-3.461h0L306,137.769a3.105,3.105,0,0,1,3.221,2.989,3.07,3.07,0,0,1,0,.516l-2.56,24.033a3.963,3.963,0,0,1-3.854,3.454l-21.583.233a24.244,24.244,0,0,1-13.9,8.05Zm7.832-8.922-.167.487c-.894,2.581-3.847,5.752-5.367,7.272a23.371,23.371,0,0,0,12.362-7.664l.109-.131,21.917-.24a3.243,3.243,0,0,0,3.149-2.814l2.56-24.033a2.479,2.479,0,0,0,0-.4,2.385,2.385,0,0,0-2.48-2.291l-52.284.313a3.25,3.25,0,0,0-3.149,2.821l-2.552,24a3.793,3.793,0,0,0,0,.4,2.4,2.4,0,0,0,2.487,2.291Z" transform="translate(-247.297 -137.767)" fill="#407bff"/>
      </g>
      <rect id="Rectangle_19592" data-name="Rectangle 19592" width="23.575" height="0.727" transform="translate(13.841 10.603)" fill="#407bff"/>
      <rect id="Rectangle_19593" data-name="Rectangle 19593" width="12.915" height="0.727" transform="translate(6.925 16.886)" fill="#407bff"/>
      <rect id="Rectangle_19594" data-name="Rectangle 19594" width="13.155" height="0.727" transform="translate(24.443 16.886)" fill="#407bff"/>
      <rect id="Rectangle_19595" data-name="Rectangle 19595" width="32.817" height="0.727" transform="translate(6.198 23.176)" fill="#407bff"/>
      <rect id="Rectangle_19596" data-name="Rectangle 19596" width="8.522" height="0.727" transform="translate(5.674 29.466)" fill="#407bff"/>
      <text id="_" data-name="?" transform="translate(37.135 29.567) rotate(9.744)" fill="#f8425f" font-size="31" font-family="Montserrat-ExtraBold, Montserrat" font-weight="800" letter-spacing="-0.005em"><tspan x="0" y="0">?</tspan></text>
    </g>
  </g>
</svg>
