<svg xmlns="http://www.w3.org/2000/svg" width="1920" height="463" viewBox="0 0 1920 463">
  <g id="Group_54944" data-name="Group 54944" opacity="0.036">
    <path id="Path_11386" data-name="Path 11386" d="M279.4,235.363H219.4a3.789,3.789,0,0,1-3.9-3.671V175.27a3.789,3.789,0,0,1,3.9-3.67h60.011a3.789,3.789,0,0,1,3.9,3.67v56.422A3.815,3.815,0,0,1,279.4,235.363Z" transform="translate(1265.833 22.07)" fill="#fff"/>
    <path id="Path_9680" data-name="Path 9680" d="M597.7,530.166h-60.19a3.793,3.793,0,0,1-3.907-3.673v-56.62a3.793,3.793,0,0,1,3.907-3.673H597.7a3.793,3.793,0,0,1,3.907,3.673v56.59A3.817,3.817,0,0,1,597.7,530.166Z" transform="translate(114.554 -314.667)" fill="#fff"/>
    <path id="Path_11552" data-name="Path 11552" d="M590.926,523.41H537.094a3.392,3.392,0,0,1-3.494-3.285V469.485a3.392,3.392,0,0,1,3.494-3.285h53.832a3.392,3.392,0,0,1,3.494,3.285V520.1A3.414,3.414,0,0,1,590.926,523.41Z" transform="translate(714.181 -153.328)" fill="#fff"/>
    <path id="Path_11385" data-name="Path 11385" d="M568.459,500.989H535.725a2.063,2.063,0,0,1-2.125-2V468.2a2.063,2.063,0,0,1,2.125-2h32.735a2.063,2.063,0,0,1,2.125,2v30.777A2.076,2.076,0,0,1,568.459,500.989Z" transform="translate(1009.06 -200.44)" fill="#fff"/>
    <path id="Path_9681" data-name="Path 9681" d="M1813.678,353.467h-62.906a6.669,6.669,0,0,1-6.872-6.462V287.862a6.669,6.669,0,0,1,6.872-6.462h62.906a6.669,6.669,0,0,1,6.873,6.462v59.144A6.65,6.65,0,0,1,1813.678,353.467Z" transform="translate(-543.254 -20.593)" fill="#fff"/>
    <g id="Group_1572" data-name="Group 1572" transform="translate(162.025 189.414)">
      <path id="Path_9684" data-name="Path 9684" d="M233.73,1368.023c-14.47,0-26.23-11.057-26.23-24.661s11.761-24.662,26.23-24.662,26.23,11.057,26.23,24.662S248.2,1368.023,233.73,1368.023Zm0-37.337c-7.426,0-13.482,5.693-13.482,12.675s6.056,12.675,13.482,12.675,13.482-5.693,13.482-12.675S241.156,1330.686,233.73,1330.686Z" transform="translate(-207.5 -1318.7)" fill="#fff"/>
    </g>
    <g id="Group_2187" data-name="Group 2187" transform="translate(1689.549)">
      <path id="Path_9684-2" data-name="Path 9684" d="M240.372,1380.513c-18.134,0-32.872-13.858-32.872-30.907s14.739-30.907,32.872-30.907,32.872,13.857,32.872,30.907S258.506,1380.513,240.372,1380.513Zm0-46.792c-9.307,0-16.9,7.135-16.9,15.885s7.589,15.885,16.9,15.885,16.9-7.135,16.9-15.885S249.679,1333.721,240.372,1333.721Z" transform="translate(-207.5 -1318.7)" fill="#fff"/>
    </g>
    <g id="Ellipse_62" data-name="Ellipse 62" transform="translate(612.867 377.108)" fill="none" stroke="#178cfc" stroke-width="10">
      <ellipse cx="21.791" cy="20.488" rx="21.791" ry="20.488" stroke="none"/>
      <ellipse cx="21.791" cy="20.488" rx="16.791" ry="15.488" fill="none"/>
    </g>
    <g id="Ellipse_63" data-name="Ellipse 63" transform="translate(0 390.312)" fill="none" stroke="#178cfc" stroke-width="10">
      <ellipse cx="21.791" cy="20.488" rx="21.791" ry="20.488" stroke="none"/>
      <ellipse cx="21.791" cy="20.488" rx="16.791" ry="15.488" fill="none"/>
    </g>
    <g id="Ellipse_64" data-name="Ellipse 64" transform="translate(1764.897 422.024)" fill="none" stroke="#178cfc" stroke-width="10">
      <ellipse cx="21.791" cy="20.488" rx="21.791" ry="20.488" stroke="none"/>
      <ellipse cx="21.791" cy="20.488" rx="16.791" ry="15.488" fill="none"/>
    </g>
    <g id="Ellipse_331" data-name="Ellipse 331" transform="translate(1876.417 165.264)" fill="none" stroke="#178cfc" stroke-width="10">
      <ellipse cx="21.791" cy="20.488" rx="21.791" ry="20.488" stroke="none"/>
      <ellipse cx="21.791" cy="20.488" rx="16.791" ry="15.488" fill="none"/>
    </g>
    <g id="Ellipse_332" data-name="Ellipse 332" transform="translate(1004.131 308.014)" fill="none" stroke="#178cfc" stroke-width="10">
      <ellipse cx="25.637" cy="24.104" rx="25.637" ry="24.104" stroke="none"/>
      <ellipse cx="25.637" cy="24.104" rx="20.637" ry="19.104" fill="none"/>
    </g>
  </g>
</svg>
