<svg id="Group_55956" data-name="Group 55956" xmlns="http://www.w3.org/2000/svg" width="151.882" height="33" viewBox="0 0 151.882 33">
  <path id="Path_41357" data-name="Path 41357" d="M159.573,27.75a6.145,6.145,0,0,1-.77,3.005,5.454,5.454,0,0,1-2.368,2.261,8.5,8.5,0,0,1-4.051.859h-3.337v7.67h-3.994V21.568h7.331a8.834,8.834,0,0,1,3.937.8,5.481,5.481,0,0,1,2.425,2.2A6.133,6.133,0,0,1,159.573,27.75Zm-7.359,2.891a3.5,3.5,0,0,0,2.453-.744,2.848,2.848,0,0,0,.8-2.147q0-2.919-3.252-2.919h-3.166v5.81Z" transform="translate(-107.902 -16.044)" fill="#fff"/>
  <path id="Path_41358" data-name="Path 41358" d="M208.8,44.781a9.316,9.316,0,0,1,.941-4.264,7.152,7.152,0,0,1,2.6-2.862,6.966,6.966,0,0,1,3.68-1,6.339,6.339,0,0,1,3.081.716,6.256,6.256,0,0,1,2.14,1.8V36.911h4.022V52.767h-4.022V50.448a6.044,6.044,0,0,1-2.14,1.86,6.5,6.5,0,0,1-3.109.716,6.771,6.771,0,0,1-3.651-1.03,7.366,7.366,0,0,1-2.6-2.891A9.562,9.562,0,0,1,208.8,44.781Zm12.438.057a5.07,5.07,0,0,0-.571-2.49,3.909,3.909,0,0,0-1.54-1.6,4.112,4.112,0,0,0-4.136-.029,4.165,4.165,0,0,0-1.54,1.6,5.007,5.007,0,0,0-.571,2.461,5.345,5.345,0,0,0,.571,2.519,4.388,4.388,0,0,0,1.54,1.631,3.977,3.977,0,0,0,2.054.572,4.029,4.029,0,0,0,3.623-2.147A5.237,5.237,0,0,0,221.242,44.839Z" transform="translate(-155.324 -27.265)" fill="#fff"/>
  <path id="Path_41359" data-name="Path 41359" d="M298.113,37.659l-9.784,23.355h-4.25l3.423-7.9-6.333-15.455h4.479l4.079,11.076,4.136-11.076Z" transform="translate(-209.154 -28.014)" fill="#fff"/>
  <path id="Path_41360" data-name="Path 41360" d="M359.724,24.517a5.748,5.748,0,0,1,2.111-1.861,6.613,6.613,0,0,1,3.109-.716,6.819,6.819,0,0,1,3.651,1,6.888,6.888,0,0,1,2.6,2.862,8.981,8.981,0,0,1,.97,4.265,9.328,9.328,0,0,1-.97,4.322,7.086,7.086,0,0,1-2.6,2.891,7.158,7.158,0,0,1-6.76.343,6.179,6.179,0,0,1-2.111-1.832v2.261H355.73V16.875h3.994Zm8.358,5.552a4.819,4.819,0,0,0-.6-2.461,3.913,3.913,0,0,0-1.541-1.6,4.037,4.037,0,0,0-2.054-.544,3.976,3.976,0,0,0-2.054.572,4.168,4.168,0,0,0-1.541,1.6,5.721,5.721,0,0,0,0,4.98,4.393,4.393,0,0,0,1.541,1.631,4.136,4.136,0,0,0,2.054.544,3.881,3.881,0,0,0,2.054-.572,4.11,4.11,0,0,0,1.541-1.631A5.039,5.039,0,0,0,368.082,30.069Z" transform="translate(-264.618 -12.553)" fill="#fff"/>
  <path id="Path_41361" data-name="Path 41361" d="M435.331,53.024a8.4,8.4,0,0,1-4.107-1,7.5,7.5,0,0,1-2.881-2.891,8.738,8.738,0,0,1-1.027-4.293,8.543,8.543,0,0,1,1.056-4.293,7.443,7.443,0,0,1,2.938-2.862,8.817,8.817,0,0,1,8.272,0,7.255,7.255,0,0,1,2.91,2.862,8.37,8.37,0,0,1,1.084,4.293,8.206,8.206,0,0,1-1.112,4.293,7.593,7.593,0,0,1-2.967,2.891A8.622,8.622,0,0,1,435.331,53.024Zm0-3.492a4.148,4.148,0,0,0,2.025-.515,3.911,3.911,0,0,0,1.541-1.6,5.368,5.368,0,0,0,.57-2.576,4.7,4.7,0,0,0-1.2-3.463,3.988,3.988,0,0,0-5.762,0,4.84,4.84,0,0,0-1.141,3.463,5.026,5.026,0,0,0,1.113,3.492A3.77,3.77,0,0,0,435.331,49.533Z" transform="translate(-317.868 -27.265)" fill="#fff"/>
  <path id="Path_41362" data-name="Path 41362" d="M576.224,48.406V33.1a1.391,1.391,0,0,0-1.391-1.357H572.05a1.391,1.391,0,0,0-1.391,1.357v15.3A1.4,1.4,0,0,0,572.05,49.8h2.782A1.4,1.4,0,0,0,576.224,48.406Z" transform="translate(-424.499 -23.616)" fill="#fff"/>
  <path id="Path_41363" data-name="Path 41363" d="M541.37,37.311h10.668A1.39,1.39,0,0,0,553.4,35.92V33.138a1.391,1.391,0,0,0-1.357-1.391H541.37a1.4,1.4,0,0,0-1.391,1.391V35.92A1.4,1.4,0,0,0,541.37,37.311Z" transform="translate(-401.677 -23.616)" fill="#fff"/>
  <path id="Path_41364" data-name="Path 41364" d="M575.854,5.39a2.957,2.957,0,0,0-5.9,0,2.959,2.959,0,0,0,5.9,0Z" transform="translate(-423.972 -1.94)" fill="#fff"/>
  <path id="Path_41365" data-name="Path 41365" d="M500.362,44.4s.475,1.018.917,1.764l1.8,2.545a2.15,2.15,0,0,0,1.9,1.086H508.3a.976.976,0,0,0,.814-1.595c-3.63-4.921-7.486-9.5-10.246-13.537L497.58,32.8a2.185,2.185,0,0,0-1.9-1.052h-3.325a.953.953,0,0,0-.78,1.561l5.327,7.26L491.27,48.2a.972.972,0,0,0,.78,1.595h3.325a2.187,2.187,0,0,0,1.9-1.086l1.8-2.545c.44-.746.984-1.764.984-1.764Z" transform="translate(-365.273 -23.616)" fill="#f8425f"/>
  <path id="Path_41366" data-name="Path 41366" d="M.787,0H28.438a.789.789,0,0,1,.787.787V28.438a.789.789,0,0,1-.787.787H16.055v-5.5h6.6a.459.459,0,0,0,.458-.458V7.176a.459.459,0,0,0-.458-.458H6.566a.459.459,0,0,0-.458.458V15.9H.385A2.1,2.1,0,0,0,0,15.94V.787A.789.789,0,0,1,.787,0ZM12.565,29.224H1.745v-9.83H6.109v3.873a.459.459,0,0,0,.458.458h6Z" fill="#fff"/>
  <path id="Path_41367" data-name="Path 41367" d="M13.925,65.563H.385A.385.385,0,0,0,0,65.948v13.54a.385.385,0,0,0,.385.385h13.54a.385.385,0,0,0,.385-.385V65.948A.385.385,0,0,0,13.925,65.563Z" transform="translate(0 -48.771)" fill="#f8425f"/>
</svg>
