<svg id="Group_56055" data-name="Group 56055" xmlns="http://www.w3.org/2000/svg" width="1920" height="450" viewBox="0 0 1920 450">
  <rect id="Rectangle_18323" data-name="Rectangle 18323" width="1920" height="450" fill="#eef3f5"/>
  <path id="Path_438" data-name="Path 438" d="M0,0H24V24H0Z" transform="translate(709 411)" fill="none"/>
  <g id="Group_54612" data-name="Group 54612">
    <g id="Group_54265" data-name="Group 54265" transform="translate(656.385 134.033)" opacity="0.362">
      <path id="Path_31887" data-name="Path 31887" d="M512.12,101.507a21.982,21.982,0,0,0-5.983,37.91,9.947,9.947,0,0,1-2.89,10.055s6.715-1.022,8.751-6.759a21.985,21.985,0,1,0,.123-41.206Z" transform="translate(-497.733 -100.146)" fill="#dadeea"/>
      <path id="Path_31888" data-name="Path 31888" d="M518.943,128.138a19.392,19.392,0,0,1,.106-2.133,9.106,9.106,0,0,1,.361-1.745,6.534,6.534,0,0,1,.687-1.489,9.148,9.148,0,0,1,1.066-1.366c.317-.352.617-.7.881-1.031a7.71,7.71,0,0,0,.7-1.013,5.57,5.57,0,0,0,.458-1.057,3.924,3.924,0,0,0,.167-1.19c0-1.974-.634-2.952-1.912-2.952a1.546,1.546,0,0,0-.687.167,1.827,1.827,0,0,0-.643.538,3.094,3.094,0,0,0-.476.934,4.65,4.65,0,0,0-.2,1.366H514.44a8.818,8.818,0,0,1,.564-3.216,5.99,5.99,0,0,1,3.71-3.569,8.4,8.4,0,0,1,2.749-.432,8.534,8.534,0,0,1,2.908.458,5.717,5.717,0,0,1,3.551,3.525,8.573,8.573,0,0,1,.476,2.97,6.5,6.5,0,0,1-.317,2.088,8.713,8.713,0,0,1-.828,1.762,12.489,12.489,0,0,1-1.19,1.6c-.449.511-.917,1.031-1.384,1.569a5.275,5.275,0,0,0-.643.916,4.833,4.833,0,0,0-.405.961,6.549,6.549,0,0,0-.22,1.084c-.044.388-.079.8-.088,1.269h-4.38Zm-.458,5.411a2.845,2.845,0,0,1,.194-1.075,2.538,2.538,0,0,1,.546-.855,2.647,2.647,0,0,1,.855-.573,2.878,2.878,0,0,1,1.119-.212,2.981,2.981,0,0,1,1.146.212,2.5,2.5,0,0,1,1.4,1.428,2.845,2.845,0,0,1,.194,1.075,2.923,2.923,0,0,1-.194,1.084,2.667,2.667,0,0,1-.546.864,2.394,2.394,0,0,1-.855.573,3.089,3.089,0,0,1-1.146.2,3.013,3.013,0,0,1-1.119-.2,2.319,2.319,0,0,1-.855-.573,2.525,2.525,0,0,1-.546-.864A2.923,2.923,0,0,1,518.485,133.549Z" transform="translate(-499.719 -101.31)" fill="#fff"/>
    </g>
    <g id="Group_54262" data-name="Group 54262" transform="translate(101.08 342.529)" opacity="0.362">
      <g id="Group_54250" data-name="Group 54250">
        <path id="Path_31889" data-name="Path 31889" d="M50.709,153.656l-22.524-1.851a8.944,8.944,0,0,0-9.676,9.182L19.8,203.454a9.829,9.829,0,0,0,10.187,9.517l10.2-.379c4.177,7.2,13.395,7.693,13.395,7.693-3.287-1.939-4.547-5.472-5-8.38a9.823,9.823,0,0,0,6.759-8.768l2.309-39.514A9.809,9.809,0,0,0,50.709,153.656Z" transform="translate(-18.505 -151.775)" fill="#dadeea"/>
        <path id="Path_31890" data-name="Path 31890" d="M36.441,189.23a25.606,25.606,0,0,1,.132-2.741,11.159,11.159,0,0,1,.467-2.238,8.227,8.227,0,0,1,.89-1.912,11.5,11.5,0,0,1,1.375-1.754c.405-.458.784-.9,1.137-1.331a9.1,9.1,0,0,0,.9-1.3,6.667,6.667,0,0,0,.59-1.366,5.266,5.266,0,0,0,.22-1.525q0-3.794-2.459-3.8a2.008,2.008,0,0,0-.89.22,2.336,2.336,0,0,0-.828.7,3.977,3.977,0,0,0-.617,1.207,6.177,6.177,0,0,0-.264,1.754H30.66A11.294,11.294,0,0,1,31.391,171a7.634,7.634,0,0,1,4.767-4.582,10.882,10.882,0,0,1,3.534-.555,11.026,11.026,0,0,1,3.745.59,7.314,7.314,0,0,1,4.556,4.521,11.086,11.086,0,0,1,.617,3.824,8.353,8.353,0,0,1-.405,2.688,10.871,10.871,0,0,1-1.066,2.265,16.411,16.411,0,0,1-1.525,2.044c-.573.661-1.172,1.322-1.771,2.009a7.028,7.028,0,0,0-.828,1.181,5.889,5.889,0,0,0-.52,1.242,8.356,8.356,0,0,0-.282,1.384c-.062.493-.1,1.031-.115,1.63H36.441Zm-.59,6.962a3.714,3.714,0,0,1,.247-1.383,3.326,3.326,0,0,1,.7-1.1,3.364,3.364,0,0,1,1.1-.74,4.006,4.006,0,0,1,2.908,0,3.365,3.365,0,0,1,1.1.74,3.326,3.326,0,0,1,.7,1.1,3.747,3.747,0,0,1,.247,1.383,3.9,3.9,0,0,1-.247,1.384,3.458,3.458,0,0,1-.7,1.11,3.113,3.113,0,0,1-1.1.74,3.863,3.863,0,0,1-1.463.264,3.8,3.8,0,0,1-1.445-.264,3.113,3.113,0,0,1-1.1-.74,3.458,3.458,0,0,1-.7-1.11A3.747,3.747,0,0,1,35.85,196.192Z" transform="translate(-19.949 -153.448)" fill="#fff"/>
      </g>
    </g>
    <g id="Group_54266" data-name="Group 54266" transform="translate(342.635 259.914)" opacity="0.362">
      <path id="Path_31891" data-name="Path 31891" d="M595.051,159.264l16.541-1.357a6.573,6.573,0,0,1,7.1,6.741l-.943,31.178a7.216,7.216,0,0,1-7.482,6.988l-7.49-.282c-3.067,5.287-9.834,5.649-9.834,5.649a8.356,8.356,0,0,0,3.675-6.151,7.232,7.232,0,0,1-4.97-6.442l-1.7-29.01A7.219,7.219,0,0,1,595.051,159.264Z" transform="translate(-589.935 -157.885)" fill="#dadeea"/>
      <path id="Path_31892" data-name="Path 31892" d="M602.939,185.386a19.435,19.435,0,0,1,.1-2.009,8.93,8.93,0,0,1,.344-1.648,5.981,5.981,0,0,1,.652-1.4,8.194,8.194,0,0,1,1.013-1.287c.3-.335.582-.661.837-.978a7.2,7.2,0,0,0,.661-.961,5,5,0,0,0,.432-1,3.774,3.774,0,0,0,.159-1.119c0-1.859-.6-2.785-1.806-2.785a1.509,1.509,0,0,0-.652.159,1.716,1.716,0,0,0-.608.511,2.854,2.854,0,0,0-.449.881,4.442,4.442,0,0,0-.194,1.287H598.7a8.116,8.116,0,0,1,.537-3.04,5.976,5.976,0,0,1,1.41-2.124,5.829,5.829,0,0,1,2.089-1.243,7.961,7.961,0,0,1,2.6-.405,8.111,8.111,0,0,1,2.749.432,5.373,5.373,0,0,1,3.349,3.322,8.058,8.058,0,0,1,.449,2.8,6.064,6.064,0,0,1-.3,1.974,8,8,0,0,1-.784,1.666,11.894,11.894,0,0,1-1.119,1.507c-.423.485-.864.969-1.3,1.48a5.224,5.224,0,0,0-.608.872,4.85,4.85,0,0,0-.388.908,5.993,5.993,0,0,0-.211,1.022,11.883,11.883,0,0,0-.079,1.19h-4.15Zm-.432,5.111a2.772,2.772,0,0,1,.185-1.022,2.37,2.37,0,0,1,.52-.811,2.527,2.527,0,0,1,.811-.546,2.725,2.725,0,0,1,1.057-.2,2.783,2.783,0,0,1,1.075.2,2.392,2.392,0,0,1,.811.546,2.509,2.509,0,0,1,.52.811,2.74,2.74,0,0,1,.185,1.022,2.773,2.773,0,0,1-.185,1.022,2.5,2.5,0,0,1-.52.82,2.271,2.271,0,0,1-.811.546,2.783,2.783,0,0,1-1.075.194,2.724,2.724,0,0,1-1.057-.194,2.164,2.164,0,0,1-.811-.546,2.648,2.648,0,0,1-.52-.82A2.772,2.772,0,0,1,602.507,190.5Z" transform="translate(-590.976 -159.112)" fill="#fff"/>
    </g>
    <g id="Group_54263" data-name="Group 54263" transform="translate(121.02 164.97)" opacity="0.362">
      <g id="Group_54252" data-name="Group 54252" transform="translate(0)">
        <path id="Path_31893" data-name="Path 31893" d="M142.588,150.132c4.75-2.908,7.649-6.785,7.649-11.042,0-9.015-12.989-16.32-29.019-16.32S92.2,130.075,92.2,139.09s12.989,16.32,29.019,16.32a47.391,47.391,0,0,0,14.311-2.124c3.657,6.186,11.606,6.609,11.606,6.609C143.223,157.6,142.615,152.7,142.588,150.132Z" transform="translate(-92.2 -122.77)" fill="#dadeea"/>
        <g id="Group_54251" data-name="Group 54251" transform="translate(14.866 14.567)">
          <path id="Path_31894" data-name="Path 31894" d="M109.07,141.459a2.453,2.453,0,0,1,.15-.855,2.077,2.077,0,0,1,.432-.679,2.049,2.049,0,0,1,.679-.458,2.473,2.473,0,0,1,1.789,0,2.049,2.049,0,0,1,.679.458,2.077,2.077,0,0,1,.432.679,2.266,2.266,0,0,1,.15.855,2.453,2.453,0,0,1-.15.855,2.215,2.215,0,0,1-.432.687,1.9,1.9,0,0,1-.679.449,2.6,2.6,0,0,1-1.789,0,1.9,1.9,0,0,1-.679-.449,1.98,1.98,0,0,1-.432-.687A2.453,2.453,0,0,1,109.07,141.459Z" transform="translate(-109.07 -139.3)" fill="#fff"/>
          <path id="Path_31895" data-name="Path 31895" d="M122.68,141.459a2.453,2.453,0,0,1,.15-.855,2.077,2.077,0,0,1,.432-.679,2.049,2.049,0,0,1,.679-.458,2.473,2.473,0,0,1,1.789,0,2.049,2.049,0,0,1,.679.458,2.077,2.077,0,0,1,.432.679,2.266,2.266,0,0,1,.15.855,2.453,2.453,0,0,1-.15.855,2.215,2.215,0,0,1-.432.687,1.9,1.9,0,0,1-.679.449,2.6,2.6,0,0,1-1.789,0,1.9,1.9,0,0,1-.679-.449,1.98,1.98,0,0,1-.432-.687A2.453,2.453,0,0,1,122.68,141.459Z" transform="translate(-110.687 -139.3)" fill="#fff"/>
          <path id="Path_31896" data-name="Path 31896" d="M136.29,141.459a2.454,2.454,0,0,1,.15-.855,2.078,2.078,0,0,1,.432-.679,2.049,2.049,0,0,1,.679-.458,2.473,2.473,0,0,1,1.789,0,2.05,2.05,0,0,1,.679.458,2.077,2.077,0,0,1,.432.679,2.266,2.266,0,0,1,.15.855,2.453,2.453,0,0,1-.15.855,2.215,2.215,0,0,1-.432.687,1.9,1.9,0,0,1-.679.449,2.6,2.6,0,0,1-1.789,0,1.9,1.9,0,0,1-.679-.449,1.98,1.98,0,0,1-.432-.687A2.454,2.454,0,0,1,136.29,141.459Z" transform="translate(-112.303 -139.3)" fill="#fff"/>
        </g>
      </g>
    </g>
    <g id="Group_54264" data-name="Group 54264" transform="translate(750.512 411.263)" opacity="0.362">
      <path id="Path_31897" data-name="Path 31897" d="M403.944,235.663a10.529,10.529,0,0,1-.167-1.7,9.183,9.183,0,0,0-5.314-16.673h-20.77a9.187,9.187,0,0,0,0,18.373h20.462c2.652,5.129,9.077,5.464,9.077,5.464A7.467,7.467,0,0,1,403.944,235.663Z" transform="translate(-368.51 -217.29)" fill="#dadeea"/>
      <g id="Group_54253" data-name="Group 54253" transform="translate(7.164 7.711)">
        <path id="Path_31898" data-name="Path 31898" d="M376.64,227.882a1.964,1.964,0,0,1,.132-.731,1.819,1.819,0,0,1,.37-.582,1.682,1.682,0,0,1,.582-.388,1.934,1.934,0,0,1,.758-.141,1.963,1.963,0,0,1,.775.141,1.68,1.68,0,0,1,.952.969,2.089,2.089,0,0,1,0,1.463,1.859,1.859,0,0,1-.37.59,1.569,1.569,0,0,1-.582.388,2.133,2.133,0,0,1-.775.141,1.876,1.876,0,0,1-.758-.141,1.568,1.568,0,0,1-.582-.388,1.767,1.767,0,0,1-.37-.59A1.964,1.964,0,0,1,376.64,227.882Z" transform="translate(-376.64 -226.04)" fill="#fff"/>
        <path id="Path_31899" data-name="Path 31899" d="M388.32,227.882a1.964,1.964,0,0,1,.132-.731,1.819,1.819,0,0,1,.37-.582,1.683,1.683,0,0,1,.582-.388,1.934,1.934,0,0,1,.758-.141,1.962,1.962,0,0,1,.775.141,1.68,1.68,0,0,1,.952.969,2.089,2.089,0,0,1,0,1.463,1.859,1.859,0,0,1-.37.59,1.569,1.569,0,0,1-.582.388,2.133,2.133,0,0,1-.775.141,1.876,1.876,0,0,1-.758-.141,1.569,1.569,0,0,1-.582-.388,1.766,1.766,0,0,1-.37-.59A1.964,1.964,0,0,1,388.32,227.882Z" transform="translate(-378.027 -226.04)" fill="#fff"/>
        <path id="Path_31900" data-name="Path 31900" d="M400.01,227.882a1.964,1.964,0,0,1,.132-.731,1.82,1.82,0,0,1,.37-.582,1.683,1.683,0,0,1,.582-.388,1.934,1.934,0,0,1,.758-.141,1.963,1.963,0,0,1,.776.141,1.68,1.68,0,0,1,.952.969,2.089,2.089,0,0,1,0,1.463,1.86,1.86,0,0,1-.37.59,1.569,1.569,0,0,1-.582.388,2.133,2.133,0,0,1-.776.141,1.876,1.876,0,0,1-.758-.141,1.569,1.569,0,0,1-.582-.388,1.768,1.768,0,0,1-.37-.59A1.964,1.964,0,0,1,400.01,227.882Z" transform="translate(-379.416 -226.04)" fill="#fff"/>
      </g>
    </g>
  </g>
</svg>
