<svg xmlns="http://www.w3.org/2000/svg" width="60" height="60" viewBox="0 0 60 60">
  <g id="icon" transform="translate(-571 -111)">
    <g id="Ellipse_51" data-name="Ellipse 51" transform="translate(571 111)" fill="#fff" stroke="#ffd0be" stroke-width="1">
      <circle cx="30" cy="30" r="30" stroke="none"/>
      <circle cx="30" cy="30" r="29.5" fill="none"/>
    </g>
    <g id="noun_Business_4184990" transform="translate(589 126)">
      <g id="Group_55678" data-name="Group 55678" transform="translate(3 7)">
        <path id="Path_37004" data-name="Path 37004" d="M14.217,13.066v.187h1.492v-.7h-.925A.544.544,0,0,0,14.217,13.066Z" transform="translate(-10.628 -10.774)" fill="#f8425f"/>
        <path id="Path_37005" data-name="Path 37005" d="M11.577,34.483c-.186-.018-.374-.039-.56-.063-.355-.042-.719-.1-1.08-.162-.166-.03-.325-.063-.484-.1s-.3-.063-.458-.1c-.03-.006-.063-.012-.093-.021-.159-.039-.312-.078-.46-.117s-.318-.087-.477-.138l-.056-.018c-.053-.015-.106-.033-.156-.048H7.746a.048.048,0,0,0-.02-.006c-.156-.054-.3-.1-.428-.15l-.093-.036c-.043-.015-.086-.033-.126-.048l-.2-.081L6.7,33.323c-.076-.03-.156-.066-.235-.105-.113-.054-.238-.114-.358-.177s-.235-.129-.345-.2c-.05-.03-.106-.063-.162-.1-.007,0-.01-.006-.013-.006v7.052a.694.694,0,0,0,.228.5.84.84,0,0,0,.554.207h6.473V35.331H12.31a.318.318,0,0,1-.332-.3v-.508C11.842,34.51,11.71,34.5,11.577,34.483Z" transform="translate(-4.76 -24.501)" fill="#f8425f"/>
        <path id="Path_37006" data-name="Path 37006" d="M31.244,27.705a.555.555,0,0,0-.378-.141.51.51,0,0,0-.533.484v1.6H31.4v-1.6A.46.46,0,0,0,31.244,27.705Z" transform="translate(-21.586 -20.984)" fill="#f8425f"/>
        <rect id="Rectangle_19025" data-name="Rectangle 19025" width="1.067" height="5.171" transform="translate(8.747 10.829)" fill="#f8425f"/>
        <rect id="Rectangle_19026" data-name="Rectangle 19026" width="2.797" height="0.967" transform="translate(7.881 9.26)" fill="#f8425f"/>
        <path id="Path_37007" data-name="Path 37007" d="M28.022,9.479V7.508A.537.537,0,0,0,27.462,7H21.509a.537.537,0,0,0-.56.508V9.479h.775V7.826a.316.316,0,0,1,.332-.3h4.859a.316.316,0,0,1,.332.3V9.479Z" transform="translate(-15.205 -7)" fill="#f8425f"/>
        <path id="Path_37008" data-name="Path 37008" d="M45.123,12.548v.7h1.492v-.187a.545.545,0,0,0-.567-.517h-.925Z" transform="translate(-31.644 -10.773)" fill="#f8425f"/>
        <path id="Path_37009" data-name="Path 37009" d="M42.993,39.789V32.737c-.069.045-.126.078-.186.111-.1.063-.219.129-.335.192s-.245.124-.371.183c-.067.033-.146.069-.229.1l-.163.069-.215.087c-.033.012-.076.03-.119.045l-.083.033c-.109.042-.219.078-.332.117l-.09.03c-.01,0-.023.009-.036.012h-.007c-.05.015-.1.033-.156.048l-.056.018c-.159.051-.318.1-.487.138-.139.039-.292.078-.451.117-.03.009-.063.015-.093.021-.153.036-.305.069-.461.1s-.315.066-.48.1c-.361.066-.726.12-1.084.162-.182.024-.371.045-.56.063-.129.015-.262.027-.4.039v.508a.318.318,0,0,1-.332.3h-.533V40.5h6.473A.752.752,0,0,0,42.993,39.789Z" transform="translate(-25.262 -24.501)" fill="#f8425f"/>
        <path id="Path_37010" data-name="Path 37010" d="M21.331,16.829a.827.827,0,0,0-.553-.2h-17A.75.75,0,0,0,3,17.334v2.308a1.743,1.743,0,0,0,.726,1.286,4.54,4.54,0,0,0,.364.279c.047.03.086.06.126.087.06.039.1.063.149.09.106.066.212.126.321.183s.219.111.338.165c.073.036.133.063.2.09l.175.072.189.078c.04.015.076.03.113.042l.1.036.378.135a.047.047,0,0,1,.02.006v0c.06.018.116.036.176.057l.056.015c.146.048.292.09.441.127s.311.081.471.12a.012.012,0,0,0,.007,0,.2.2,0,0,1,.043.006c.149.039.3.072.457.1s.308.063.468.093c.345.063.693.115,1.037.156.182.024.364.042.547.06.106.012.215.021.325.03v-.454a.318.318,0,0,1,.332-.3h.533v-1.6a1.146,1.146,0,0,1,1.2-1.084,1.254,1.254,0,0,1,.845.316,1.024,1.024,0,0,1,.351.769v1.6h.533a.318.318,0,0,1,.332.3v.454l.321-.027c.186-.021.368-.039.547-.063.348-.042.7-.093,1.041-.156.159-.03.312-.06.464-.093s.312-.063.46-.1a.2.2,0,0,1,.043-.006.012.012,0,0,0,.007,0c.159-.039.312-.075.461-.117s.3-.081.451-.129l.056-.015c.06-.02.116-.039.176-.057v0l.02-.009.079-.024.3-.108.093-.036c.036-.012.073-.027.106-.039.073-.03.139-.057.2-.081l.162-.072c.07-.027.129-.054.189-.084.132-.06.245-.114.351-.172s.215-.117.312-.177c.056-.033.1-.057.142-.087s.1-.066.136-.093a4.264,4.264,0,0,0,.371-.282,1.743,1.743,0,0,0,.726-1.286V17.334a.16.16,0,0,1,0-.039A.69.69,0,0,0,21.331,16.829Z" transform="translate(-3 -13.545)" fill="#f8425f"/>
      </g>
    </g>
  </g>
</svg>
