<svg xmlns="http://www.w3.org/2000/svg" xmlns:xlink="http://www.w3.org/1999/xlink" width="204" height="180" viewBox="0 0 204 180">
  <defs>
    <clipPath id="clip-path">
      <rect id="Rectangle_19067" data-name="Rectangle 19067" width="204" height="180" transform="translate(357 4451)" fill="#fff" stroke="#707070" stroke-width="1"/>
    </clipPath>
  </defs>
  <g id="Mask_Group_91" data-name="Mask Group 91" transform="translate(-357 -4451)" clip-path="url(#clip-path)">
    <g id="Group_55794" data-name="Group 55794" transform="translate(0 -13.596)">
      <g id="freepik--Shadow--inject-2" transform="translate(357.347 4629.162)">
        <ellipse id="freepik--path--inject-2" cx="97.918" cy="5.717" rx="97.918" ry="5.717" fill="#f5f5f5"/>
      </g>
      <g id="freepik--Speedometer--inject-2" transform="translate(367.502 4447)">
        <path id="Path_37211" data-name="Path 37211" d="M166.218,108.6l-.318-.394a83.989,83.989,0,0,1,6.919-5.05l.278.424a83,83,0,0,0-6.878,5.02Z" transform="translate(-120.61 -73.392)" fill="#263238"/>
        <path id="Path_37212" data-name="Path 37212" d="M158.813,118.107l-.343-.374c.677-.611,1.374-1.222,2.066-1.813l.328.389C160.172,116.895,159.485,117.5,158.813,118.107Z" transform="translate(-116.932 -79.708)" fill="#263238"/>
        <ellipse id="Ellipse_1738" data-name="Ellipse 1738" cx="58.198" cy="41.002" rx="58.198" ry="41.002" transform="translate(0 76.699) rotate(-41.22)" fill="#263238"/>
        <ellipse id="Ellipse_1739" data-name="Ellipse 1739" cx="50.487" cy="35.568" rx="50.487" ry="35.568" transform="translate(9.381 75.705) rotate(-41.22)" fill="#fff"/>
        <path id="Path_37213" data-name="Path 37213" d="M188.082,103.76c-21.862,1.773-44.275,20.706-50.062,42.25l79.171-6.409C222.979,118.036,209.945,101.992,188.082,103.76Z" transform="translate(-106.81 -73.623)" fill="#407bff"/>
        <path id="Path_37214" data-name="Path 37214" d="M138,159.559l39.588-3.207L157.014,131C147.954,138.656,140.9,148.777,138,159.559Z" transform="translate(-106.8 -87.172)" fill="#fff" opacity="0.7"/>
        <path id="Path_37215" data-name="Path 37215" d="M206.709,103.89c-10.929.889-22,6.06-31.059,13.7l20.584,25.342,10.474-39.043Z" transform="translate(-125.436 -73.753)" fill="#fff" opacity="0.4"/>
        <path id="Path_37216" data-name="Path 37216" d="M226.884,103.76,216.41,142.8l35.4-29.872C246.539,106.446,237.818,102.876,226.884,103.76Z" transform="translate(-145.612 -73.623)" fill="#fff" opacity="0.1"/>
        <ellipse id="Ellipse_1740" data-name="Ellipse 1740" cx="20.6" cy="14.509" rx="20.6" ry="14.509" transform="translate(45.739 71.851) rotate(-41.22)" fill="#fff"/>
        <ellipse id="Ellipse_1741" data-name="Ellipse 1741" cx="12.019" cy="8.469" rx="12.019" ry="8.469" transform="translate(56.172 70.741) rotate(-41.22)" fill="#263238"/>
        <path id="Path_37217" data-name="Path 37217" d="M249.029,139.85a119.332,119.332,0,0,0-26.579,14.09l3.722,6.666A130.123,130.123,0,0,0,249.029,139.85Z" transform="translate(-148.601 -91.553)" fill="#263238"/>
        <path id="Path_37218" data-name="Path 37218" d="M146.214,211.691a.763.763,0,0,1-.783-.929,1.379,1.379,0,0,1,1.192-1.091l43.527-3.449a.763.763,0,0,1,.859.924,1.364,1.364,0,0,1-1.187,1.086l-43.492,3.454Z" transform="translate(-110.469 -124.401)" fill="#407bff"/>
        <path id="Path_37219" data-name="Path 37219" d="M220.763,222.172a.758.758,0,0,1-.783-.929,1.364,1.364,0,0,1,1.192-1.086l14.141-1.126a.763.763,0,0,1,.864.924,1.374,1.374,0,0,1-1.192,1.091l-14.14,1.121Z" transform="translate(-147.369 -130.741)" fill="#407bff"/>
        <path id="Path_37220" data-name="Path 37220" d="M78.364,257.993a.763.763,0,0,1-.783-.929,1.374,1.374,0,0,1,1.212-1.086l14.14-1.126a.768.768,0,0,1,.864.924,1.374,1.374,0,0,1-1.187,1.091l-14.14,1.121Z" transform="translate(-76.885 -148.472)" fill="#407bff"/>
        <path id="Path_37221" data-name="Path 37221" d="M103.308,239.425a.757.757,0,0,1-.778-.929,1.369,1.369,0,0,1,1.187-1.086l42.421-3.368a.768.768,0,0,1,.864.924,1.379,1.379,0,0,1-1.192,1.091l-42.421,3.363Z" transform="translate(-89.233 -138.172)" fill="#407bff"/>
      </g>
      <g id="freepik--Character--inject-2" transform="translate(426.419 4493.464)">
        <path id="Path_37222" data-name="Path 37222" d="M284.39,331.377l1.8,3.631,8.893-3.2-1.8-3.631Z" transform="translate(-238.177 -231.237)" fill="#ff8b7b"/>
        <path id="Path_37223" data-name="Path 37223" d="M198.77,386.69l2.7,3.025,6.868-7.8-3.328-2.313Z" transform="translate(-195.797 -256.689)" fill="#ff8b7b"/>
        <path id="Path_37224" data-name="Path 37224" d="M199.174,394.292l-1.838-4.591a.338.338,0,0,0-.379-.207l-3.591.758a.616.616,0,0,0-.434.843c.616,1.465,1.131,2.525,1.874,4.363.46,1.146,1.722,4.646,2.358,6.227s2.247,1.1,2.131.384c-.54-3.177-.556-5.747-.106-7.045A1.01,1.01,0,0,0,199.174,394.292Z" transform="translate(-192.882 -261.583)" fill="#263238"/>
        <path id="Path_37225" data-name="Path 37225" d="M282.482,337.158l-1.965-3.969a.359.359,0,0,0-.4-.187l-3.586.884a.586.586,0,0,0-.389.843c.732,1.419,1.838,3.444,2.732,5.242,1.04,2.106,1.182,2.172,2.4,4.636.737,1.49,2.449,1.162,2.278.47-.788-3.151-1.227-3.7-.924-6.9a1.884,1.884,0,0,0-.152-1.015Z" transform="translate(-234.062 -233.619)" fill="#263238"/>
        <path id="Path_37226" data-name="Path 37226" d="M350.973,204.2c-.187,1.313-.389,2.727-.545,4.1s-.313,2.762-.429,4.141a58.708,58.708,0,0,0-.242,8.111,7.471,7.471,0,0,0,.071.965l.091.9a1.268,1.268,0,0,0,.864,1.207,5.524,5.524,0,0,0,1.439.434,17.171,17.171,0,0,0,3.757.141c.662-.045,1.338-.1,2.02-.177s1.374-.187,2.02-.283l.98,2.884a22.23,22.23,0,0,1-2.141.874,21.715,21.715,0,0,1-2.2.687,20.033,20.033,0,0,1-2.318.47,14.324,14.324,0,0,1-2.495.162,10.155,10.155,0,0,1-2.767-.419,6.923,6.923,0,0,1-2.9-1.742,6.591,6.591,0,0,1-1.677-3.166c-.035-.157-.051-.242-.066-.343l-.05-.293-.106-.6c-.076-.394-.126-.783-.172-1.172a52.184,52.184,0,0,1-.192-9.09c.1-1.485.2-2.959.384-4.424s.359-2.9.641-4.424Z" transform="translate(-267.586 -169.344)" fill="#ff8b7b"/>
        <path id="Path_37227" data-name="Path 37227" d="M343.427,196.254c-2.656,2.823-1.586,9.949-1.586,9.949l7.464,1.162a16.907,16.907,0,0,0,1.081-8.207C349.588,194.1,346.331,193.149,343.427,196.254Z" transform="translate(-266.509 -165.055)" fill="#7e007b"/>
        <path id="Path_37228" data-name="Path 37228" d="M345.846,202.192c-1.232-1.586-2.525-2.151-3.212-2.02-1.651,3.237-.813,8.823-.813,8.823l5.288.859A8.78,8.78,0,0,0,345.846,202.192Z" transform="translate(-266.499 -167.866)" opacity="0.2"/>
        <path id="Path_37229" data-name="Path 37229" d="M373.94,242.008l4.328-2.838.96,4.394s-2.692,2.727-4.934.8Z" transform="translate(-282.503 -187.179)" fill="#ff8b7b"/>
        <path id="Path_37230" data-name="Path 37230" d="M385.167,237.29l.5,3.8-2.2,1.545-.965-4.394Z" transform="translate(-286.74 -186.248)" fill="#ff8b7b"/>
        <path id="Path_37231" data-name="Path 37231" d="M299.3,331.816l-4.581,1.646-1.8-3.636,4.581-1.646Z" transform="translate(-242.399 -231.237)" opacity="0.2"/>
        <path id="Path_37232" data-name="Path 37232" d="M207.972,379.6l3.328,2.313-3.222,3.656-3.328-2.318Z" transform="translate(-198.757 -256.689)" opacity="0.2"/>
        <path id="Path_37233" data-name="Path 37233" d="M302.6,178.71c-3.071,15.711-11.247,29.887-12.388,33.018,2.929,1.227,13.984,5.833,20.009,8.343,11.237-16.721,12.959-28.821,13.216-31.75a1.2,1.2,0,0,0-.5-1.086c-.48-.348-1.247-.894-2.182-1.515-.505-.323-1.045-.662-1.626-1.01-.318-.187-.646-.369-.98-.545a80.3,80.3,0,0,0-8.51-3.535c-.545-.2-1.106-.389-1.656-.561s-1.01-.308-1.49-.439C304.335,179.053,302.6,178.71,302.6,178.71Z" transform="translate(-241.058 -157.252)" fill="#2699fb"/>
        <path id="Path_37235" data-name="Path 37235" d="M333.553,164.45c-.6,2.959-2.156,8.2-4.833,9.227a10.31,10.31,0,0,0,5.308,6.091c3.207,1.47,3.565-1.01,3.2-2.525-2.747-2.02-1.722-4.232-.308-6.136Z" transform="translate(-260.12 -150.193)" fill="#ff8b7b"/>
        <path id="Path_37236" data-name="Path 37236" d="M340.254,169.81l1.99,3.924a9.226,9.226,0,0,0-.889,1.4c-1.1-.657-2.167-2.606-1.783-3.879A4.458,4.458,0,0,1,340.254,169.81Z" transform="translate(-265.452 -152.846)" opacity="0.2"/>
        <path id="Path_37237" data-name="Path 37237" d="M352.154,156.136c3.166.232,5.969-7.666,1.348-8.585-3.116-.621-3.086,1.242-3.414,3.283S350.149,155.99,352.154,156.136Z" transform="translate(-270.645 -141.769)" fill="#263238"/>
        <path id="Path_37238" data-name="Path 37238" d="M338.122,152.4c-.813,3.939-1.49,6.2-.076,8.727,2.131,3.793,7.393,3.318,9.373-.3,1.778-3.257,2.813-9.151-.561-11.727a5.49,5.49,0,0,0-8.737,3.3Z" transform="translate(-264.33 -142.032)" fill="#ff8b7b"/>
        <path id="Path_37239" data-name="Path 37239" d="M335.056,154.452c3.166.232,5.288-6.989.667-7.914-3.116-.621-3.379,1.2-3.328,3.151C332.445,151.761,333.046,154.286,335.056,154.452Z" transform="translate(-261.936 -141.266)" fill="#263238"/>
        <path id="Path_37240" data-name="Path 37240" d="M335.969,143.881c2.136,1.035,12.433,3.252,11.843-1.177s-6.091-6.484-6.091-6.484,3.2,3.51.561,2.666-3.4-1.459-6.565-2.02c0,0,3.111,2.581-.505,1.853a8.585,8.585,0,0,0-6.141.98,6.106,6.106,0,0,1,2.666,5.692C331.489,149.285,335.969,143.881,335.969,143.881Z" transform="translate(-260.293 -136.22)" fill="#263238"/>
        <path id="Path_37241" data-name="Path 37241" d="M333.982,160.756a3.535,3.535,0,0,0,1.374,2.3c.97.712,1.853-.106,1.919-1.288.056-1.066-.379-2.722-1.515-2.959A1.585,1.585,0,0,0,333.982,160.756Z" transform="translate(-262.715 -147.383)" fill="#ff8b7b"/>
        <path id="Path_37242" data-name="Path 37242" d="M298.738,249.81l-4.212,13.565,21.68,13.635c-3.742,6.242-22.756,12.454-22.756,12.454l3.03,6.151s26.478-2.02,31.846-13.726c5.166-11.242-16.514-26.624-16.514-26.624Z" transform="translate(-242.662 -192.445)" fill="#263238"/>
        <path id="Path_37243" data-name="Path 37243" d="M305.783,276.466,302,274.1l4.656-6.767A39.372,39.372,0,0,1,305.783,276.466Z" transform="translate(-246.894 -201.117)" opacity="0.2"/>
        <path id="Path_37244" data-name="Path 37244" d="M305.783,276.466,302,274.1l4.656-6.767A39.372,39.372,0,0,1,305.783,276.466Z" transform="translate(-246.894 -201.117)" opacity="0.2"/>
        <path id="Path_37245" data-name="Path 37245" d="M262.543,250.469s-17.484,29.079-24.7,38.513c-7.9,10.333-28.367,29.8-28.367,29.8l-6.1-4.242s17.676-19.484,24.337-30.266c7.6-12.282,19.514-40.2,19.514-40.2Z" transform="translate(-198.078 -189.604)" fill="#263238"/>
        <path id="Path_37246" data-name="Path 37246" d="M209.676,386.286,202.5,381.3l1.49-2.146,8.121,5.439Z" transform="translate(-197.643 -256.466)" fill="#407bff"/>
        <path id="Path_37247" data-name="Path 37247" d="M296.391,333.849l-3.631-7.328,2.368-1.172,4.182,8.131Z" transform="translate(-242.32 -229.836)" fill="#407bff"/>
        <path id="Path_37248" data-name="Path 37248" d="M350.038,161.591c-.086.313,0,.616.217.672s.444-.152.53-.47,0-.616-.222-.672S350.124,161.278,350.038,161.591Z" transform="translate(-270.655 -148.541)" fill="#263238"/>
        <path id="Path_37249" data-name="Path 37249" d="M357.1,163.531c-.086.318,0,.616.217.672s.444-.152.53-.47,0-.616-.217-.672S357.184,163.207,357.1,163.531Z" transform="translate(-274.15 -149.501)" fill="#263238"/>
        <path id="Path_37250" data-name="Path 37250" d="M354,163.68a11.749,11.749,0,0,0,.773,3.111,1.889,1.889,0,0,1-1.586-.131Z" transform="translate(-272.232 -149.812)" fill="#ff5652"/>
        <path id="Path_37251" data-name="Path 37251" d="M348.622,168.933a2.717,2.717,0,0,1-1.515-1.515.1.1,0,0,1,.187-.061,2.576,2.576,0,0,0,1.768,1.515.091.091,0,0,1,.071.116.1.1,0,0,1-.121.066A2.845,2.845,0,0,1,348.622,168.933Z" transform="translate(-269.219 -151.6)" fill="#263238"/>
        <path id="Path_37252" data-name="Path 37252" d="M348.4,158.449a.222.222,0,0,1-.076-.061.187.187,0,0,1,.035-.268,1.914,1.914,0,0,1,1.717-.359.2.2,0,0,1,.116.247.192.192,0,0,1-.242.116h0a1.515,1.515,0,0,0-1.358.3A.2.2,0,0,1,348.4,158.449Z" transform="translate(-269.801 -146.849)" fill="#263238"/>
        <path id="Path_37253" data-name="Path 37253" d="M359.789,160.776a.187.187,0,0,1-.111-.141,1.515,1.515,0,0,0-.818-1.121.192.192,0,1,1,.146-.354,1.9,1.9,0,0,1,1.045,1.4.187.187,0,0,1-.151.222A.167.167,0,0,1,359.789,160.776Z" transform="translate(-274.973 -147.564)" fill="#263238"/>
        <path id="Path_37254" data-name="Path 37254" d="M204.791,400.93a4.656,4.656,0,0,1-.263-1.045.1.1,0,0,1,.045-.1.086.086,0,0,1,.1,0c.141.1,1.359.98,1.318,1.49a.333.333,0,0,1-.187.268.561.561,0,0,1-.54,0,1.177,1.177,0,0,1-.475-.611Zm-.025-.843c.126.7.348,1.177.6,1.308a.364.364,0,0,0,.364-.025c.071-.03.081-.071.081-.1C205.827,401.006,205.231,400.456,204.766,400.087Z" transform="translate(-198.646 -266.672)" fill="#407bff"/>
        <path id="Path_37255" data-name="Path 37255" d="M204.533,399.652a.1.1,0,0,1,.061-.131c.045,0,1.146-.4,1.677-.126a.5.5,0,0,1,.263.328h0a.328.328,0,0,1-.116.389c-.379.263-1.515-.126-1.858-.419A.11.11,0,0,1,204.533,399.652Zm1.8.086a.333.333,0,0,0-.157-.167,2.207,2.207,0,0,0-1.338.076c.444.258,1.247.46,1.475.3,0,0,.066-.045.035-.167h0Z" transform="translate(-198.646 -266.439)" fill="#407bff"/>
        <path id="Path_37256" data-name="Path 37256" d="M288.115,342.335a.091.091,0,0,1,.04-.091.1.1,0,0,1,.111,0c.167.126,1.626,1.217,1.6,1.783a.3.3,0,0,1-.157.253h0a.5.5,0,0,1-.505.045c-.55-.222-.924-1.333-1.1-1.975Zm1.56,1.641c-.04-.318-.737-.96-1.3-1.4.268.869.6,1.449.9,1.576a.348.348,0,0,0,.328-.03.106.106,0,0,0,.066-.1Z" transform="translate(-240.018 -238.19)" fill="#407bff"/>
        <path id="Path_37257" data-name="Path 37257" d="M288.12,342.122V342.1a.086.086,0,0,1,.061-.076,2.844,2.844,0,0,1,1.677-.126.687.687,0,0,1,.384.4h0a.352.352,0,0,1-.081.439c-.379.268-1.6-.212-2.02-.556A.085.085,0,0,1,288.12,342.122Zm1.965.338a.3.3,0,0,0-.025-.1h0a.5.5,0,0,0-.283-.3,2.217,2.217,0,0,0-1.353.076c.505.313,1.4.6,1.626.439a.111.111,0,0,0,.03-.121Zm.066-.131Z" transform="translate(-240.023 -237.977)" fill="#407bff"/>
        <path id="Path_37258" data-name="Path 37258" d="M286.663,180.042l-1.6-1.066c-.55-.359-1.111-.707-1.672-1.055-1.126-.692-2.267-1.348-3.419-1.98s-2.318-1.207-3.495-1.722c-.586-.268-1.177-.505-1.768-.732l-.884-.313-.222-.076-.111-.04h0a.146.146,0,0,1-.081-.035,4.414,4.414,0,0,0-1.268.076,13.974,13.974,0,0,0-1.717.429,37.874,37.874,0,0,0-3.651,1.374c-2.449,1.055-4.944,2.257-7.368,3.485l-1.712-2.525a54.417,54.417,0,0,1,6.984-5.05,35.2,35.2,0,0,1,3.954-2.076,19.228,19.228,0,0,1,2.268-.818,9.121,9.121,0,0,1,2.868-.4,6.837,6.837,0,0,1,.949.116l.237.056.141.035.278.071,1.111.288c.727.217,1.46.434,2.156.7a38.936,38.936,0,0,1,4.106,1.737c1.328.636,2.616,1.343,3.873,2.091.621.384,1.242.773,1.853,1.177s1.2.808,1.853,1.3Z" transform="translate(-224.966 -151.711)" fill="#ff8b7b"/>
        <path id="Path_37259" data-name="Path 37259" d="M315.165,178.7c-.894-2.212-9.343-5.237-9.343-5.237l-2.732,7.131s2.954,1.954,5.4,3.419C313.145,186.813,316.912,183.05,315.165,178.7Z" transform="translate(-247.433 -154.653)" fill="#7e007b"/>
        <path id="Path_37260" data-name="Path 37260" d="M258.463,184.978l-1.712,3.712-2.611-3.384s1.97-3.313,3.374-2.02Z" transform="translate(-223.204 -159.369)" fill="#ff8b7b"/>
        <path id="Path_37261" data-name="Path 37261" d="M250.863,192.13l-1.323-2.969,2.323-1.581,2.611,3.384Z" transform="translate(-220.927 -161.642)" fill="#ff8b7b"/>
      </g>
    </g>
  </g>
</svg>
