<svg xmlns="http://www.w3.org/2000/svg" width="197.461" height="180" viewBox="0 0 197.461 180">
  <g id="Savings-pana" transform="translate(-27.8 -45.597)">
    <g id="freepik--background-complete--inject-2" transform="translate(41.759 45.638)">
      <path id="Path_37041" data-name="Path 37041" d="M113.03,154.5a27.051,27.051,0,1,1-30.659-22.816A27.051,27.051,0,0,1,113.03,154.5Z" transform="translate(-59.215 -93.315)" fill="#f5f5f5"/>
      <path id="Path_37042" data-name="Path 37042" d="M114.717,163.466a20.613,20.613,0,1,1-23.358-17.391A20.613,20.613,0,0,1,114.717,163.466Z" transform="translate(-67.27 -101.347)" fill="#ebebeb"/>
      <path id="Path_37043" data-name="Path 37043" d="M114.161,161.826a13.344,13.344,0,0,1-.889-2.373,22,22,0,0,0-3.261-5.914,21.328,21.328,0,0,0-3.239-3.315,20.638,20.638,0,0,0-4.506-2.782,19.13,19.13,0,0,0-2.688-1,18.79,18.79,0,0,0-2.919-.618,19.6,19.6,0,0,0-3.079-.182,22.028,22.028,0,0,0-3.168.307,22.507,22.507,0,0,0-3.079.8,20.286,20.286,0,0,0-2.839,1.231,19.442,19.442,0,0,0-2.528,1.591,18.858,18.858,0,0,0-2.177,1.857,20.48,20.48,0,0,0-3.27,4.15,21.2,21.2,0,0,0-1.9,4.226,21.968,21.968,0,0,0-1.026,6.665,16.383,16.383,0,0,1,0,2.537A5.79,5.79,0,0,1,73,166.505a19.009,19.009,0,0,1,.569-7.016A20.741,20.741,0,0,1,75.4,154.93a21.026,21.026,0,0,1,3.377-4.546,19.294,19.294,0,0,1,2.306-2.035,19.755,19.755,0,0,1,2.7-1.746,21.2,21.2,0,0,1,3.053-1.333,22.608,22.608,0,0,1,3.319-.889,22.964,22.964,0,0,1,3.417-.324,21.029,21.029,0,0,1,3.324.218,20.394,20.394,0,0,1,3.137.711A19.382,19.382,0,0,1,102.9,146.1a21.008,21.008,0,0,1,4.737,3.11,20.764,20.764,0,0,1,3.292,3.648,19.053,19.053,0,0,1,2.95,6.394A5.661,5.661,0,0,1,114.161,161.826Z" transform="translate(-66.815 -100.348)" fill="#e0e0e0"/>
      <path id="Path_37044" data-name="Path 37044" d="M112.678,186.022l.569,3.555-3.164.507-.555-3.448a15.226,15.226,0,0,1-8.287-1.271l1.106-4.137a12.992,12.992,0,0,0,6.5,1.262L108,177.2c-3.648-.289-7.762-.835-8.487-5.363-.538-3.355,1.44-6.625,6.349-8l-.564-3.515,3.168-.507.551,3.448a14.592,14.592,0,0,1,6.736.889l-.96,4.15a13.081,13.081,0,0,0-5.105-.889l.862,5.381c3.644.262,7.7.813,8.411,5.279C119.5,181.392,117.553,184.627,112.678,186.022Zm-5.4-13.485-.72-4.5c-1.617.649-2.137,1.675-1.968,2.719s1.222,1.582,2.688,1.777Zm6.665,6.758c-.178-1.111-1.191-1.564-2.63-1.822l.7,4.372C113.54,181.228,114.1,180.308,113.94,179.3Z" transform="translate(-81.56 -109.108)" fill="#e0e0e0"/>
      <path id="Path_37045" data-name="Path 37045" d="M355.812,116.864a19.657,19.657,0,1,1-26.975-6.581A19.657,19.657,0,0,1,355.812,116.864Z" transform="translate(-203.773 -79.993)" fill="#f5f5f5"/>
      <path id="Path_37046" data-name="Path 37046" d="M357.653,125.129a14.983,14.983,0,1,1-20.559-5.012,14.983,14.983,0,0,1,20.559,5.012Z" transform="translate(-209.613 -85.836)" fill="#ebebeb"/>
      <path id="Path_37047" data-name="Path 37047" d="M356.845,124.067c-.076.053-.471-.475-1.275-1.333a15.832,15.832,0,0,0-3.857-3.03,15.321,15.321,0,0,0-3.11-1.3,15.106,15.106,0,0,0-3.8-.587,14.314,14.314,0,0,0-2.079.1,13.939,13.939,0,0,0-2.128.413,14.129,14.129,0,0,0-2.115.751,14.863,14.863,0,0,0-3.866,2.515,14.643,14.643,0,0,0-3.719,5.265,14.815,14.815,0,0,0-1.009,3.715,15.432,15.432,0,0,0-.076,3.364,15.91,15.91,0,0,0,1.2,4.754,10.361,10.361,0,0,1,.706,1.706c-.076.049-.511-.444-1.106-1.506A13.863,13.863,0,0,1,329,134.034a15.031,15.031,0,0,1-.067-3.555,15.365,15.365,0,0,1,1.937-6.016,14.991,14.991,0,0,1,1.333-1.933,14.721,14.721,0,0,1,1.657-1.777,15.107,15.107,0,0,1,4.168-2.71,14.869,14.869,0,0,1,2.288-.8,14.632,14.632,0,0,1,2.3-.418,14.072,14.072,0,0,1,2.222-.062,14.947,14.947,0,0,1,7.283,2.222,13.828,13.828,0,0,1,3.786,3.439C356.632,123.419,356.916,124.032,356.845,124.067Z" transform="translate(-209.049 -85.174)" fill="#e0e0e0"/>
      <path id="Path_37048" data-name="Path 37048" d="M360.336,146.355l1.382,2.222-1.973,1.235-1.333-2.151a11.081,11.081,0,0,1-5.91,1.5l-.422-3.11a9.393,9.393,0,0,0,4.71-1l-2.066-3.3c-2.524.84-5.43,1.644-7.2-1.182-1.311-2.093-.915-4.843,1.982-7.149l-1.373-2.195,1.977-1.235,1.333,2.155a10.513,10.513,0,0,1,4.781-1.293l.533,3.048a9.584,9.584,0,0,0-3.666.862l2.1,3.359c2.515-.862,5.381-1.635,7.109,1.146C363.588,141.32,363.2,144.04,360.336,146.355Zm-7.443-7.474-1.755-2.8c-.889.889-.955,1.724-.547,2.377S351.853,139.13,352.893,138.881Zm6.376,2.63c-.444-.689-1.24-.706-2.275-.471l1.706,2.724c.853-.853.964-1.635.569-2.271Z" transform="translate(-219.023 -92.532)" fill="#e0e0e0"/>
      <path id="Path_37049" data-name="Path 37049" d="M322.382,64.36a10.122,10.122,0,1,1,3.141-13.948A10.122,10.122,0,0,1,322.382,64.36Z" transform="translate(-196.812 -45.688)" fill="#f5f5f5"/>
      <path id="Path_37050" data-name="Path 37050" d="M324.12,65.334A7.714,7.714,0,1,1,326.515,54.7,7.714,7.714,0,0,1,324.12,65.334Z" transform="translate(-199.834 -48.697)" fill="#ebebeb"/>
      <path id="Path_37051" data-name="Path 37051" d="M328.561,64.912c-.022-.04.244-.249.68-.671a8.185,8.185,0,0,0,1.524-2.013,7.876,7.876,0,0,0,.64-1.613,7.621,7.621,0,0,0,.267-1.96,6.732,6.732,0,0,0-.067-1.071,7.372,7.372,0,0,0-.231-1.093,7.554,7.554,0,0,0-.409-1.08,8.618,8.618,0,0,0-.587-1.04,8.391,8.391,0,0,0-.742-.942,7.761,7.761,0,0,0-.849-.782,7.2,7.2,0,0,0-.929-.622,6.857,6.857,0,0,0-.964-.444,8.038,8.038,0,0,0-1.924-.484,7.793,7.793,0,0,0-1.733,0,8.145,8.145,0,0,0-2.439.662,4.491,4.491,0,0,1-.889.378,2.3,2.3,0,0,1,.769-.582,7.189,7.189,0,0,1,2.484-.889A7.762,7.762,0,0,1,325,50.6a7.864,7.864,0,0,1,2.066.444,7.367,7.367,0,0,1,1.049.48,7.489,7.489,0,0,1,1,.658,8.206,8.206,0,0,1,.929.835,9.326,9.326,0,0,1,.8,1,8.466,8.466,0,0,1,.653,1.137,7.765,7.765,0,0,1,.444,1.173,7.363,7.363,0,0,1,.235,1.177,7.825,7.825,0,0,1-1.035,4.923,7.109,7.109,0,0,1-1.737,1.977A2.3,2.3,0,0,1,328.561,64.912Z" transform="translate(-204.075 -48.405)" fill="#e0e0e0"/>
      <path id="Path_37052" data-name="Path 37052" d="M319.777,66.807l-1.129.733L318,66.527l1.093-.711a5.665,5.665,0,0,1-.822-3.026l1.586-.249a4.888,4.888,0,0,0,.555,2.417l1.657-1.1c-.444-1.293-.889-2.782.542-3.719,1.066-.693,2.484-.515,3.7.955l1.115-.724.653,1-1.093.706a5.474,5.474,0,0,1,.715,2.439l-1.564.3a4.962,4.962,0,0,0-.48-1.853l-1.711,1.115c.467,1.284.889,2.755-.524,3.675C322.377,68.433,320.977,68.26,319.777,66.807Zm3.786-3.9,1.431-.929c-.467-.444-.889-.475-1.231-.258s-.364.653-.218,1.186Zm-1.3,3.31c.355-.231.355-.644.227-1.177l-1.391.889c.422.444.826.5,1.146.289Z" transform="translate(-203.014 -53.503)" fill="#e0e0e0"/>
    </g>
    <g id="freepik--Desk--inject-2" transform="translate(27.8 225.366)">
      <path id="Path_37053" data-name="Path 37053" d="M225.261,450.3c0,.067-44.207.116-98.726.116S27.8,450.362,27.8,450.3s44.2-.116,98.735-.116S225.261,450.233,225.261,450.3Z" transform="translate(-27.8 -450.18)" fill="#263238"/>
    </g>
    <g id="freepik--Plants--inject-2" transform="translate(33.897 133.683)">
      <path id="Path_37054" data-name="Path 37054" d="M61.845,370.886c.5-1.942-.773-3.9-2.222-5.305s-3.137-2.666-3.879-4.537c-1.2-3.021.413-6.932-1.64-9.451-1.209-1.484-3.377-1.982-4.443-3.555a8.106,8.106,0,0,1-.969-2.83,28.7,28.7,0,0,0-7.136-13.388,24.962,24.962,0,0,0,2.808,12.886,16.24,16.24,0,0,1,2.128,4.888c.444,2.87-1.155,5.83-.444,8.647.8,3.226,4.443,5.385,4.6,8.7.147,2.808-2.3,5.27-2.119,8.073a7.647,7.647,0,0,0,1.249,3.328c2.177,3.626,5.354,6.11,10.175,6.03l5.918.2Z" transform="translate(-41.522 -292.728)" fill="#ff725e"/>
      <g id="Group_55705" data-name="Group 55705" transform="translate(0 39.092)" opacity="0.3">
        <path id="Path_37055" data-name="Path 37055" d="M61.845,370.886c.5-1.942-.773-3.9-2.222-5.305s-3.137-2.666-3.879-4.537c-1.2-3.021.413-6.932-1.64-9.451-1.209-1.484-3.377-1.982-4.443-3.555a8.106,8.106,0,0,1-.969-2.83,28.7,28.7,0,0,0-7.136-13.388,24.962,24.962,0,0,0,2.808,12.886,16.24,16.24,0,0,1,2.128,4.888c.444,2.87-1.155,5.83-.444,8.647.8,3.226,4.443,5.385,4.6,8.7.147,2.808-2.3,5.27-2.119,8.073a7.647,7.647,0,0,0,1.249,3.328c2.177,3.626,5.354,6.11,10.175,6.03l5.918.2Z" transform="translate(-41.522 -331.82)"/>
      </g>
      <path id="Path_37056" data-name="Path 37056" d="M95.266,358.862a4.711,4.711,0,0,0,1.631-.031,10.339,10.339,0,0,0,1.92-.484,8.2,8.2,0,0,0,2.377-1.3,3.319,3.319,0,0,0,.978-1.3,6.038,6.038,0,0,0,.275-1.777,18.016,18.016,0,0,1,.142-1.915,5.248,5.248,0,0,1,.72-1.9c.7-1.226,1.857-2.386,2.222-4.052a14.218,14.218,0,0,0-.16-5.185,10.988,10.988,0,0,1,.138-5.559c.68-1.848,1.933-3.524,2.582-5.607s.347-4.377.48-6.612a8.811,8.811,0,0,1,.773-3.284c.48-1.049,1.142-2.035,1.662-3.141,1.049-2.222,1.235-4.754,1.524-7.229q.209-1.875.444-3.781a18.812,18.812,0,0,1,.658-3.786,33.051,33.051,0,0,1,1.417-3.661,12.517,12.517,0,0,0,.684-1.915,18.844,18.844,0,0,0,.191-2.035,23.887,23.887,0,0,0-.156-4.1c-.16-1.364-.409-2.719-.555-4.088l-.027-.235-.031-.271-.24.12a9.158,9.158,0,0,0-3.186,2.688,14.529,14.529,0,0,0-1.96,3.608,45.367,45.367,0,0,0-1.84,7.749,20.946,20.946,0,0,1-2.444,7.167c-.644,1.053-1.431,2.013-2.119,3.044a8.393,8.393,0,0,0-1.466,3.372c-.351,2.5,1.026,4.7.742,6.918a7.674,7.674,0,0,1-1.08,3.07c-.538.946-1.169,1.822-1.777,2.706a17.387,17.387,0,0,0-1.591,2.728,8.6,8.6,0,0,0-.724,2.968c-.147,2,.138,3.888,0,5.674a13.086,13.086,0,0,1-1.457,4.865c-.72,1.453-1.515,2.773-2.182,4.048a19.871,19.871,0,0,0-.889,1.884,9.562,9.562,0,0,0-.52,1.875,11.846,11.846,0,0,0-.04,3.377,8.474,8.474,0,0,0,1.7,4.292,4.329,4.329,0,0,0,.475.52,2.557,2.557,0,0,0,.391.329c.218.164.338.235.338.235a7.012,7.012,0,0,1-1.146-1.133,8.558,8.558,0,0,1-1.608-4.275,11.948,11.948,0,0,1,.076-3.332,9.6,9.6,0,0,1,.524-1.826c.253-.609.564-1.231.889-1.862.675-1.262,1.48-2.573,2.222-4.039a13.17,13.17,0,0,0,1.511-4.95c.156-1.826-.116-3.724.036-5.674a8.287,8.287,0,0,1,.711-2.866,16.774,16.774,0,0,1,1.573-2.666c.6-.889,1.235-1.755,1.777-2.724a8,8,0,0,0,1.133-3.195c.284-2.364-1.084-4.577-.729-6.9a8,8,0,0,1,1.417-3.226c.675-1.013,1.466-1.973,2.133-3.053a21.681,21.681,0,0,0,2.488-7.278,43.339,43.339,0,0,1,1.831-7.687,14.084,14.084,0,0,1,1.906-3.51,8.731,8.731,0,0,1,3.053-2.577l-.275-.151.027.24c.151,1.382.4,2.742.555,4.088a23.629,23.629,0,0,1,.156,4.035,17.778,17.778,0,0,1-.182,1.977,11.752,11.752,0,0,1-.662,1.844,34,34,0,0,0-1.426,3.7,18.726,18.726,0,0,0-.666,3.848q-.213,1.915-.418,3.786c-.284,2.484-.471,4.972-1.48,7.109-.5,1.071-1.164,2.062-1.657,3.146a9.131,9.131,0,0,0-.8,3.4c-.129,2.284.169,4.519-.444,6.541s-1.9,3.692-2.555,5.6a11.81,11.81,0,0,0-.129,5.7,13.335,13.335,0,0,1,.191,5.092c-.382,1.577-1.466,2.737-2.177,4a5.4,5.4,0,0,0-.733,1.977,16.573,16.573,0,0,0-.124,1.937,6.015,6.015,0,0,1-.253,1.72,3.137,3.137,0,0,1-.92,1.244,8.241,8.241,0,0,1-2.315,1.311,10.419,10.419,0,0,1-1.9.511,7.52,7.52,0,0,1-1.2.12C95.426,358.858,95.266,358.862,95.266,358.862Z" transform="translate(-69.727 -267.05)" fill="#263238"/>
      <path id="Path_37057" data-name="Path 37057" d="M117.737,293.57a.889.889,0,0,0-.058.182c-.036.142-.076.315-.129.533-.116.467-.258,1.169-.48,2.048s-.769,1.866-1.226,3.088a43.6,43.6,0,0,0-1.409,4.2c-.444,1.577-.853,3.332-1.271,5.208a21.435,21.435,0,0,1-1.893,5.776c-.484.96-1.031,1.933-1.466,3a13.775,13.775,0,0,0-.849,3.395,68.052,68.052,0,0,1-1.28,7.158c-1.186,4.852-2.315,9.469-3.346,13.677l-2.8,11.153c-.778,3.155-1.413,5.719-1.857,7.523-.2.889-.369,1.555-.489,2.053-.044.218-.084.4-.116.538a.635.635,0,0,0-.027.182.889.889,0,0,0,.067-.173l.151-.529c.138-.493.32-1.173.555-2.031.475-1.8,1.151-4.354,1.977-7.5l2.884-11.13c1.04-4.208,2.177-8.824,3.377-13.677a68.766,68.766,0,0,0,1.275-7.189,13.716,13.716,0,0,1,.8-3.3c.418-1.035.955-2,1.44-2.977a22.026,22.026,0,0,0,1.893-5.865c.418-1.866.786-3.63,1.217-5.208s.889-2.977,1.333-4.19.955-2.222,1.173-3.133.32-1.6.413-2.071c.036-.218.067-.4.093-.538A.888.888,0,0,0,117.737,293.57Z" transform="translate(-73.483 -271.473)" fill="#263238"/>
      <path id="Path_37058" data-name="Path 37058" d="M74.653,335.692c3.866-2.3,4.977-9.1,3.364-13.294s-4.443-8.034-4.888-12.508c-.338-3.439.791-6.972,0-10.335-1.075-4.546-5.505-8.051-5.452-12.717.027-2.617,1.515-5.079,1.4-7.7-.147-3.2-2.608-5.75-4.132-8.576-2.337-4.323-2.488-9.438-3.288-14.285s-2.666-10.042-6.94-12.441c-.635,4.114-1.72,6.936-1.377,12.512.12,2,2.448,5.834,2.764,10.22.191,2.626.32,5.252.48,7.878A25.207,25.207,0,0,0,57.822,282c.7,1.835,1.826,3.5,2.351,5.39.978,3.555-.311,7.411.48,11.015.671,3.053,2.786,5.683,3.217,8.78.609,4.35-2.222,8.887-.769,13.019.715,2.062,2.413,3.715,2.893,5.839.373,1.653-.036,3.4.3,5.056.547,2.666,5.639,4.745,8.358,4.577" transform="translate(-48.052 -243.84)" fill="#5ab549"/>
      <path id="Path_37059" data-name="Path 37059" d="M58.9,253.07a1.334,1.334,0,0,0,0,.236c0,.173.053.4.089.675.089.6.187,1.466.387,2.595s.8,2.413,1.271,3.955.982,3.31,1.417,5.292.809,4.181,1.2,6.541a26.937,26.937,0,0,0,1.982,7.4c.542,1.235,1.151,2.47,1.608,3.79a16.884,16.884,0,0,1,.813,4.177,84.22,84.22,0,0,0,1.137,9c1.182,6.1,2.311,11.908,3.337,17.2s2.057,10.011,2.875,14.005,1.5,7.185,1.973,9.438c.235,1.093.422,1.951.555,2.564.062.276.116.493.156.662a1.094,1.094,0,0,0,.062.222.768.768,0,0,0-.027-.231c-.031-.169-.067-.391-.116-.671-.116-.613-.28-1.475-.484-2.577-.444-2.257-1.075-5.483-1.853-9.46s-1.746-8.749-2.8-14.023l-3.306-17.191a84.606,84.606,0,0,1-1.12-8.971,17.218,17.218,0,0,0-.844-4.261c-.471-1.333-1.084-2.586-1.631-3.812a27.335,27.335,0,0,1-1.991-7.309c-.418-2.355-.786-4.559-1.244-6.545s-.964-3.763-1.48-5.3-1.093-2.813-1.333-3.919-.347-1.991-.444-2.577c-.053-.275-.093-.5-.124-.671A.888.888,0,0,0,58.9,253.07Z" transform="translate(-51.177 -248.969)" fill="#263238"/>
      <path id="Path_37060" data-name="Path 37060" d="M433.98,390.972a4.946,4.946,0,0,1,2.564,2.9,8.776,8.776,0,0,1,.342,3.932,15.408,15.408,0,0,1-3.3,7.167c-2.151-1.875-2.666-5.145-2.79-6.82-.231-2.666.955-7.576,3.186-7.18" transform="translate(-257.813 -325.584)" fill="#5ab549"/>
      <path id="Path_37061" data-name="Path 37061" d="M442.62,425.352a4.226,4.226,0,0,1,1.364-4,5.607,5.607,0,0,1,4.132-1.293,2.368,2.368,0,0,1,1.813.813,1.8,1.8,0,0,1,.031,1.831,3.647,3.647,0,0,1-1.355,1.333c-1.862,1.169-3.879,1.96-5.985,1.333" transform="translate(-264.355 -341.746)" fill="#5ab549"/>
      <path id="Path_37062" data-name="Path 37062" d="M436.52,436.29a3.114,3.114,0,0,1,.076-.524c.067-.369.156-.844.262-1.417a14.727,14.727,0,0,1,1.462-4.537,9.033,9.033,0,0,1,3.248-3.452,5.915,5.915,0,0,1,1.333-.587,3.461,3.461,0,0,1,.382-.1c.089,0,.138-.027.138,0a8.389,8.389,0,0,0-4.932,4.243A15.844,15.844,0,0,0,437,434.362c-.133.6-.24,1.075-.32,1.4A2.618,2.618,0,0,1,436.52,436.29Z" transform="translate(-261.01 -344.874)" fill="#263238"/>
      <path id="Path_37063" data-name="Path 37063" d="M436.571,399.59a1.619,1.619,0,0,1,.027.231c0,.169.022.387.04.658.031.569.062,1.4.1,2.422.062,2.044.116,4.888.1,8s-.089,5.95-.173,8c-.04,1.022-.084,1.848-.12,2.422,0,.267-.031.484-.044.658a1.052,1.052,0,0,1-.027.227,1.33,1.33,0,0,1,0-.231v-.658c0-.6.036-1.417.058-2.422.053-2.044.107-4.888.12-8s0-5.945-.049-8c0-1-.027-1.826-.04-2.422v-.658a1.336,1.336,0,0,1,.009-.227Z" transform="translate(-260.981 -330.385)" fill="#263238"/>
      <path id="Path_37064" data-name="Path 37064" d="M424.293,425.976a9.864,9.864,0,0,0-5.39-7.229,1.633,1.633,0,0,0-2.417,2.186,8.442,8.442,0,0,0,7.758,5.234" transform="translate(-249.747 -340.833)" fill="#5ab549"/>
      <path id="Path_37065" data-name="Path 37065" d="M423,424.64a2.381,2.381,0,0,1,.444.2,5.108,5.108,0,0,1,.515.275,7.648,7.648,0,0,1,.658.413,8.95,8.95,0,0,1,.751.564,10.547,10.547,0,0,1,.8.724,11.011,11.011,0,0,1,1.515,1.951,10.814,10.814,0,0,1,1,2.262,9.91,9.91,0,0,1,.253,1.049,8.964,8.964,0,0,1,.129.933,7.011,7.011,0,0,1,.036.773,4.636,4.636,0,0,1,0,.582,2.556,2.556,0,0,1-.053.5c-.044,0,.031-.711-.093-1.84a8.865,8.865,0,0,0-.151-.915,9.231,9.231,0,0,0-.267-1.026,10.985,10.985,0,0,0-1-2.222,11.248,11.248,0,0,0-1.48-1.928,10.463,10.463,0,0,0-.778-.724,8.386,8.386,0,0,0-.724-.578C423.631,424.969,423,424.676,423,424.64Z" transform="translate(-253.497 -344.305)" fill="#263238"/>
    </g>
    <g id="freepik--Character--inject-2" transform="translate(65.088 45.597)">
      <path id="Path_37066" data-name="Path 37066" d="M227.248,203.938s-20.746-14.7-23.372-16.147c-2.5-1.377-10.442-2.377-11.153-2.55l-14.219-3.11-21.719.649-6.221,3.746L134.8,193.8a18.7,18.7,0,0,0-9.478,9.891L115.37,228l24.718,7.3.769,25.642-5.825,40.4h72.284l-3.639-77.425,7.527,1.657Z" transform="translate(-113.748 -121.464)" fill="#263238"/>
      <path id="Path_37067" data-name="Path 37067" d="M145.189,272.391s-.262.191-.764.484a6.332,6.332,0,0,1-2.311.844,8.553,8.553,0,0,1-3.6-.524,25.7,25.7,0,0,1-4.106-1.777c-1.409-.733-2.728-1.475-3.963-2.071a22.144,22.144,0,0,0-3.386-1.355,13.4,13.4,0,0,0-2.408-.489c-.289-.031-.511-.044-.667-.049h-.231a6.271,6.271,0,0,1,.889.031,12.316,12.316,0,0,1,2.422.444,21.419,21.419,0,0,1,3.4,1.333c1.244.6,2.564,1.333,3.972,2.071a26.552,26.552,0,0,0,4.088,1.777,8.589,8.589,0,0,0,3.555.538,6.355,6.355,0,0,0,2.3-.809c.253-.142.444-.258.578-.338A1.175,1.175,0,0,1,145.189,272.391Z" transform="translate(-118.405 -168.874)" fill="#fff"/>
      <path id="Path_37068" data-name="Path 37068" d="M150,247.1h-.164l-.471-.022c-.409-.022-1-.067-1.728-.138a45.323,45.323,0,0,1-11.108-2.559c-.689-.253-1.24-.471-1.617-.631l-.444-.187-.151-.071.16.053.444.169c.382.151.938.36,1.626.6a48.614,48.614,0,0,0,11.108,2.555c.724.08,1.333.138,1.72.169l.471.04Z" transform="translate(-124.278 -155.56)" fill="#fff"/>
      <path id="Path_37069" data-name="Path 37069" d="M176.951,194.87s-.187.3-.578.809a11.451,11.451,0,0,1-1.906,1.915,16.821,16.821,0,0,1-3.444,2.062,34.92,34.92,0,0,1-4.626,1.688c-1.675.5-3.275.938-4.71,1.409a27.212,27.212,0,0,0-3.723,1.489,16.068,16.068,0,0,0-2.319,1.382c-.267.178-.444.342-.587.444l-.209.151s.262-.24.773-.627a15.955,15.955,0,0,1,2.311-1.413,27.172,27.172,0,0,1,3.728-1.506c1.435-.48,3.039-.92,4.71-1.417a35.44,35.44,0,0,0,4.617-1.675,17.328,17.328,0,0,0,3.439-2.035,11.842,11.842,0,0,0,1.942-1.875c.209-.24.338-.444.444-.582A1.006,1.006,0,0,0,176.951,194.87Z" transform="translate(-135.686 -128.543)" fill="#fff"/>
      <path id="Path_37070" data-name="Path 37070" d="M279.035,197.008s-.067-.031-.191-.1-.293-.178-.533-.3a13.512,13.512,0,0,0-2.062-.889,23.111,23.111,0,0,0-3.235-.831c-1.235-.235-2.608-.418-4.048-.622l-7.367-1.044-2.222-.329-.609-.093-.209-.04.213.022.609.076,2.222.3,7.371,1.018c1.44.2,2.813.387,4.052.626a22.016,22.016,0,0,1,3.235.853,12.729,12.729,0,0,1,2.062.924C278.795,196.839,279.035,197.008,279.035,197.008Z" transform="translate(-193.314 -127.371)" fill="#fff"/>
      <path id="Path_37071" data-name="Path 37071" d="M219.4,213.36s-.164.08-.48.218-.786.338-1.4.582c-1.222.484-3,1.155-5.261,1.813a58.038,58.038,0,0,1-8.06,1.777,55.945,55.945,0,0,1-10.091.351c-3.577-.12-7-.271-10.1-.076a31.192,31.192,0,0,0-8.082,1.475,20.156,20.156,0,0,0-4.977,2.439c-.529.382-.942.684-1.2.915a4.334,4.334,0,0,1-.409.333s.133-.124.4-.347.662-.542,1.2-.933a19.768,19.768,0,0,1,4.972-2.47,31.1,31.1,0,0,1,8.1-1.5c3.11-.2,6.527-.049,10.109.067a56.676,56.676,0,0,0,10.082-.342,58.263,58.263,0,0,0,8.051-1.777c2.253-.649,4.039-1.311,5.265-1.777.613-.24,1.084-.444,1.4-.569Z" transform="translate(-143.738 -138.818)" fill="#fff"/>
      <path id="Path_37072" data-name="Path 37072" d="M286.835,223.084a.267.267,0,0,1-.08.04l-.236.084c-.2.076-.5.173-.889.28a11.61,11.61,0,0,1-2.99.444,10.22,10.22,0,0,1-2.99-.444c-.373-.111-.671-.213-.889-.293l-.231-.093-.08-.04h.089l.236.076c.2.071.5.164.889.267a10.891,10.891,0,0,0,2.973.4,12.636,12.636,0,0,0,2.977-.444c.369-.1.671-.187.889-.253l.235-.067Z" transform="translate(-204.367 -144.196)" fill="#fff"/>
      <path id="Path_37073" data-name="Path 37073" d="M217.377,251.44s-2.133.444-5.612.969c-1.742.262-3.821.52-6.136.751s-4.888.4-7.554.507-5.243.093-7.554.044-4.443-.173-6.176-.307c-3.51-.267-5.665-.56-5.665-.56l.391.031,1.129.111c.978.1,2.395.227,4.15.351s3.848.227,6.172.284,4.888.044,7.554-.049,5.23-.284,7.554-.5,4.394-.48,6.136-.733,3.146-.475,4.115-.649l1.115-.2Z" transform="translate(-148.928 -159.977)" fill="#fff"/>
      <path id="Path_37074" data-name="Path 37074" d="M285.2,246.789h-2.311c-1.44,0-3.43-.058-5.616-.244s-4.163-.484-5.576-.742c-.711-.124-1.28-.24-1.675-.324l-.444-.1-.156-.04h.16l.444.08,1.675.3c1.417.24,3.386.524,5.572.711s4.177.249,5.612.271h2.151Z" transform="translate(-199.349 -156.588)" fill="#fff"/>
      <path id="Path_37075" data-name="Path 37075" d="M209.7,288.895s-.129.027-.364.058l-1.049.147c-.444.067-1.013.142-1.666.187s-1.391.133-2.222.147-1.72.076-2.666.058h-1.5l-1.586-.053c-2.173-.084-4.554-.249-7.052-.444s-4.888-.444-7.043-.573-4.119-.227-5.776-.2h-1.169l-1.044.053c-.649.027-1.213.058-1.666.116l-1.053.1-.369.031s.129-.022.369-.049l1.049-.124c.444-.062,1.018-.093,1.671-.129l1.044-.058h1.169c1.644-.031,3.6.049,5.776.182s4.546.355,7.043.564,4.888.382,7.047.475l1.582.058h1.5c.964,0,1.862-.022,2.666-.044s1.56-.1,2.222-.138,1.209-.107,1.666-.169l1.049-.129Z" transform="translate(-146.038 -180.379)" fill="#fff"/>
      <path id="Path_37076" data-name="Path 37076" d="M289.495,277.441l-.2.031-.569.058c-.489.053-1.2.111-2.084.173-1.777.12-4.208.2-6.9.138s-5.136-.289-6.892-.5c-.889-.107-1.586-.2-2.075-.28l-.56-.089-.2-.04.2.022.564.071c.489.067,1.2.156,2.079.253,1.755.2,4.186.4,6.883.471s5.136,0,6.9-.111c.889-.049,1.6-.1,2.088-.142l.564-.044Z" transform="translate(-199.682 -174.141)" fill="#fff"/>
      <path id="Path_37077" data-name="Path 37077" d="M235.322,314.077l-.649-.036c-.444,0-1.053-.089-1.862-.111-1.617-.084-3.959-.1-6.852.04s-6.318.484-10.113.986-7.954,1.155-12.321,1.706a107.4,107.4,0,0,1-12.441.946,56.986,56.986,0,0,1-10.135-.733,40.732,40.732,0,0,1-6.643-1.68c-.387-.12-.72-.249-1.009-.364l-.738-.293c-.4-.155-.6-.244-.6-.244l.609.227.738.284c.289.116.627.24,1.013.36a41.324,41.324,0,0,0,6.643,1.644,57.819,57.819,0,0,0,10.122.715,108.37,108.37,0,0,0,12.441-.969c4.377-.564,8.536-1.213,12.335-1.7s7.216-.818,10.1-.964a67.159,67.159,0,0,1,6.852,0C234.429,313.984,235.322,314.077,235.322,314.077Z" transform="translate(-145.193 -194.631)" fill="#fff"/>
      <path id="Path_37078" data-name="Path 37078" d="M211.377,351.416s-2.137.364-5.621.738c-1.737.187-3.817.355-6.127.489s-4.861.2-7.531.182-5.216-.138-7.527-.289-4.386-.364-6.123-.578c-3.479-.444-5.607-.818-5.607-.818l.391.049,1.115.164c.48.076,1.075.16,1.777.244s1.475.2,2.342.293c1.742.2,3.817.4,6.123.56s4.852.253,7.523.28,5.216-.058,7.527-.173,4.386-.289,6.127-.471c.889-.08,1.657-.182,2.346-.258s1.284-.156,1.777-.222L211,351.46Z" transform="translate(-145.682 -215.378)" fill="#fff"/>
      <path id="Path_37079" data-name="Path 37079" d="M283.944,344.6s-.084.031-.24.076l-.68.209c-.6.178-1.457.422-2.528.711-2.137.573-5.119,1.284-8.442,1.893s-6.367,1-8.571,1.226c-1.1.111-2,.187-2.613.231l-.711.049h-.249l.244-.031.711-.067c.618-.053,1.511-.142,2.608-.262,2.222-.24,5.239-.64,8.562-1.249s6.3-1.311,8.442-1.871c1.071-.275,1.933-.511,2.528-.68l.689-.191Z" transform="translate(-194.064 -211.744)" fill="#fff"/>
      <path id="Path_37080" data-name="Path 37080" d="M192.609,388.621a31.358,31.358,0,0,1-3.457.342c-1.071.058-2.351.062-3.772,0a39.1,39.1,0,0,1-9.1-1.524,37.554,37.554,0,0,1-3.555-1.231,33.492,33.492,0,0,1-3.159-1.449l.222.1.626.289c.271.129.6.284,1,.444s.831.364,1.333.551c1,.4,2.222.813,3.555,1.213a44.509,44.509,0,0,0,4.5,1.022,45.6,45.6,0,0,0,4.581.489,36.492,36.492,0,0,0,3.763,0c.538,0,1.022-.058,1.449-.084s.786-.067,1.089-.1l.684-.071Z" transform="translate(-143.865 -234.059)" fill="#fff"/>
      <path id="Path_37081" data-name="Path 37081" d="M262.72,390.9l-.444.08-1.271.2c-1.1.173-2.7.418-4.679.7-3.955.564-9.433,1.266-15.5,1.871s-11.579.986-15.552,1.209c-2,.111-3.612.191-4.728.236l-1.284.049h-.444l.444-.027,1.284-.067,4.723-.262c4-.24,9.491-.64,15.552-1.24s11.553-1.293,15.5-1.84L261,391.14l1.271-.187Z" transform="translate(-171.232 -237.471)" fill="#fff"/>
      <path id="Path_37082" data-name="Path 37082" d="M234.636,425.909s-.969.2-2.742.493-4.341.649-7.554.915a99.074,99.074,0,0,1-11.264.275c-4.243-.138-8.887-.613-13.743-1.209s-9.486-1.2-13.712-1.524a88.7,88.7,0,0,0-11.255-.253,56.722,56.722,0,0,0-7.554.862c-.889.169-1.564.311-2.022.422l-.7.16s.24-.067.7-.178,1.137-.262,2.017-.444a54.577,54.577,0,0,1,7.554-.889,86.7,86.7,0,0,1,11.259.227c4.234.329,8.86.929,13.717,1.524s9.5,1.071,13.739,1.209a99.452,99.452,0,0,0,11.255-.253c3.195-.258,5.776-.609,7.554-.889.889-.142,1.573-.253,2.039-.338Z" transform="translate(-140.82 -256.116)" fill="#fff"/>
      <path id="Path_37083" data-name="Path 37083" d="M334.8,222.26s-.129.351-.418.964a18.08,18.08,0,0,1-1.449,2.475,32.191,32.191,0,0,1-2.666,3.31c-1.075,1.191-2.311,2.444-3.555,3.8a32.443,32.443,0,0,0-3.244,4.061,16.943,16.943,0,0,0-1.906,3.781,11.756,11.756,0,0,0-.627,2.817c-.044.333-.031.6-.044.778a1.4,1.4,0,0,0,0,.271,8.949,8.949,0,0,1,.027-1.053,11.24,11.24,0,0,1,.591-2.808,16.805,16.805,0,0,1,1.9-3.8,32.3,32.3,0,0,1,3.248-4.083c1.253-1.355,2.493-2.608,3.555-3.795a32.972,32.972,0,0,0,2.666-3.293,18.277,18.277,0,0,0,1.471-2.453c.16-.3.253-.547.333-.706S334.8,222.26,334.8,222.26Z" transform="translate(-227.947 -143.763)" fill="#fff"/>
      <path id="Path_37084" data-name="Path 37084" d="M306.14,222.248l.151-.111.444-.3c.391-.253.938-.644,1.6-1.151s1.417-1.137,2.222-1.884a33.769,33.769,0,0,0,2.466-2.573,34.829,34.829,0,0,0,2.155-2.844c.6-.915,1.115-1.777,1.506-2.493s.693-1.333.889-1.777l.227-.484.084-.169a24.559,24.559,0,0,1-1.138,2.462,28.429,28.429,0,0,1-1.5,2.506,31.613,31.613,0,0,1-2.151,2.857,32.309,32.309,0,0,1-2.479,2.577c-.813.742-1.573,1.377-2.222,1.875A24.072,24.072,0,0,1,306.14,222.248Z" transform="translate(-219.753 -136.095)" fill="#fff"/>
      <path id="Path_37085" data-name="Path 37085" d="M234.67,239.057a.382.382,0,0,1,.107-.049l.32-.124c.289-.1.693-.275,1.213-.515a15.947,15.947,0,0,0,3.932-2.8,30.943,30.943,0,0,0,4.5-5.585,78.689,78.689,0,0,0,4.39-7.642,133.6,133.6,0,0,0,6.221-14.761c.7-1.928,1.24-3.5,1.622-4.581l.444-1.249c.049-.133.089-.236.12-.324a.51.51,0,0,1,.044-.107.445.445,0,0,1-.022.116c-.027.089-.062.2-.1.329-.093.307-.227.729-.4,1.262-.351,1.093-.889,2.666-1.555,4.608a123.294,123.294,0,0,1-6.181,14.81,76.293,76.293,0,0,1-4.412,7.656,30.657,30.657,0,0,1-4.568,5.585,15.29,15.29,0,0,1-4,2.759,11.346,11.346,0,0,1-1.231.484l-.329.1a.392.392,0,0,1-.116.027Z" transform="translate(-180.039 -132.127)" fill="#455a64"/>
      <path id="Path_37086" data-name="Path 37086" d="M233,281.488a1.457,1.457,0,0,1,.24-.187l.72-.493c.618-.444,1.511-1.071,2.586-1.893,2.155-1.64,4.985-4.088,8.025-6.883,1.529-1.4,2.99-2.715,4.252-3.977a33.546,33.546,0,0,0,3.137-3.555,19.608,19.608,0,0,0,1.715-2.7c.187-.329.3-.6.391-.778a2.025,2.025,0,0,1,.147-.267,1.271,1.271,0,0,1-.1.289c-.08.182-.182.444-.36.8a17.251,17.251,0,0,1-1.666,2.75,31.029,31.029,0,0,1-3.11,3.608c-1.262,1.28-2.719,2.6-4.248,4a104.394,104.394,0,0,1-8.082,6.843c-1.089.813-2,1.426-2.635,1.84-.315.209-.569.355-.738.444A2.328,2.328,0,0,1,233,281.488Z" transform="translate(-179.111 -165.156)" fill="#455a64"/>
      <path id="Path_37087" data-name="Path 37087" d="M206,373.528l.053-.1c.049-.071.107-.164.178-.28.156-.249.4-.6.715-1.057.644-.889,1.635-2.164,2.941-3.648,2.635-2.959,6.323-6.989,10.388-11.455l10.446-11.4,3.186-3.439.889-.929.231-.236c.053-.053.08-.08.084-.076s-.022.031-.067.089l-.218.253-.835.955c-.755.835-1.822,2.026-3.133,3.484l-10.4,11.446L210,368.542c-1.333,1.471-2.328,2.715-2.99,3.6-.333.444-.582.791-.751,1.026l-.191.271a.36.36,0,0,1-.067.089Z" transform="translate(-164.108 -209.693)" fill="#455a64"/>
      <path id="Path_37088" data-name="Path 37088" d="M298.743,213.858a4.5,4.5,0,0,1-.164-.675c-.049-.218-.1-.489-.142-.8s-.107-.675-.124-1.075-.067-.84-.062-1.333,0-.978.036-1.511a19.462,19.462,0,0,1,1.662-6.665c.227-.48.444-.938.675-1.333s.444-.791.671-1.129.444-.635.613-.889a7.554,7.554,0,0,1,.5-.644,4.57,4.57,0,0,1,.444-.52,4,4,0,0,1-.4.573c-.133.178-.3.4-.467.662s-.387.555-.582.889-.444.715-.644,1.133-.444.889-.649,1.333a20.236,20.236,0,0,0-1.644,6.612c-.027.524-.067,1.022-.058,1.489s0,.889.036,1.3.062.755.093,1.071.067.587.1.809A3.685,3.685,0,0,1,298.743,213.858Z" transform="translate(-215.368 -129.882)" fill="#455a64"/>
      <path id="Path_37089" data-name="Path 37089" d="M309.706,260.49c-.053,0-.853-1.742-1.777-3.946s-1.635-4-1.582-4.035a42.931,42.931,0,0,1,1.777,3.946,41.231,41.231,0,0,1,1.582,4.035Z" transform="translate(-219.866 -160.572)" fill="#455a64"/>
      <path id="Path_37090" data-name="Path 37090" d="M159.592,227.691c-.036.022-.382-.613-1.035-1.577a22.216,22.216,0,0,0-6.478-6.287c-.982-.622-1.626-.951-1.608-.986a2.331,2.331,0,0,1,.471.2c.3.138.715.36,1.222.658a19.79,19.79,0,0,1,3.635,2.786,19.994,19.994,0,0,1,2.893,3.555c.311.5.547.911.693,1.2a2.448,2.448,0,0,1,.209.453Z" transform="translate(-133.252 -141.863)" fill="#455a64"/>
      <path id="Path_37091" data-name="Path 37091" d="M210.226,211.753a1.293,1.293,0,0,1,0-.444,3.67,3.67,0,0,1,1.018-2.222l.027-.027v.031a.84.84,0,0,1,.071.2,1.1,1.1,0,0,1-.111-.173h.04a4.443,4.443,0,0,0-.7,1.133A5.58,5.58,0,0,0,210.226,211.753Z" transform="translate(-166.446 -136.428)" fill="#455a64"/>
      <path id="Path_37092" data-name="Path 37092" d="M223.344,218.277a1.333,1.333,0,0,1-.093-.444,4.208,4.208,0,0,1,.027-1.093,4.252,4.252,0,0,1,.307-1.049,1.445,1.445,0,0,1,.222-.391,7.042,7.042,0,0,0-.444,1.457,7.142,7.142,0,0,0-.018,1.52Z" transform="translate(-173.681 -139.896)" fill="#455a64"/>
      <path id="Path_37093" data-name="Path 37093" d="M237.1,217.862a7.2,7.2,0,0,0-.169-1.231,6.487,6.487,0,0,0-.484-1.151,1.2,1.2,0,0,1,.222.3,3.336,3.336,0,0,1,.351.826,3.612,3.612,0,0,1,.12.889A1.079,1.079,0,0,1,237.1,217.862Z" transform="translate(-181.029 -139.996)" fill="#455a64"/>
      <path id="Path_37094" data-name="Path 37094" d="M248.54,212.748a7.512,7.512,0,0,0-.667-1.129,7.731,7.731,0,0,0-.933-.92,1.27,1.27,0,0,1,.333.2,3.708,3.708,0,0,1,.671.662,3.752,3.752,0,0,1,.48.813,1.221,1.221,0,0,1,.116.373Z" transform="translate(-186.857 -137.34)" fill="#455a64"/>
      <path id="Path_37095" data-name="Path 37095" d="M256.629,204.49a2.728,2.728,0,0,0-.769-1.217,2.626,2.626,0,0,0-1.311-.582h.12a1.724,1.724,0,0,1,.315.04,2.222,2.222,0,0,1,.938.48,2.169,2.169,0,0,1,.609.858,1.333,1.333,0,0,1,.089.307A.444.444,0,0,1,256.629,204.49Z" transform="translate(-191.086 -132.889)" fill="#455a64"/>
      <path id="Path_37096" data-name="Path 37096" d="M260.8,190.053a2.87,2.87,0,0,0-1.169-.56,2.8,2.8,0,0,0-1.293.107,2.04,2.04,0,0,1,2.462.444Z" transform="translate(-193.192 -125.486)" fill="#455a64"/>
      <path id="Path_37097" data-name="Path 37097" d="M201.57,202.105a1.133,1.133,0,0,1,.093-.382,2.6,2.6,0,0,1,1.257-1.369,1.124,1.124,0,0,1,.373-.124A3.133,3.133,0,0,0,201.57,202.105Z" transform="translate(-161.647 -131.522)" fill="#455a64"/>
      <path id="Path_37098" data-name="Path 37098" d="M198.41,191.948a1.248,1.248,0,0,1,.222-.355,3.163,3.163,0,0,1,.742-.7,3.345,3.345,0,0,1,.924-.444,1.266,1.266,0,0,1,.413-.071,4.132,4.132,0,0,0-2.3,1.555Z" transform="translate(-159.891 -126.048)" fill="#455a64"/>
      <path id="Path_37099" data-name="Path 37099" d="M172.109,255.336s0-.027-.027,0a.649.649,0,0,0-.04.142c-.022.138-.044.338-.071.6-.053.52-.111,1.275-.173,2.222-.129,1.871-.275,4.443-.413,7.318s-.244,5.447-.307,7.323c-.031.889-.053,1.662-.071,2.222a4.014,4.014,0,0,1-.027.6,1.1,1.1,0,0,1,0,.209.6.6,0,0,1-.022-.209v-2.826c0-1.875.1-4.47.24-7.331s.311-5.448.48-7.318c.084-.938.169-1.693.249-2.222.04-.258.08-.444.116-.6a.5.5,0,0,1,.062-.151C172.1,255.283,172.118,255.345,172.109,255.336Z" transform="translate(-144.636 -162.128)" fill="#263238"/>
      <path id="Path_37100" data-name="Path 37100" d="M228.741,49.055c-3.706-1.133-7.554,2.186-11.375,1.44-2.311-.444-4.052-2.3-6.11-3.444a11.85,11.85,0,0,0-10.553-.4c-3.137,1.6-5.168,3.292-5.59,6.789-2.857-1.64-7.62,1.955-9.242,5.425s-1.217,7.052-.3,10.771a50.529,50.529,0,0,0,8.362,17.773c.347.471.889.991,1.426.742a1.293,1.293,0,0,0,.551-1.026c.547-3.4.116-6.869-.182-10.3s-.444-6.967.644-10.22,3.644-6.247,7.02-6.914a10.888,10.888,0,0,1,7.3,1.564c2.217,1.249,4.168,2.91,6.278,4.328A13.984,13.984,0,0,0,224,68.3c2.542.107,5.27-1.084,6.35-3.386s-.129-5.572-2.617-6.1a5,5,0,0,0,1-9.775Z" transform="translate(-152.311 -45.597)" fill="#263238"/>
      <path id="Path_37101" data-name="Path 37101" d="M224.764,114.762l-.36-7.345s9.7-1.857,9.478-11.61c-.107-4.705-1.12-14.387-2.133-23.136a18.173,18.173,0,0,0-18.693-16.085l-.942.031c-10.117.951-14.97,10.077-13.739,20.168l2.333,39.279a12.046,12.046,0,0,0,12.663,11.317h0a12.05,12.05,0,0,0,11.393-12.619Z" transform="translate(-159.767 -51.697)" fill="#ffbe9d"/>
      <path id="Path_37102" data-name="Path 37102" d="M241.167,167.038a22.7,22.7,0,0,1-12.837-3.168s3.253,6.914,12.948,5.692Z" transform="translate(-176.516 -111.318)" fill="#eb996e"/>
      <path id="Path_37103" data-name="Path 37103" d="M262.861,106.127a1.4,1.4,0,0,1-1.293,1.449,1.333,1.333,0,0,1-1.48-1.2,1.391,1.391,0,0,1,1.289-1.453,1.333,1.333,0,0,1,1.484,1.209Z" transform="translate(-194.163 -78.555)" fill="#263238"/>
      <path id="Path_37104" data-name="Path 37104" d="M262.5,101.945c-.169.187-1.249-.555-2.746-.5s-2.568.844-2.737.666c-.084-.08.08-.413.547-.778a3.821,3.821,0,0,1,2.182-.76,3.657,3.657,0,0,1,2.2.627C262.412,101.536,262.576,101.861,262.5,101.945Z" transform="translate(-192.443 -76.146)" fill="#263238"/>
      <path id="Path_37105" data-name="Path 37105" d="M229.741,108.483a1.4,1.4,0,0,1-1.293,1.453,1.333,1.333,0,0,1-1.48-1.2,1.4,1.4,0,0,1,1.293-1.453,1.333,1.333,0,0,1,1.48,1.2Z" transform="translate(-175.759 -79.867)" fill="#263238"/>
      <path id="Path_37106" data-name="Path 37106" d="M229.376,103.735c-.164.187-1.249-.555-2.746-.5s-2.568.844-2.737.666c-.084-.08.08-.413.547-.778a3.835,3.835,0,0,1,2.186-.76,3.648,3.648,0,0,1,2.191.627C229.292,103.331,229.461,103.651,229.376,103.735Z" transform="translate(-174.039 -77.14)" fill="#263238"/>
      <path id="Path_37107" data-name="Path 37107" d="M247.951,114.389a9.765,9.765,0,0,1,2.417-.524c.382-.053.742-.142.8-.409a1.973,1.973,0,0,0-.3-1.124c-.391-.911-.8-1.871-1.231-2.87-1.72-4.092-2.977-7.465-2.808-7.554s1.688,3.195,3.4,7.287q.626,1.511,1.186,2.893a2.222,2.222,0,0,1,.253,1.493.964.964,0,0,1-.609.582,2.546,2.546,0,0,1-.649.111A8.047,8.047,0,0,1,247.951,114.389Z" transform="translate(-186.788 -76.886)" fill="#263238"/>
      <path id="Path_37108" data-name="Path 37108" d="M239.262,132.71c.244-.027.307,1.6,1.737,2.706s3.155.866,3.177,1.093c.027.1-.373.329-1.106.373a4.03,4.03,0,0,1-2.666-.818,3.528,3.528,0,0,1-1.333-2.275C238.986,133.109,239.151,132.7,239.262,132.71Z" transform="translate(-182.472 -94.003)" fill="#263238"/>
      <path id="Path_37109" data-name="Path 37109" d="M227.481,86.881c-.133.409-1.635.271-3.386.542s-3.155.8-3.4.444c-.111-.173.12-.564.68-.978a5.941,5.941,0,0,1,5.172-.755C227.2,86.361,227.534,86.686,227.481,86.881Z" transform="translate(-172.26 -67.965)" fill="#263238"/>
      <path id="Path_37110" data-name="Path 37110" d="M261.406,92.169c-.253.347-1.3.031-2.537.058s-2.284.311-2.542-.04c-.111-.169.044-.515.493-.853a3.466,3.466,0,0,1,2.039-.627,3.506,3.506,0,0,1,2.048.573C261.357,91.631,261.517,91.974,261.406,92.169Z" transform="translate(-192.054 -70.662)" fill="#263238"/>
      <path id="Path_37111" data-name="Path 37111" d="M193.066,117.943c-.169-.067-6.767-1.746-6.323,4.888s7.038,4.834,7.038,4.643S193.066,117.943,193.066,117.943Z" transform="translate(-153.396 -85.666)" fill="#ffbe9d"/>
      <path id="Path_37112" data-name="Path 37112" d="M193.684,127.9c-.031,0-.111.089-.3.191a1.137,1.137,0,0,1-.862.089,2.872,2.872,0,0,1-1.5-2.488,3.826,3.826,0,0,1,.213-1.68,1.333,1.333,0,0,1,.813-.951.591.591,0,0,1,.706.271c.1.182.067.315.1.324s.138-.12.062-.391a.751.751,0,0,0-.289-.4.889.889,0,0,0-.653-.124,1.626,1.626,0,0,0-1.142,1.111,3.959,3.959,0,0,0-.275,1.884,3,3,0,0,0,1.884,2.759,1.244,1.244,0,0,0,1.049-.244C193.684,128.062,193.707,127.911,193.684,127.9Z" transform="translate(-155.516 -88.453)" fill="#eb996e"/>
      <path id="Path_37113" data-name="Path 37113" d="M232.393,68.474A14.09,14.09,0,0,1,219.788,66.1c-2.444-1.928-4.372-4.754-7.376-5.567a7.922,7.922,0,0,0-6.025,1.044,15.276,15.276,0,0,0-4.443,4.377c2.057,4.888.986,10.464-.116,15.649a2.666,2.666,0,0,1-.724,1.568c-.764.631-1.964.2-2.666-.493a8.224,8.224,0,0,1-1.96-4.283,27.375,27.375,0,0,1-.324-10.806,18.662,18.662,0,0,1,4.8-9.6A17.684,17.684,0,0,1,213.2,52.86a21.737,21.737,0,0,1,12.743,4.061,12.536,12.536,0,0,1,4.257,4.572" transform="translate(-158.421 -49.633)" fill="#263238"/>
      <path id="Path_37114" data-name="Path 37114" d="M245.868,55.814a1.391,1.391,0,0,1-.04.582,2.693,2.693,0,0,1-.889,1.4,4.239,4.239,0,0,1-2.457.924,7.193,7.193,0,0,1-1.653-.044,3.515,3.515,0,0,1-1.72-.733,2.342,2.342,0,0,1-.889-1.853,2.071,2.071,0,0,1,1.333-1.751,2.639,2.639,0,0,1,1.2-.2,2.19,2.19,0,0,1,1.16.475,3.035,3.035,0,0,1,1.075,2.293,3.524,3.524,0,0,1-.964,2.484,5.332,5.332,0,0,1-2.368,1.453,8.758,8.758,0,0,1-5.714-.418,25.011,25.011,0,0,1-5.048-2.795,31.672,31.672,0,0,0-4.572-2.7,9.864,9.864,0,0,0-4.617-.955,9.438,9.438,0,0,0-3.932,1.182,11.85,11.85,0,0,0-4.283,4.177,15.209,15.209,0,0,0-.813,1.426,4.176,4.176,0,0,1-.262.515.533.533,0,0,1,.044-.142c.031-.089.08-.227.156-.4a11.881,11.881,0,0,1,.751-1.484,11.664,11.664,0,0,1,4.274-4.314,9.607,9.607,0,0,1,4.048-1.231,10.1,10.1,0,0,1,4.763.946,31.77,31.77,0,0,1,4.639,2.728,25.181,25.181,0,0,0,4.972,2.759,8.506,8.506,0,0,0,5.505.418,5.074,5.074,0,0,0,2.213-1.4,3.186,3.186,0,0,0,.889-2.222,2.737,2.737,0,0,0-.951-2.075,2,2,0,0,0-2.071-.253,1.817,1.817,0,0,0-1.2,1.511,2.133,2.133,0,0,0,.8,1.662,3.355,3.355,0,0,0,1.608.7,7.109,7.109,0,0,0,1.608.067,4.163,4.163,0,0,0,2.435-.853,2.755,2.755,0,0,0,.889-1.333A4.436,4.436,0,0,0,245.868,55.814Z" transform="translate(-166.559 -50.102)" fill="#455a64"/>
      <path id="Path_37115" data-name="Path 37115" d="M185,79.324a11.361,11.361,0,0,0,2.053.444,5.852,5.852,0,0,0,2.222-.311,9.722,9.722,0,0,0,2.457-1.293,7.825,7.825,0,0,0,2.83-4.075,16.7,16.7,0,0,0,.369-2.079,1.831,1.831,0,0,1,.053.578,6.366,6.366,0,0,1-.2,1.564,7.594,7.594,0,0,1-2.862,4.283,9.433,9.433,0,0,1-2.555,1.333,5.643,5.643,0,0,1-2.342.253,5.393,5.393,0,0,1-1.528-.409A1.635,1.635,0,0,1,185,79.324Z" transform="translate(-152.439 -60.274)" fill="#455a64"/>
      <path id="Path_37116" data-name="Path 37116" d="M186.06,90.087c0-.062.791.084,2.048-.031a9.158,9.158,0,0,0,7.594-5.412c.52-1.151.635-1.937.7-1.924a1.747,1.747,0,0,1-.053.555,7.412,7.412,0,0,1-.444,1.457,8.829,8.829,0,0,1-7.78,5.559,7.75,7.75,0,0,1-1.52-.071,1.777,1.777,0,0,1-.542-.133Z" transform="translate(-153.028 -66.225)" fill="#455a64"/>
      <path id="Path_37117" data-name="Path 37117" d="M225.3,119.74a.169.169,0,0,1-.2-.138.164.164,0,0,1,.116-.213.182.182,0,0,1,.084.351Z" transform="translate(-174.716 -86.6)" fill="#eb996e"/>
      <path id="Path_37118" data-name="Path 37118" d="M231.735,117.984a.213.213,0,0,1-.093-.4.2.2,0,0,1,.209.164.191.191,0,0,1-.116.24Z" transform="translate(-178.291 -85.595)" fill="#eb996e"/>
      <path id="Path_37119" data-name="Path 37119" d="M236.021,117.562c-.093,0-.182-.093-.209-.24s.031-.28.12-.293.182.093.209.24S236.11,117.548,236.021,117.562Z" transform="translate(-180.67 -85.289)" fill="#eb996e"/>
      <path id="Path_37120" data-name="Path 37120" d="M228.659,123.849c-.089,0-.169-.04-.169-.1s.071-.111.16-.111.169.04.169.1S228.752,123.844,228.659,123.849Z" transform="translate(-176.605 -88.963)" fill="#eb996e"/>
      <path id="Path_37121" data-name="Path 37121" d="M234.493,122.063a.189.189,0,0,1-.044-.373.182.182,0,0,1,.187.169.178.178,0,0,1-.142.2Z" transform="translate(-179.835 -87.879)" fill="#eb996e"/>
      <path id="Path_37122" data-name="Path 37122" d="M265.083,117.328a.173.173,0,0,1-.2-.142.169.169,0,0,1,.116-.218.187.187,0,0,1,.089.36Z" transform="translate(-196.82 -85.255)" fill="#eb996e"/>
      <path id="Path_37123" data-name="Path 37123" d="M269.477,116.713a.213.213,0,0,1-.053-.413.2.2,0,0,1,.191.182A.2.2,0,0,1,269.477,116.713Z" transform="translate(-199.272 -84.884)" fill="#eb996e"/>
      <path id="Path_37124" data-name="Path 37124" d="M261.269,117.634a.147.147,0,1,1,.129-.178A.16.16,0,0,1,261.269,117.634Z" transform="translate(-194.73 -85.463)" fill="#eb996e"/>
      <path id="Path_37125" data-name="Path 37125" d="M264.561,121.869a.187.187,0,0,1-.231-.1.178.178,0,0,1,.067-.244.2.2,0,0,1,.164.347Z" transform="translate(-196.507 -87.783)" fill="#eb996e"/>
      <path id="Path_37126" data-name="Path 37126" d="M268.437,121.076a.151.151,0,0,1-.129-.173.156.156,0,0,1,.2-.093.151.151,0,0,1,.129.169.156.156,0,0,1-.2.1Z" transform="translate(-198.73 -87.386)" fill="#eb996e"/>
      <path id="Path_37127" data-name="Path 37127" d="M255.291,319.049l-.107-9.878s-6.589-9.131-4-19.035c0,0,4.3-3.021,15.818-1.253,0,0,14.463-14.09,33.849-10.5s21.19,20.475,21.377,25.074a32.991,32.991,0,0,1-6.532,22.261l-.444,8.664s-1.591,3.261-6.19,3.039-4.341-.889-4.341-.889-5.776,4.661-6.025,5.879-1.155,5.834-1.155,5.834a8.865,8.865,0,0,1-6.327,3.044,9.366,9.366,0,0,1-4.945-1.013,4.888,4.888,0,0,1-2.448-2.875,10.131,10.131,0,0,0-5.434-6.261l-2.986-.782s-1.2,1.1-5.394,1.546-4.208-1.035-4.208-1.035-6.518,1.506-11.415-4.888C250.519,330.921,248.417,321.826,255.291,319.049Z" transform="translate(-188.881 -174.622)" fill="#ff725e"/>
      <path id="Path_37128" data-name="Path 37128" d="M340.279,344.013a2.63,2.63,0,0,1,.218-.3c.147-.2.364-.48.635-.853.547-.742,1.311-1.84,2.155-3.257a37.483,37.483,0,0,0,2.55-5.19c.4-1.013.782-2.093,1.115-3.226a6.862,6.862,0,0,0,.32-3.555,5.056,5.056,0,0,0-2.133-2.8,15.357,15.357,0,0,0-3.013-1.568,20.3,20.3,0,0,0-5.6-1.333,20.608,20.608,0,0,0-3.892,0c-.444.04-.813.084-1.058.12a1.9,1.9,0,0,1-.369.04,2.344,2.344,0,0,1,.364-.084c.235-.049.591-.111,1.053-.164a18.781,18.781,0,0,1,3.915-.076,19.679,19.679,0,0,1,5.683,1.293,15.3,15.3,0,0,1,3.061,1.577,5.247,5.247,0,0,1,2.222,2.933,7.163,7.163,0,0,1-.324,3.679,32.665,32.665,0,0,1-1.137,3.244,35.9,35.9,0,0,1-2.6,5.194,34.98,34.98,0,0,1-2.222,3.226c-.284.369-.515.644-.671.826A1.968,1.968,0,0,1,340.279,344.013Z" transform="translate(-233.684 -199.017)" fill="#263238"/>
      <path id="Path_37129" data-name="Path 37129" d="M274.922,303.72a.768.768,0,0,1,.067.227,2.425,2.425,0,0,1,.031.689,3.879,3.879,0,0,1-1.111,2.244,29.22,29.22,0,0,1-2.9,2.333,24.41,24.41,0,0,0-3.248,3.15,25.722,25.722,0,0,0-4.274,6.994c-.4.978-.662,1.777-.84,2.355-.076.262-.142.48-.2.653a1.04,1.04,0,0,1-.08.222.851.851,0,0,1,.036-.235c.044-.178.093-.4.156-.667a21.589,21.589,0,0,1,.773-2.386,24.4,24.4,0,0,1,4.252-7.087,23.682,23.682,0,0,1,3.288-3.164,33.852,33.852,0,0,0,2.919-2.279,3.91,3.91,0,0,0,1.138-2.142A4.214,4.214,0,0,0,274.922,303.72Z" transform="translate(-195.431 -189.028)" fill="#263238"/>
      <g id="Group_55706" data-name="Group 55706" transform="translate(87.24 104.41)" opacity="0.5">
        <path id="Path_37130" data-name="Path 37130" d="M308.06,292.07l5.9,1.506s8.633-9.7,18.115-12.157l-3.555-.84A41.029,41.029,0,0,0,308.06,292.07Z" transform="translate(-308.06 -280.58)"/>
      </g>
      <path id="Path_37131" data-name="Path 37131" d="M330.148,280.942a39.826,39.826,0,0,0-20.257,11.553l-1.831-.444s8.362-9.175,20.461-11.49Z" transform="translate(-220.82 -176.159)" fill="#ff725e"/>
      <g id="Group_55707" data-name="Group 55707" transform="translate(87.24 104.401)" opacity="0.7">
        <path id="Path_37132" data-name="Path 37132" d="M330.148,280.942a39.826,39.826,0,0,0-20.257,11.553l-1.831-.444s8.362-9.175,20.461-11.49Z" transform="translate(-308.06 -280.56)"/>
      </g>
      <path id="Path_37133" data-name="Path 37133" d="M254.77,371.533c3.266-4.674,11.459-3.244,15.2.96s5.394,9.989,2.964,14.974c-1.04,2.128-3.03,4-5.4,3.955a11.108,11.108,0,0,0,2.533-9.886,15.953,15.953,0,0,0-5.741-8.807c-1.409-1.137-2.995-2.386-4.8-2.564s-3.248-.231-4.754,1.369" transform="translate(-191.208 -225.093)" fill="#ff725e"/>
      <g id="Group_55708" data-name="Group 55708" transform="translate(63.562 143.531)" opacity="0.3">
        <path id="Path_37134" data-name="Path 37134" d="M254.77,371.533c3.266-4.674,11.459-3.244,15.2.96s5.394,9.989,2.964,14.974c-1.04,2.128-3.03,4-5.4,3.955a11.108,11.108,0,0,0,2.533-9.886,15.953,15.953,0,0,0-5.741-8.807c-1.409-1.137-2.995-2.386-4.8-2.564s-3.248-.231-4.754,1.369" transform="translate(-254.77 -368.624)"/>
      </g>
      <g id="Group_55709" data-name="Group 55709" transform="translate(106.848 131.626)" opacity="0.3">
        <path id="Path_37135" data-name="Path 37135" d="M352.266,354.924a2.033,2.033,0,0,0,1.826,1.982,3.137,3.137,0,0,0,2.617-1.146,7.3,7.3,0,0,0,1.333-2.63,27.755,27.755,0,0,0,1.013-11.3c-1.413,4.3-3.937,9.655-6.865,13.1" transform="translate(-352.19 -341.83)"/>
      </g>
      <g id="Group_55710" data-name="Group 55710" transform="translate(96.511 125.129)" opacity="0.3">
        <path id="Path_37136" data-name="Path 37136" d="M342.435,332.025c-.635-1.88-2.582-2.977-4.443-3.626a21.386,21.386,0,0,0-5.923-1.164,4.665,4.665,0,0,0-1.888.182,1.875,1.875,0,0,0-1.24,1.333,1.249,1.249,0,0,0,.631,1.289,35.208,35.208,0,0,1,7.052,12.8,1.2,1.2,0,0,0,2.062.444,19.038,19.038,0,0,0,3.164-6.252C342.408,335.416,342.986,333.647,342.435,332.025Z" transform="translate(-328.925 -327.208)"/>
      </g>
      <g id="Group_55711" data-name="Group 55711" transform="translate(64.549 117.41)" opacity="0.3">
        <path id="Path_37137" data-name="Path 37137" d="M259.981,323.239A18.827,18.827,0,0,1,257,312.691a3.1,3.1,0,0,1,.662-2.2,3.338,3.338,0,0,1,2.666-.631,50.883,50.883,0,0,1,7.78,1.093c.2.044.444.111.507.3a.76.76,0,0,1-.173.889c-3.977,2.439-6.8,6.927-8.3,11.317" transform="translate(-256.992 -309.836)"/>
      </g>
      <path id="Path_37138" data-name="Path 37138" d="M252.139,306.36a4,4,0,0,1-.031.671c-.036.444-.076,1.053-.1,1.822a27.668,27.668,0,0,0,1.155,9.2c.3.973.618,1.831.92,2.542s.564,1.275.755,1.657a3.256,3.256,0,0,1,.275.613,3.935,3.935,0,0,1-.355-.569c-.218-.373-.5-.933-.822-1.64a23.207,23.207,0,0,1-.978-2.537,27.462,27.462,0,0,1-.791-3.239,26.584,26.584,0,0,1-.324-6.012c.049-.769.111-1.4.178-1.822A3.616,3.616,0,0,1,252.139,306.36Z" transform="translate(-189.555 -190.495)" fill="#fafafa"/>
      <path id="Path_37139" data-name="Path 37139" d="M327.608,279.859a1.1,1.1,0,0,1-.231.084l-.667.2c-.293.08-.649.178-1.057.311s-.889.262-1.382.444c-1.026.342-2.222.8-3.532,1.36a44.707,44.707,0,0,0-4.154,2.053c-1.435.8-2.75,1.657-3.919,2.47s-2.177,1.613-3,2.311c-.422.333-.782.667-1.106.946s-.6.529-.813.738l-.515.467c-.12.107-.187.16-.191.151a1.1,1.1,0,0,1,.16-.182l.484-.5c.209-.218.471-.475.791-.764s.667-.631,1.084-.978c.813-.715,1.822-1.52,2.981-2.359a46.165,46.165,0,0,1,3.932-2.5,45.483,45.483,0,0,1,4.181-2.048c1.333-.551,2.533-1,3.555-1.333.515-.173.986-.293,1.4-.413s.773-.209,1.071-.275l.675-.151A.839.839,0,0,1,327.608,279.859Z" transform="translate(-220.253 -175.768)" fill="#fafafa"/>
      <path id="Path_37140" data-name="Path 37140" d="M345.168,327.277c-.036.04-.706-.644-2-1.466a16.359,16.359,0,0,0-2.373-1.24,18.042,18.042,0,0,0-3.11-.982,19.177,19.177,0,0,0-5.927-.36c-1.52.156-2.439.409-2.453.36a4.367,4.367,0,0,1,.644-.187,13.281,13.281,0,0,1,1.777-.333,17.835,17.835,0,0,1,6,.293,17.523,17.523,0,0,1,3.155,1.013,14.826,14.826,0,0,1,2.377,1.3l.444.307.387.307a5.5,5.5,0,0,1,.6.511A4.208,4.208,0,0,1,345.168,327.277Z" transform="translate(-232.628 -199.708)" fill="#fafafa"/>
      <path id="Path_37141" data-name="Path 37141" d="M262.671,396.872a.755.755,0,0,1-.213-.058,6.191,6.191,0,0,1-.591-.213,13.707,13.707,0,0,1-2.075-1.031,15.245,15.245,0,0,1-7.411-12.695,13.549,13.549,0,0,1,.12-2.311c.031-.271.08-.48.1-.622a1.416,1.416,0,0,1,.053-.213,6.452,6.452,0,0,1-.067.844,16.183,16.183,0,0,0-.049,2.3,15.6,15.6,0,0,0,7.336,12.561,17.164,17.164,0,0,0,2.026,1.089A6.394,6.394,0,0,1,262.671,396.872Z" transform="translate(-189.876 -231.264)" fill="#fafafa"/>
      <g id="Group_55712" data-name="Group 55712" transform="translate(71.366 155.244)" opacity="0.2">
        <path id="Path_37142" data-name="Path 37142" d="M274.928,395.084a1.875,1.875,0,0,0-1.991.511,2.435,2.435,0,0,0-.564,2.031,3.11,3.11,0,0,0,.849,1.853,2.631,2.631,0,0,0,1.466.715,1.884,1.884,0,0,0,1.648-1.053,2.915,2.915,0,0,0-1.409-4.057" transform="translate(-272.335 -394.984)"/>
      </g>
      <path id="Path_37143" data-name="Path 37143" d="M274.1,395a2.959,2.959,0,0,0,1.577,4.763,1.7,1.7,0,0,1-1.493.4,3.066,3.066,0,0,1-2.088-3.164,2.346,2.346,0,0,1,.644-1.5A2.013,2.013,0,0,1,274.1,395" transform="translate(-200.83 -239.749)" fill="#ff725e"/>
      <g id="Group_55713" data-name="Group 55713" transform="translate(71.256 155.25)" opacity="0.4">
        <path id="Path_37144" data-name="Path 37144" d="M274.1,395a2.959,2.959,0,0,0,1.577,4.763,1.7,1.7,0,0,1-1.493.4,3.066,3.066,0,0,1-2.088-3.164,2.346,2.346,0,0,1,.644-1.5A2.013,2.013,0,0,1,274.1,395" transform="translate(-272.086 -394.999)"/>
      </g>
      <g id="Group_55714" data-name="Group 55714" transform="translate(64.907 152.722)" opacity="0.2">
        <path id="Path_37145" data-name="Path 37145" d="M260.3,389.4a1.822,1.822,0,0,0-1.92.5,2.351,2.351,0,0,0-.547,1.96,3.084,3.084,0,0,0,.822,1.777,2.555,2.555,0,0,0,1.417.689,1.808,1.808,0,0,0,1.586-1.013,2.821,2.821,0,0,0-1.36-3.919" transform="translate(-257.799 -389.309)"/>
      </g>
      <path id="Path_37146" data-name="Path 37146" d="M259.51,389.339a2.848,2.848,0,0,0,1.524,4.594,1.653,1.653,0,0,1-1.444.387,2.964,2.964,0,0,1-2.013-3.057,2.248,2.248,0,0,1,.618-1.444,1.951,1.951,0,0,1,1.333-.48" transform="translate(-192.762 -236.603)" fill="#ff725e"/>
      <g id="Group_55715" data-name="Group 55715" transform="translate(64.804 152.735)" opacity="0.4">
        <path id="Path_37147" data-name="Path 37147" d="M259.51,389.339a2.848,2.848,0,0,0,1.524,4.594,1.653,1.653,0,0,1-1.444.387,2.964,2.964,0,0,1-2.013-3.057,2.248,2.248,0,0,1,.618-1.444,1.951,1.951,0,0,1,1.333-.48" transform="translate(-257.567 -389.338)"/>
      </g>
      <path id="Path_37148" data-name="Path 37148" d="M303.19,361.38Z" transform="translate(-218.114 -221.068)" fill="#263238"/>
      <path id="Path_37149" data-name="Path 37149" d="M301.37,361.961a.077.077,0,0,0,.062-.031h.031Z" transform="translate(-217.103 -221.373)" fill="#263238"/>
      <path id="Path_37150" data-name="Path 37150" d="M302.58,363.058a2.524,2.524,0,0,0-1.151-1.333,2.981,2.981,0,0,0-1.36-.315h-.04a1.723,1.723,0,0,0-.746.222,3.23,3.23,0,0,0-1.777,2.6,3.555,3.555,0,0,0,2.044,3.377,2.15,2.15,0,0,0,1.364.2,2.124,2.124,0,0,0,1.142-.8A4,4,0,0,0,302.58,363.058Z" transform="translate(-214.953 -221.084)" fill="#263238"/>
      <path id="Path_37151" data-name="Path 37151" d="M272,351.77Z" transform="translate(-200.783 -215.728)" fill="#263238"/>
      <path id="Path_37152" data-name="Path 37152" d="M270.46,352.237a.335.335,0,0,1,.058-.027h.027Z" transform="translate(-199.927 -215.972)" fill="#263238"/>
      <path id="Path_37153" data-name="Path 37153" d="M271.484,353.188a2.173,2.173,0,0,0-1-1.173,2.568,2.568,0,0,0-1.173-.275h-.049a1.488,1.488,0,0,0-.644.2,2.79,2.79,0,0,0-1.542,2.253,3.07,3.07,0,0,0,1.777,2.919,1.6,1.6,0,0,0,2.168-.515,3.479,3.479,0,0,0,.462-3.4Z" transform="translate(-198.045 -215.711)" fill="#263238"/>
      <path id="Path_37154" data-name="Path 37154" d="M279,371.71a1.109,1.109,0,0,1,.275.053,7.807,7.807,0,0,1,.773.24,10.22,10.22,0,0,1,2.613,1.417,11.722,11.722,0,0,1,2.99,3.244,13.69,13.69,0,0,1,1.857,5.065,16.12,16.12,0,0,1-.062,5.4,8.136,8.136,0,0,1-1.844,4,5.407,5.407,0,0,1-2.5,1.6,3,3,0,0,1-1.08.147,6.694,6.694,0,0,0,1.053-.231,5.505,5.505,0,0,0,2.4-1.622,8.087,8.087,0,0,0,1.755-3.919,16.05,16.05,0,0,0,.04-5.332,13.672,13.672,0,0,0-1.808-4.99,11.833,11.833,0,0,0-2.906-3.226,11.309,11.309,0,0,0-2.546-1.466C279.382,371.839,279,371.732,279,371.71Z" transform="translate(-204.672 -226.808)" fill="#263238"/>
      <path id="Path_37155" data-name="Path 37155" d="M268.844,356.932c-.022,0-.138-.08-.258-.289a1.973,1.973,0,0,1-.227-.889,1.924,1.924,0,0,1,.222-.889c.12-.209.231-.307.258-.289a5.114,5.114,0,0,0-.249,1.191A5.334,5.334,0,0,0,268.844,356.932Z" transform="translate(-198.76 -217.287)" fill="#fafafa"/>
      <path id="Path_37156" data-name="Path 37156" d="M299.153,367.858c-.027,0-.138-.1-.236-.338a1.84,1.84,0,0,1-.093-.982,1.778,1.778,0,0,1,.409-.889c.169-.2.311-.267.329-.244a4.079,4.079,0,0,0-.511,1.177,3.8,3.8,0,0,0,.1,1.275Z" transform="translate(-215.672 -223.302)" fill="#fafafa"/>
      <path id="Path_37157" data-name="Path 37157" d="M305.023,418.463c-.022.036-.56-.338-1.5-.809a28.284,28.284,0,0,0-3.817-1.511c-1.533-.5-2.928-.924-3.928-1.28-.5-.173-.889-.324-1.173-.444a1.947,1.947,0,0,1-.413-.2,16.085,16.085,0,0,1,1.64.489c1,.315,2.408.715,3.946,1.217a22.445,22.445,0,0,1,3.821,1.586c.236.12.444.249.618.36a4.311,4.311,0,0,1,.444.3A1.779,1.779,0,0,1,305.023,418.463Z" transform="translate(-213.113 -250.429)" fill="#263238"/>
      <path id="Path_37158" data-name="Path 37158" d="M372.772,391.56a4.674,4.674,0,0,1-.409.626c-.267.4-.689.951-1.226,1.617a46.089,46.089,0,0,1-4.648,4.825c-1.942,1.777-3.75,3.284-5.03,4.421l-1.511,1.333a4.542,4.542,0,0,1-.569.48,4.4,4.4,0,0,1,.507-.542c.338-.342.84-.822,1.466-1.409,1.253-1.169,3.044-2.715,4.977-4.47a54.161,54.161,0,0,0,4.679-4.759c.555-.649,1-1.186,1.284-1.564a4.768,4.768,0,0,1,.48-.56Z" transform="translate(-249.337 -237.838)" fill="#263238"/>
      <g id="Group_55716" data-name="Group 55716" transform="translate(115.882 153.02)" opacity="0.2">
        <path id="Path_37159" data-name="Path 37159" d="M372.52,398.911a8.9,8.9,0,0,0,6.8-2.222,6.136,6.136,0,0,0,1.266-6.709,29.886,29.886,0,0,1-4.888,5.732c-1.209,1.026-2.013,2.271-3.181,3.212" transform="translate(-372.52 -389.98)"/>
      </g>
      <g id="Group_55717" data-name="Group 55717" transform="translate(107.346 104.104)" opacity="0.5">
        <path id="Path_37160" data-name="Path 37160" d="M353.332,281.854c3.11,4.577,9.486,6.025,12.57,10.611a20.15,20.15,0,0,1,2.355,5.936l7.109,25.651c.293-5.559-1.044-11.059-2.377-16.467q-1.964-8-3.941-16A7.443,7.443,0,0,0,365,285.817c-3.652-2.453-7.411-4.95-11.695-5.927" transform="translate(-353.31 -279.89)"/>
      </g>
      <g id="Group_55718" data-name="Group 55718" transform="translate(70.364 119.273)" opacity="0.3">
        <path id="Path_37161" data-name="Path 37161" d="M285.275,314.679c.2.622-.658,1.471-1.986,2.524-.671.524-1.453,1.124-2.315,1.777s-1.777,1.369-2.742,2.142-1.835,1.542-2.666,2.222-1.555,1.36-2.222,1.906c-1.3,1.089-2.3,1.751-2.875,1.431s-.533-1.582.227-3.35a13.856,13.856,0,0,1,1.72-2.879,17.853,17.853,0,0,1,6.327-5.15,14.132,14.132,0,0,1,3.168-1.1C283.818,313.835,285.089,314.083,285.275,314.679Z" transform="translate(-270.079 -314.03)" fill="#fff"/>
      </g>
      <path id="Path_37162" data-name="Path 37162" d="M275.007,394.327a4.75,4.75,0,0,1-1.009.244,5.031,5.031,0,0,1-1.009.235,1.666,1.666,0,0,1,.955-.444A1.733,1.733,0,0,1,275.007,394.327Z" transform="translate(-201.333 -239.338)" fill="#fafafa"/>
      <path id="Path_37163" data-name="Path 37163" d="M260.031,388.733a9.033,9.033,0,0,0-1.853.427c-.027-.058.311-.364.862-.489A1.284,1.284,0,0,1,260.031,388.733Z" transform="translate(-193.101 -236.193)" fill="#fafafa"/>
      <path id="Path_37164" data-name="Path 37164" d="M325.939,430.1c-.062.031-.653-.964-1.475-2.133s-1.555-2.062-1.506-2.106a9.219,9.219,0,0,1,1.7,1.973A9.423,9.423,0,0,1,325.939,430.1Z" transform="translate(-229.097 -256.897)" fill="#fafafa"/>
      <path id="Path_37165" data-name="Path 37165" d="M266.638,330.45c.062.04-.813,1.333-1.573,3.066s-1.124,3.248-1.2,3.23a3.485,3.485,0,0,1,.178-1,14.775,14.775,0,0,1,.8-2.324,14.951,14.951,0,0,1,1.169-2.164,4,4,0,0,1,.618-.809Z" transform="translate(-196.265 -203.881)" fill="#fafafa"/>
      <path id="Path_37166" data-name="Path 37166" d="M312.545,308.977a9.055,9.055,0,0,1-2.493-.609,9.464,9.464,0,0,1-2.333-1.075c.031-.062,1.08.391,2.408.853S312.563,308.91,312.545,308.977Z" transform="translate(-220.631 -191.01)" fill="#fafafa"/>
      <path id="Path_37167" data-name="Path 37167" d="M391.218,294.88a7.11,7.11,0,0,1-4.288,2.759,24.857,24.857,0,0,0,2.279-1.169A25.234,25.234,0,0,0,391.218,294.88Z" transform="translate(-264.646 -184.116)" fill="#eb996e"/>
      <path id="Path_37168" data-name="Path 37168" d="M376.182,256.839c-2.391-5.51-26.269-25.069-26.269-25.069L336.45,249.25c.2-.262,21.963,13,21.963,13l6.421,29.273h0l1.106,5.225s-2.888,2.519-2.768,5.176c.076,1.777-4,5.6-4,5.6-.969-.8-1.591-1.031-2.079-.938l-4.332,4.057,1.031.942a5.981,5.981,0,0,0,4.217,1.56l7.407-.227a4.057,4.057,0,0,0,2.795-1.231c2.279-2.342,7.087-7.58,7.18-10.1.058-1.413.067-2.759.062-3.843C375.431,297.727,378.568,262.349,376.182,256.839Z" transform="translate(-236.595 -149.047)" fill="#ffbe9d"/>
      <path id="Path_37169" data-name="Path 37169" d="M397.24,393.54a1.524,1.524,0,0,1-.413.267c-.271.151-.689.329-1.173.6a5.163,5.163,0,0,0-1.453,1.249,8.36,8.36,0,0,1-1.777,1.653,6.945,6.945,0,0,1-4.194,1.155,2.275,2.275,0,0,1-.764-.133.533.533,0,0,1-.355-.471.4.4,0,0,1,.156-.342c.076-.044.124-.036.124-.031a.186.186,0,0,0-.1.067.347.347,0,0,0-.093.3.444.444,0,0,0,.315.36,2.168,2.168,0,0,0,.72.089,7.109,7.109,0,0,0,4.066-1.182,8.4,8.4,0,0,0,1.737-1.6,5.118,5.118,0,0,1,1.533-1.257c.507-.253.929-.4,1.213-.533a2.855,2.855,0,0,1,.458-.187Z" transform="translate(-264.745 -238.938)" fill="#eb996e"/>
      <path id="Path_37170" data-name="Path 37170" d="M399.273,402.22c.031.058-.582.418-1.24.978s-1.12,1.1-1.173,1.057a3.43,3.43,0,0,1,1.031-1.226A3.3,3.3,0,0,1,399.273,402.22Z" transform="translate(-270.163 -243.761)" fill="#eb996e"/>
      <path id="Path_37171" data-name="Path 37171" d="M405.766,374.9c0,.067-.653.107-1.369.444s-1.169.813-1.217.764a2.768,2.768,0,0,1,2.586-1.217Z" transform="translate(-273.675 -228.568)" fill="#eb996e"/>
      <path id="Path_37172" data-name="Path 37172" d="M388.07,405c0,.04-.475-.191-1.275-.378a7.189,7.189,0,0,0-4.026.169,3.361,3.361,0,0,1-.444.133.635.635,0,0,1-.475-.1l-1.155-.871a7.382,7.382,0,0,1-1.044-.835,8.23,8.23,0,0,1,1.142.7l1.2.813c.191.147.444.036.724-.067a7.637,7.637,0,0,1,.889-.249,6.932,6.932,0,0,1,3.239.133,5.7,5.7,0,0,1,.92.351C387.968,404.924,388.079,404.991,388.07,405Z" transform="translate(-260.6 -244.261)" fill="#eb996e"/>
      <path id="Path_37173" data-name="Path 37173" d="M188.949,236.306c-2.848-.813-4.11-1.164-4.11-1.164v-1.306h1.133c1.137,0,2.773-1.417,2.773-1.417l2.43-3.719.311-2.386c-.258-2.941-3.8-1.777-3.8-1.777-.169-1.026-4.71-2.057-8.122-2.693a7.847,7.847,0,0,0-6.5,1.715l-3.275,2.764-9.811,8.58L134.647,256.3,118,251.382s-5.3,16.2-6.154,22c-1.657,11.148,13.668,18.578,20.439,12.841,5.252-4.443,35.884-37.448,40.958-42.918h.04c3.11-.4,8.389-3.555,8.389-3.555l2.706.32s7.189,1.373,8.042-.036C193.059,238.945,191.8,237.119,188.949,236.306Z" transform="translate(-111.72 -143.457)" fill="#ffbe9d"/>
      <path id="Path_37174" data-name="Path 37174" d="M250.678,247.28a1.73,1.73,0,0,1,.156.311,5.661,5.661,0,0,1,.293.911,8.171,8.171,0,0,1,.116,3.141,8.033,8.033,0,0,1-1.084,2.95,5.538,5.538,0,0,1-.56.773c-.147.173-.236.262-.249.249s.284-.409.666-1.1a8.886,8.886,0,0,0,.955-5.981C250.816,247.755,250.638,247.293,250.678,247.28Z" transform="translate(-188.196 -157.666)" fill="#eb996e"/>
      <path id="Path_37175" data-name="Path 37175" d="M256.47,226.589a1.822,1.822,0,0,1,.276-.049c.187-.027.444-.062.8-.093a12.491,12.491,0,0,1,2.986.031,7.171,7.171,0,0,1,1.986.6,5.287,5.287,0,0,1,1.888,1.449,3.861,3.861,0,0,1,.911,2.466,3.07,3.07,0,0,1-.351,1.373,4.888,4.888,0,0,1-.889,1.155,13.656,13.656,0,0,1-2.173,1.711,7.271,7.271,0,0,1-1.169.64,1.6,1.6,0,0,1-.667.111.84.84,0,0,1-.613-.311.964.964,0,0,1-.191-.635,1.968,1.968,0,0,1,.111-.609,4.445,4.445,0,0,1,.52-1.026,4.319,4.319,0,0,1,1.529-1.373l.027.156-3.03-.578-.822-.169a1.247,1.247,0,0,1-.284-.076,1.609,1.609,0,0,1,.293.027l.826.129,3.044.5.236.04-.209.116a4.226,4.226,0,0,0-1.449,1.333,4.073,4.073,0,0,0-.484.986,1.133,1.133,0,0,0,.053,1.044.889.889,0,0,0,1.035.124,6.666,6.666,0,0,0,1.12-.622,13.3,13.3,0,0,0,2.133-1.684,3.439,3.439,0,0,0,1.16-2.368,3.666,3.666,0,0,0-.849-2.328,5.177,5.177,0,0,0-1.808-1.409,7.025,7.025,0,0,0-1.928-.6,13.508,13.508,0,0,0-2.95-.107l-.809.049a1.035,1.035,0,0,1-.262,0Z" transform="translate(-192.153 -146.048)" fill="#eb996e"/>
      <path id="Path_37176" data-name="Path 37176" d="M275.419,228.38a1.98,1.98,0,0,1,.076.48,11.409,11.409,0,0,1,.053,1.333,8.474,8.474,0,0,1-1.106,4.2,5.223,5.223,0,0,1-3.43,2.6,1.448,1.448,0,0,1-1.253-.444.964.964,0,0,1-.187-.32.244.244,0,0,1-.022-.124,2.022,2.022,0,0,0,.275.382,1.382,1.382,0,0,0,1.169.329,5.237,5.237,0,0,0,3.248-2.55,8.887,8.887,0,0,0,1.142-4.092C275.441,229.069,275.379,228.38,275.419,228.38Z" transform="translate(-199.42 -147.164)" fill="#eb996e"/>
      <path id="Path_37177" data-name="Path 37177" d="M268.607,250.828c-.027-.031.2-.231.48-.631a3.755,3.755,0,0,0,.64-1.728,3.692,3.692,0,0,0-.3-1.822c-.191-.444-.378-.684-.347-.706a1.6,1.6,0,0,1,.493.635,3.373,3.373,0,0,1-.36,3.719A1.657,1.657,0,0,1,268.607,250.828Z" transform="translate(-198.896 -156.921)" fill="#eb996e"/>
      <path id="Path_37178" data-name="Path 37178" d="M254.078,238a1.439,1.439,0,0,1,.142.973,2.568,2.568,0,0,1-.311,1.04,4.8,4.8,0,0,1-.755,1.075,5.528,5.528,0,0,1-2,1.275,3.813,3.813,0,0,1-.929.311,4.336,4.336,0,0,1,.862-.444,6.363,6.363,0,0,0,1.893-1.289,5.1,5.1,0,0,0,.738-1.022,2.635,2.635,0,0,0,.338-.955A4.669,4.669,0,0,0,254.078,238Z" transform="translate(-188.686 -152.509)" fill="#eb996e"/>
      <path id="Path_37179" data-name="Path 37179" d="M285.779,240.94l-12.5,6.812a29.2,29.2,0,0,1,12.761,8.078,36.8,36.8,0,0,1,7.607,12.1l12.441-8.282S299.393,244.477,285.779,240.94Z" transform="translate(-201.494 -154.143)" fill="#c7f7f8"/>
      <path id="Path_37180" data-name="Path 37180" d="M278.24,248.476l10.091-5.776h.062a21.714,21.714,0,0,1,5.105,2.1,28.5,28.5,0,0,1,5.074,3.741,39.339,39.339,0,0,1,4.7,5.15,43.434,43.434,0,0,1,4.057,6.287l.049.093-.089.058-.653.444L297.031,267l-.116.076-.049-.124a35.337,35.337,0,0,0-5.536-9.286,31.7,31.7,0,0,0-6.314-5.741,28.332,28.332,0,0,0-4.888-2.719c-.6-.258-1.075-.444-1.4-.547l-.364-.124-.124-.044.129.027.373.107c.329.1.8.267,1.413.511a27.507,27.507,0,0,1,4.959,2.666,31.414,31.414,0,0,1,6.376,5.736,35.338,35.338,0,0,1,5.6,9.331l-.164-.049,9.6-6.429.653-.444-.04.147a43.64,43.64,0,0,0-4.026-6.252,39.23,39.23,0,0,0-4.665-5.128,28.632,28.632,0,0,0-5.043-3.732,21.691,21.691,0,0,0-5.052-2.115h.062Z" transform="translate(-204.25 -155.121)" fill="#fff"/>
      <path id="Path_37181" data-name="Path 37181" d="M312.1,259.338c-.329,1.924-2.764,3.088-5.443,2.6s-4.594-2.444-4.266-4.368,2.764-3.088,5.443-2.6S312.418,257.414,312.1,259.338Z" transform="translate(-217.651 -161.877)" fill="#fafafa"/>
      <path id="Path_37182" data-name="Path 37182" d="M309.58,261.29l-.444.48-.5-.484.418-.444a3.151,3.151,0,0,1-.755-1.333l.84-.364a2.59,2.59,0,0,0,.689,1.226c.342.333.564.36.693.218.444-.48-1.533-1.737-.52-2.857a1.312,1.312,0,0,1,1.866,0l.444-.471.5.484-.422.444a2.866,2.866,0,0,1,.613,1.075l-.826.387a2.439,2.439,0,0,0-.591-1.018c-.347-.333-.582-.333-.715-.187-.418.444,1.542,1.72.538,2.83A1.292,1.292,0,0,1,309.58,261.29Z" transform="translate(-220.953 -163.211)" fill="#455a64"/>
      <path id="Path_37183" data-name="Path 37183" d="M280.876,252.09s2.119,1.075.084,2.666l-3.11-1.209Z" transform="translate(-204.033 -160.339)" fill="#fafafa"/>
      <path id="Path_37184" data-name="Path 37184" d="M297.47,243.773a2.6,2.6,0,0,0,4-.089l-2.408-.8Z" transform="translate(-214.935 -155.221)" fill="#fafafa"/>
      <path id="Path_37185" data-name="Path 37185" d="M317.54,289.781s2.75-2.222,4.354.782l-3.07,2.053Z" transform="translate(-226.088 -180.843)" fill="#fafafa"/>
      <path id="Path_37186" data-name="Path 37186" d="M338.995,276.2s-1.986,1.244-.64,3.808l2.035-1.36Z" transform="translate(-237.394 -173.736)" fill="#fafafa"/>
      <path id="Path_37187" data-name="Path 37187" d="M321.721,291.342a.835.835,0,1,1-.831-.862.844.844,0,0,1,.831.862Z" transform="translate(-227.483 -181.671)" fill="#455a64"/>
      <path id="Path_37188" data-name="Path 37188" d="M340.492,279.412a.831.831,0,1,1-.831-.862.844.844,0,0,1,.831.862Z" transform="translate(-237.919 -175.042)" fill="#455a64"/>
      <path id="Path_37189" data-name="Path 37189" d="M301.546,244.005c0,.307-.444.555-.955.555s-.951-.249-.951-.555.444-.555.955-.555S301.546,243.694,301.546,244.005Z" transform="translate(-216.141 -155.538)" fill="#455a64"/>
      <path id="Path_37190" data-name="Path 37190" d="M283.312,254.143a.946.946,0,1,1-.924-.738A.849.849,0,0,1,283.312,254.143Z" transform="translate(-206.029 -161.067)" fill="#455a64"/>
      <path id="Path_37191" data-name="Path 37191" d="M299.617,252.933c0,.471-.587.853-1.311.853s-1.306-.369-1.306-.853.587-.853,1.311-.853S299.617,252.489,299.617,252.933Z" transform="translate(-214.674 -160.333)" fill="#fafafa"/>
      <path id="Path_37192" data-name="Path 37192" d="M324.35,276.309a1.272,1.272,0,0,1-1.626-.831,1.364,1.364,0,0,1,.511-1.808,1.271,1.271,0,0,1,1.626.835A1.36,1.36,0,0,1,324.35,276.309Z" transform="translate(-228.881 -172.281)" fill="#fafafa"/>
      <path id="Path_37193" data-name="Path 37193" d="M285.08,241.015l5.132,5.416s2.053,2.351,3.435,1.24-.56-3.181-.969-3.786-5.439-6.7-5.439-6.7Z" transform="translate(-208.051 -152.054)" fill="#ffbe9d"/>
      <path id="Path_37194" data-name="Path 37194" d="M286.821,234.85a3.265,3.265,0,0,1-.2.938,9.819,9.819,0,0,1-.889,2.128,7.211,7.211,0,0,1-1.462,1.8,2.665,2.665,0,0,1-.791.542,7.943,7.943,0,0,1,.68-.662,8.93,8.93,0,0,0,1.373-1.777A24.566,24.566,0,0,0,286.821,234.85Z" transform="translate(-207.162 -150.758)" fill="#eb996e"/>
      <path id="Path_37195" data-name="Path 37195" d="M151.74,282.43a1.683,1.683,0,0,1-.24.235l-.715.64-2.666,2.315c-2.262,1.942-5.4,4.612-8.887,7.523s-6.723,5.536-9.078,7.349c-1.173.924-2.137,1.648-2.813,2.146l-.782.555a1.648,1.648,0,0,1-.28.182,2.384,2.384,0,0,1,.253-.218l.755-.6c.658-.515,1.6-1.257,2.764-2.195,2.324-1.871,5.505-4.492,9.007-7.4s6.638-5.545,8.949-7.469l2.715-2.262.746-.6a1.873,1.873,0,0,1,.271-.2Z" transform="translate(-119.81 -177.198)" fill="#eb996e"/>
    </g>
  </g>
</svg>
